<?xml version="1.0" encoding="UTF-8" standalone="no"?>
<!-- Created with Inkscape (http://www.inkscape.org/) -->

<svg
   xmlns:dc="http://purl.org/dc/elements/1.1/"
   xmlns:cc="http://creativecommons.org/ns#"
   xmlns:rdf="http://www.w3.org/1999/02/22-rdf-syntax-ns#"
   xmlns:svg="http://www.w3.org/2000/svg"
   xmlns="http://www.w3.org/2000/svg"
   xmlns:xlink="http://www.w3.org/1999/xlink"
   xmlns:sodipodi="http://sodipodi.sourceforge.net/DTD/sodipodi-0.dtd"
   xmlns:inkscape="http://www.inkscape.org/namespaces/inkscape"
   width="1024"
   height="1024"
   viewBox="0 0 1024 1024"
   id="svg2"
   version="1.1"
   inkscape:version="0.91 r13725"
   sodipodi:docname="furniture.svg"
   inkscape:export-filename="C:\code\fireperson\Assets\Materials\Objects\objects1.png"
   inkscape:export-xdpi="90"
   inkscape:export-ydpi="90">
  <defs
     id="defs4">
    <linearGradient
       inkscape:collect="always"
       id="linearGradient4181">
      <stop
         style="stop-color:#734727;stop-opacity:1;"
         offset="0"
         id="stop4183" />
      <stop
         style="stop-color:#bd7744;stop-opacity:1"
         offset="1"
         id="stop4185" />
    </linearGradient>
    <linearGradient
       inkscape:collect="always"
       id="linearGradient4171">
      <stop
         style="stop-color:#734727;stop-opacity:1;"
         offset="0"
         id="stop4173" />
      <stop
         style="stop-color:#9f6942;stop-opacity:1"
         offset="1"
         id="stop4175" />
    </linearGradient>
    <radialGradient
       inkscape:collect="always"
       xlink:href="#linearGradient4171"
       id="radialGradient4179"
       cx="189.82957"
       cy="84.422813"
       fx="189.82957"
       fy="84.422813"
       r="20.257231"
       gradientTransform="matrix(0.58105581,0.01163471,-0.18435963,9.2072074,65.092156,-695.08415)"
       gradientUnits="userSpaceOnUse" />
    <radialGradient
       inkscape:collect="always"
       xlink:href="#linearGradient4181"
       id="radialGradient4187"
       cx="194"
       cy="34.92786"
       fx="194"
       fy="34.92786"
       r="75"
       gradientTransform="matrix(0.999832,-0.01832939,0.02666669,1.4546152,-32.898819,-12.322832)"
       gradientUnits="userSpaceOnUse" />
    <filter
       style="color-interpolation-filters:sRGB"
       inkscape:label="Greyscale"
       id="filter4321">
      <feColorMatrix
         values="0.46875 0.83 0.47 0.05 0 0.46875 0.83 0.47 0.05 0 0.46875 0.83 0.47 0.05 0 0 0 0 1 0 "
         id="feColorMatrix4323"
         result="fbSourceGraphic" />
      <feColorMatrix
         result="fbSourceGraphicAlpha"
         in="fbSourceGraphic"
         values="0 0 0 -1 0 0 0 0 -1 0 0 0 0 -1 0 0 0 0 1 0"
         id="feColorMatrix4325" />
      <feColorMatrix
         id="feColorMatrix4327"
         values="0.47 0.83 0.47 0.05 0 0.47 0.83 0.47 0.05 0 0.47 0.83 0.47 0.05 0 0 0 0 1 0 "
         in="fbSourceGraphic" />
    </filter>
    <pattern
       patternUnits="userSpaceOnUse"
       width="32"
       height="61.560286"
       patternTransform="translate(641.58862,95.128)"
       id="pattern3685">
      <g
         transform="matrix(-0.70710678,-2.1764848,0.70710678,-2.1764848,434.83258,1773.8675)"
         id="g3665">
        <path
           inkscape:connector-curvature="0"
           id="rect4136-3-3-6"
           d="m 409.91821,556.30255 17.71411,0 0,20 -17.71411,0 z"
           style="fill:#cc7333;fill-opacity:1;stroke:none;stroke-opacity:1"
           transform="matrix(0.70710678,-0.70710678,0.70710678,0.70710678,0,0)" />
        <path
           inkscape:connector-curvature="0"
           id="rect4136-5-5-75"
           d="m 406.37537,556.30255 3.54282,0 0,20 -3.54282,0 z"
           style="fill:#d98245;fill-opacity:1;stroke:none;stroke-opacity:1"
           transform="matrix(0.70710678,-0.70710678,0.70710678,0.70710678,0,0)" />
        <path
           inkscape:connector-curvature="0"
           id="rect4136-3-9-7-1"
           d="m 405.48972,556.30255 0.8857,0 0,20 -0.8857,0 z"
           style="fill:#cc7333;fill-opacity:1;stroke:none;stroke-opacity:1"
           transform="matrix(0.70710678,-0.70710678,0.70710678,0.70710678,0,0)" />
        <path
           inkscape:connector-curvature="0"
           id="rect4136-5-8-2-3"
           d="m 403.71829,556.30255 1.77141,0 0,20 -1.77141,0 z"
           style="fill:#e18b4e;fill-opacity:1;stroke:none;stroke-opacity:1"
           transform="matrix(0.70710678,-0.70710678,0.70710678,0.70710678,0,0)" />
        <path
           inkscape:connector-curvature="0"
           id="rect4136-3-9-0-3-9"
           d="m 402.83258,556.30255 0.88571,0 0,20 -0.88571,0 z"
           style="fill:#cc7333;fill-opacity:1;stroke:none;stroke-opacity:1"
           transform="matrix(0.70710678,-0.70710678,0.70710678,0.70710678,0,0)" />
        <path
           inkscape:connector-curvature="0"
           id="rect4136-5-30-4-0"
           d="m -431.28976,556.30255 3.54282,0 0,20 -3.54282,0 z"
           style="fill:#d98245;fill-opacity:1;stroke:none;stroke-opacity:1"
           transform="matrix(-0.70710678,0.70710678,0.70710678,0.70710678,0,0)" />
        <path
           inkscape:connector-curvature="0"
           id="rect4136-3-9-00-4-7"
           d="m -432.17542,556.30255 0.88571,0 0,20 -0.88571,0 z"
           style="fill:#cc7333;fill-opacity:1;stroke:none;stroke-opacity:1"
           transform="matrix(-0.70710678,0.70710678,0.70710678,0.70710678,0,0)" />
        <path
           inkscape:connector-curvature="0"
           id="rect4136-5-8-8-0-5"
           d="m -433.94687,556.30255 1.77141,0 0,20 -1.77141,0 z"
           style="fill:#e18b4e;fill-opacity:1;stroke:none;stroke-opacity:1"
           transform="matrix(-0.70710678,0.70710678,0.70710678,0.70710678,0,0)" />
        <path
           inkscape:connector-curvature="0"
           id="rect4136-3-9-0-5-2-0"
           d="m -434.83258,556.30255 0.8857,0 0,20 -0.8857,0 z"
           style="fill:#cc7333;fill-opacity:1;stroke:none;stroke-opacity:1"
           transform="matrix(-0.70710678,0.70710678,0.70710678,0.70710678,0,0)" />
      </g>
    </pattern>
  </defs>
  <sodipodi:namedview
     id="base"
     pagecolor="#ffffff"
     bordercolor="#666666"
     borderopacity="1.0"
     inkscape:pageopacity="0.0"
     inkscape:pageshadow="2"
     inkscape:zoom="1"
     inkscape:cx="484"
     inkscape:cy="846.77234"
     inkscape:document-units="px"
     inkscape:current-layer="layer1"
     showgrid="true"
     inkscape:window-width="1366"
     inkscape:window-height="705"
     inkscape:window-x="-8"
     inkscape:window-y="-8"
     inkscape:window-maximized="1"
     gridtolerance="10"
     units="px">
    <inkscape:grid
       type="xygrid"
       id="grid4179"
       spacingx="64"
       spacingy="64.000001"
       originy="0" />
  </sodipodi:namedview>
  <metadata
     id="metadata7">
    <rdf:RDF>
      <cc:Work
         rdf:about="">
        <dc:format>image/svg+xml</dc:format>
        <dc:type
           rdf:resource="http://purl.org/dc/dcmitype/StillImage" />
        <dc:title />
      </cc:Work>
    </rdf:RDF>
  </metadata>
  <g
     inkscape:label="Layer 1"
     inkscape:groupmode="layer"
     id="layer1"
     transform="translate(0,-28.362161)">
    <rect
       style="fill:#cc7333;fill-opacity:1;stroke:none;stroke-opacity:1"
       id="rect4153-5"
       width="80"
       height="15.16317"
       x="343.00012"
       y="126.36216"
       inkscape:export-filename="C:\code\fireperson\Assets\Materials\Objects\rect4155-8.png"
       inkscape:export-xdpi="90"
       inkscape:export-ydpi="90" />
    <rect
       style="opacity:1;fill:#ae5f27;fill-opacity:1;stroke:none;stroke-width:4;stroke-opacity:1"
       id="rect4393"
       width="46.458923"
       height="15.864022"
       x="712.74786"
       y="68.158195" />
    <path
       style="fill:#734727;fill-opacity:1;stroke:none;stroke-opacity:1"
       d="M 0.40654102,31.761851 C 1.480382,29.026378 3.122788,27.591082 5.450857,28.787044 c 3.191319,1.639426 3.40236,1.798267 4.166108,5.836479 1.766937,9.342437 3.990716,18.644377 4.66526,28.187144 0.693426,9.809878 -0.660728,29.523255 -0.660728,29.523255 l -10.01133,0 c 0,0 3.322984,-16.757809 3.203626,-25.278108 C 6.697703,58.768843 4.816271,54.694475 3.010993,42.607425 2.162218,36.924544 -1.139515,35.700234 0.40654102,31.761851 Z"
       id="rect4136"
       inkscape:connector-curvature="0"
       sodipodi:nodetypes="ssssccsss" />
    <path
       style="fill:#734727;fill-opacity:1;stroke:none;stroke-opacity:1"
       d="m 3.626265,90.034896 49.25575,0.919611 c 0,0 6.332492,1.098047 8.046751,3.781217 1.804614,2.824587 0.76322,10.472726 0.76322,10.472726 l -58.065721,0 z"
       id="rect4138"
       inkscape:connector-curvature="0"
       sodipodi:nodetypes="ccsccc" />
    <path
       style="fill:#734727;fill-opacity:1;stroke:none;stroke-opacity:1"
       d="m 3.626265,105.20846 9.210425,0 c 0,0 4.479838,37.29948 -2.30892,51.2627 -2.1588251,1.46468 -5.299692,0.70711 -5.299692,0.70711 l 1.20136,-27.03337 z"
       id="rect4140"
       inkscape:connector-curvature="0"
       sodipodi:nodetypes="cccccc" />
    <path
       style="fill:#734727;fill-opacity:1;stroke:none;stroke-opacity:1"
       d="m 53.682922,105.20846 8.009056,0 c 0,0 1.522127,12.8746 2.02816,26.14719 0.330748,8.67529 -3.442374,25.88039 -3.442374,25.88039 l -6.313443,0.0348 2.922226,-25.39369 z"
       id="rect4142"
       inkscape:connector-curvature="0"
       sodipodi:nodetypes="ccscccc" />
    <path
       style="fill:#ff2a2a;fill-opacity:1;stroke:none;stroke-opacity:1"
       d="m 464,52.362204 32,0 c 0,0 -9.31056,7.442189 -8.99648,15.379826 0.29696,7.50522 10.32905,15.41399 6.73374,19.22545 -6.85099,7.26286 -21.19522,7.1838 -27.95939,-0.18578 -3.83316,-4.17622 6.0693,-11.31398 6.65847,-19.22327 C 472.96262,60.49339 464,52.362204 464,52.362204 Z"
       id="rect4187"
       inkscape:connector-curvature="0"
       sodipodi:nodetypes="ccssssc" />
    <path
       style="fill:#241c1c;fill-opacity:1;stroke:none;stroke-opacity:1"
       d="m 512,92.383024 128,0 -15.55635,51.979176 -92.64466,-0.7071 z"
       id="rect4206"
       inkscape:connector-curvature="0"
       sodipodi:nodetypes="ccccc" />
    <path
       style="fill:none;fill-opacity:1;stroke:#000000;stroke-width:6;stroke-opacity:1"
       id="path4226"
       sodipodi:type="arc"
       sodipodi:cx="575.81982"
       sodipodi:cy="92.202827"
       sodipodi:rx="7.9583693"
       sodipodi:ry="15.736544"
       sodipodi:start="0"
       sodipodi:end="6.2442957"
       d="m 583.77819,92.202827 a 7.9583693,15.736544 0 0 1 -7.88099,15.735803 7.9583693,15.736544 0 0 1 -8.03424,-15.429828 7.9583693,15.736544 0 0 1 7.72477,-16.035825 7.9583693,15.736544 0 0 1 8.18445,15.118017"
       sodipodi:open="true" />
    <path
       style="fill:none;fill-opacity:1;stroke:#000000;stroke-width:6;stroke-opacity:1"
       id="path4226-5"
       sodipodi:type="arc"
       sodipodi:cx="576.18018"
       sodipodi:cy="68.868294"
       sodipodi:rx="7.9583693"
       sodipodi:ry="15.736544"
       sodipodi:start="0"
       sodipodi:end="6.2442957"
       d="m 584.13855,68.868294 a 7.9583693,15.736544 0 0 1 -7.881,15.7358 7.9583693,15.736544 0 0 1 -8.03424,-15.429826 7.9583693,15.736544 0 0 1 7.72478,-16.035825 7.9583693,15.736544 0 0 1 8.18444,15.118017"
       sodipodi:open="true" />
    <path
       style="fill:none;fill-opacity:1;stroke:#000000;stroke-width:6;stroke-opacity:1"
       id="path4226-6"
       sodipodi:type="arc"
       sodipodi:cx="576.52692"
       sodipodi:cy="47.65509"
       sodipodi:rx="7.9583693"
       sodipodi:ry="15.736544"
       sodipodi:start="0"
       sodipodi:end="6.2442957"
       d="m 584.48529,47.65509 a 7.9583693,15.736544 0 0 1 -7.881,15.7358 7.9583693,15.736544 0 0 1 -8.03424,-15.429825 7.9583693,15.736544 0 0 1 7.72478,-16.035825 7.9583693,15.736544 0 0 1 8.18444,15.118017"
       sodipodi:open="true" />
    <g
       id="g4225"
       transform="translate(32,28)">
      <path
         sodipodi:nodetypes="ccccccc"
         inkscape:connector-curvature="0"
         id="rect4150"
         d="m 139.57235,40.48342 40.51446,0 -6.75241,57.070705 6.75241,30.808075 -40.51446,0 6.27009,-31.313125 z"
         style="fill:url(#radialGradient4179);fill-opacity:1;stroke:none;stroke-opacity:1" />
      <rect
         y="28.362206"
         x="87"
         height="13.131312"
         width="150"
         id="rect4148"
         style="fill:url(#radialGradient4187);fill-opacity:1;stroke:none;stroke-opacity:1" />
    </g>
    <path
       style="fill:#cc7333;fill-opacity:1;fill-rule:evenodd;stroke:none;stroke-width:1px;stroke-linecap:butt;stroke-linejoin:miter;stroke-opacity:1"
       d="m 704.10538,70.183706 c -3.17449,2.762267 66.44269,2.738868 64,0 -10.04057,-11.257993 -26.81455,-31.646432 -32,-31.999985 -4.2916,-0.292609 -18.39719,20.163564 -32,31.999985 z"
       id="path4257"
       inkscape:connector-curvature="0"
       sodipodi:nodetypes="ssss" />
    <g
       id="g5893"
       inkscape:export-filename="C:\code\fireperson\Assets\Materials\Objects\pipe.png"
       inkscape:export-xdpi="90"
       inkscape:export-ydpi="90"
       transform="translate(0,1.9999994)">
      <rect
         transform="scale(-1,1)"
         inkscape:export-ydpi="90"
         inkscape:export-xdpi="90"
         inkscape:export-filename="C:\code\fireperson\Assets\Sprites\pipe.png"
         y="28.362162"
         x="-672"
         height="64"
         width="32"
         id="rect4136-3-9-0-5"
         style="fill:#ae5f27;fill-opacity:1;stroke:none;stroke-opacity:1" />
      <rect
         transform="scale(-1,1)"
         inkscape:export-ydpi="90"
         inkscape:export-xdpi="90"
         inkscape:export-filename="C:\code\fireperson\Assets\Sprites\pipe.png"
         y="28.362162"
         x="-665"
         height="64"
         width="18"
         id="rect4136-3-9-00"
         style="fill:#e18b4e;fill-opacity:1;stroke:none;stroke-opacity:1" />
      <rect
         transform="scale(-1,1)"
         inkscape:export-ydpi="90"
         inkscape:export-xdpi="90"
         inkscape:export-filename="C:\code\fireperson\Assets\Sprites\pipe.png"
         y="28.362162"
         x="-664"
         height="64"
         width="16"
         id="rect4136-3-8"
         style="fill:#cc7333;fill-opacity:1;stroke:none;stroke-opacity:1" />
    </g>
    <g
       id="g6236"
       inkscape:export-filename="C:\code\fireperson\Assets\Materials\Objects\pipecorner.png"
       inkscape:export-xdpi="90"
       inkscape:export-ydpi="90">
      <path
         sodipodi:nodetypes="ccccc"
         inkscape:connector-curvature="0"
         id="rect4136-3-9-0-5-5"
         d="m -672,116.36216 32,0 0,16 -23.71105,-7.32295 z"
         style="fill:#ae5f27;fill-opacity:1;stroke:none;stroke-opacity:1"
         transform="scale(-1,1)" />
      <path
         sodipodi:nodetypes="cccccc"
         inkscape:connector-curvature="0"
         id="rect4136-3-9-00-7"
         d="m -665,116.36216 18,0 0,12.5 -11.27195,-1.81161 L -665,119.86216 Z"
         style="fill:#e18b4e;fill-opacity:1;stroke:none;stroke-opacity:1"
         transform="scale(-1,1)" />
      <path
         sodipodi:nodetypes="cccccc"
         inkscape:connector-curvature="0"
         id="rect4136-3-8-82"
         d="m -664,116.36216 16,0 0,12 -8.99717,-1.73654 L -664,120.36216 Z"
         style="fill:#cc7333;fill-opacity:1;stroke:none;stroke-opacity:1"
         transform="scale(-1,1)" />
      <path
         sodipodi:nodetypes="ccccc"
         inkscape:connector-curvature="0"
         id="rect4136-3-9-0-5-5-2"
         d="m 680,124.36217 0,31.99999 -16,0 6.06629,-19.21473 z"
         style="fill:#ae5f27;fill-opacity:1;stroke:none;stroke-opacity:1" />
      <path
         sodipodi:nodetypes="cccccc"
         inkscape:connector-curvature="0"
         id="rect4136-3-9-00-7-2"
         d="m 680,131.36216 0,18.00001 -12.49999,-1e-5 2.56628,-12.71048 6.43371,-5.28952 z"
         style="fill:#e18b4e;fill-opacity:1;stroke:none;stroke-opacity:1" />
      <path
         sodipodi:nodetypes="cccccc"
         inkscape:connector-curvature="0"
         id="rect4136-3-8-82-0"
         d="m 680,132.36216 0,16 -11.99999,0 2.26458,-10.12408 L 676,132.36216 Z"
         style="fill:#cc7333;fill-opacity:1;stroke:none;stroke-opacity:1" />
      <path
         sodipodi:nodetypes="ccccc"
         inkscape:connector-curvature="0"
         id="rect4136-3-9-0-5-1"
         d="m -672,116.36216 32,16 -24,24 -16,-32 z"
         style="fill:#ae5f27;fill-opacity:1;stroke:none;stroke-opacity:1"
         transform="scale(-1,1)" />
      <path
         sodipodi:nodetypes="ccccc"
         inkscape:connector-curvature="0"
         id="rect4136-3-9-00-8"
         d="m -676.5,131.36216 11.5,-11.5 18,9 -20.5,20.5 z"
         style="fill:#e18b4e;fill-opacity:1;stroke:none;stroke-opacity:1"
         transform="scale(-1,1)" />
      <path
         sodipodi:nodetypes="ccccc"
         inkscape:connector-curvature="0"
         id="rect4136-3-8-3"
         d="m -664,120.36216 16,8 -20,20 -8,-16 z"
         style="fill:#cc7333;fill-opacity:1;stroke:none;stroke-opacity:1"
         transform="scale(-1,1)" />
    </g>
    <g
       id="g6218"
       inkscape:export-filename="C:\code\fireperson\Assets\Materials\Objects\pipeT.png"
       inkscape:export-xdpi="90"
       inkscape:export-ydpi="90">
      <path
         sodipodi:nodetypes="cccccc"
         inkscape:connector-curvature="0"
         id="rect4136-3-9-0-5-1-1-1"
         d="m 680,210.36216 -3.5,-7 -8.69473,3.48658 -2.80527,8.01342 7,3.5 z"
         style="fill:#ae5f27;fill-opacity:1;stroke:none;stroke-opacity:1" />
      <path
         sodipodi:nodetypes="cccccc"
         inkscape:connector-curvature="0"
         id="rect4136-3-9-0-5-1-1-5"
         d="m 640,202.36216 7,3.5 2.10329,-12.9953 -2.10329,-10.0047 -7,3.5 z"
         style="fill:#ae5f27;fill-opacity:1;stroke:none;stroke-opacity:1" />
      <path
         sodipodi:nodetypes="ccccc"
         inkscape:connector-curvature="0"
         id="rect4136-3-9-0-5-5-7-0"
         d="m 672,218.36216 -32,0 0,-16 20.32103,1.59711 z"
         style="fill:#ae5f27;fill-opacity:1;stroke:none;stroke-opacity:1" />
      <path
         sodipodi:nodetypes="ccccc"
         inkscape:connector-curvature="0"
         id="rect4136-3-9-0-5-5-7"
         d="m 672,170.36216 -32,0 0,16 20.07501,-3.77771 z"
         style="fill:#ae5f27;fill-opacity:1;stroke:none;stroke-opacity:1" />
      <path
         sodipodi:nodetypes="cccccc"
         inkscape:connector-curvature="0"
         id="rect4136-3-9-00-7-6"
         d="m 665,170.36216 -18,0 0,12.5 13.55576,-4.32404 L 665,173.86216 Z"
         style="fill:#e18b4e;fill-opacity:1;stroke:none;stroke-opacity:1" />
      <path
         sodipodi:nodetypes="cccccc"
         inkscape:connector-curvature="0"
         id="rect4136-3-8-82-5"
         d="m 664,170.36216 -16,0 0,12 9.08032,-3.11293 L 664,174.36216 Z"
         style="fill:#cc7333;fill-opacity:1;stroke:none;stroke-opacity:1" />
      <path
         sodipodi:nodetypes="cccccc"
         inkscape:connector-curvature="0"
         id="rect4136-3-9-0-5-5-2-7"
         d="m 680,178.36217 0,31.99999 -7.10542,-7.90096 -0.89458,-8.09904 1.20945,-7.0261 z"
         style="fill:#ae5f27;fill-opacity:1;stroke:none;stroke-opacity:1" />
      <path
         sodipodi:nodetypes="cccccc"
         inkscape:connector-curvature="0"
         id="rect4136-3-9-00-7-2-7"
         d="m 680,185.36216 0,18.00001 -3.5,-1e-5 -5.45149,-9.10016 5.45149,-8.89984 z"
         style="fill:#e18b4e;fill-opacity:1;stroke:none;stroke-opacity:1" />
      <path
         sodipodi:nodetypes="cccccc"
         inkscape:connector-curvature="0"
         id="rect4136-3-8-82-0-7"
         d="m 680,186.36216 0,16 -4,0 -6.20345,-8.25039 L 676,186.36216 Z"
         style="fill:#cc7333;fill-opacity:1;stroke:none;stroke-opacity:1" />
      <path
         sodipodi:nodetypes="cccccc"
         inkscape:connector-curvature="0"
         id="rect4136-3-9-0-5-1-1"
         d="m 672,170.36216 -7,3.5 3.81091,6.46671 7.68909,5.03329 3.5,-7 z"
         style="fill:#ae5f27;fill-opacity:1;stroke:none;stroke-opacity:1" />
      <path
         sodipodi:nodetypes="cccccc"
         inkscape:connector-curvature="0"
         id="rect4136-3-9-00-8-8"
         d="m 676.5,185.36216 -11.5,-11.5 -1,0.5 5.01537,6.16717 6.98463,5.83283 z"
         style="fill:#e18b4e;fill-opacity:1;stroke:none;stroke-opacity:1" />
      <path
         sodipodi:nodetypes="cccccc"
         inkscape:connector-curvature="0"
         id="rect4136-3-9-00-8-8-61"
         d="m 647,182.86216 0,23 1,0.5 1.80282,-12.84428 L 648,182.36216 Z"
         style="fill:#e18b4e;fill-opacity:1;stroke:none;stroke-opacity:1" />
      <path
         sodipodi:nodetypes="cccccc"
         inkscape:connector-curvature="0"
         id="rect4136-3-9-00-7-6-8"
         d="m 665,218.36216 -18,0 0,-12.5 11.17767,2.73437 6.82233,6.26563 z"
         style="fill:#e18b4e;fill-opacity:1;stroke:none;stroke-opacity:1" />
      <path
         sodipodi:nodetypes="cccccc"
         inkscape:connector-curvature="0"
         id="rect4136-3-9-00-8-8-6"
         d="m 665,214.86216 11.5,-11.5 -0.5,-1 -5.91499,3.51123 L 664,214.36216 Z"
         style="fill:#e18b4e;fill-opacity:1;stroke:none;stroke-opacity:1" />
      <path
         sodipodi:nodetypes="cccccccc"
         inkscape:connector-curvature="0"
         id="rect4136-3-8-3-8"
         d="m 664,174.36216 -16,8 0,24 16,8 12,-12 -4,-8 4,-8 z"
         style="fill:#cc7333;fill-opacity:1;stroke:none;stroke-opacity:1" />
      <path
         sodipodi:nodetypes="cccccc"
         inkscape:connector-curvature="0"
         id="rect4136-3-8-82-5-1"
         d="m 664,218.36216 -16,0 0,-12 8.69535,3.19587 7.30465,4.80413 z"
         style="fill:#cc7333;fill-opacity:1;stroke:none;stroke-opacity:1" />
    </g>
    <g
       id="g6194"
       inkscape:export-filename="C:\code\fireperson\Assets\Materials\Objects\pipeX.png"
       inkscape:export-xdpi="90"
       inkscape:export-ydpi="90"
       transform="translate(4,0)">
      <path
         sodipodi:nodetypes="ccccc"
         inkscape:connector-curvature="0"
         id="rect4136-3-9-0-5-1-1-18-17"
         d="m 644,282.36216 7.80125,-3.09937 -12.50156,-12.60173 -3.29969,7.7011 z"
         style="fill:#ae5f27;fill-opacity:1;stroke:none;stroke-opacity:1" />
      <path
         sodipodi:nodetypes="ccccc"
         inkscape:connector-curvature="0"
         id="rect4136-3-9-00-8-8-4-2"
         d="m 639.5,267.36216 11.5,11.5 2.20188,-0.5 L 640,265.36059 Z"
         style="fill:#e18b4e;fill-opacity:1;stroke:none;stroke-opacity:1" />
      <path
         sodipodi:nodetypes="ccccc"
         inkscape:connector-curvature="0"
         id="rect4136-3-9-0-5-1-1-1-5"
         d="m 684,274.36216 -3.19953,-8.10172 -12.70188,12.60172 7.90141,3.5 z"
         style="fill:#ae5f27;fill-opacity:1;stroke:none;stroke-opacity:1" />
      <path
         sodipodi:nodetypes="ccccc"
         inkscape:connector-curvature="0"
         id="rect4136-3-9-00-8-8-6-2"
         d="m 669,278.86216 11.5,-11.5 -0.60016,-2.20188 -12.70109,13.10172 z"
         style="fill:#e18b4e;fill-opacity:1;stroke:none;stroke-opacity:1" />
      <path
         sodipodi:nodetypes="ccccc"
         inkscape:connector-curvature="0"
         id="rect4136-3-9-0-5-1-1-18"
         d="m 676,234.36216 -7.90141,2.99922 13.10251,12.80203 2.7989,-7.80125 z"
         style="fill:#ae5f27;fill-opacity:1;stroke:none;stroke-opacity:1" />
      <path
         sodipodi:nodetypes="ccccc"
         inkscape:connector-curvature="0"
         id="rect4136-3-9-00-8-8-4"
         d="m 680.5,249.36216 -11.5,-11.5 -1.7011,0.60016 13.00157,12.80125 z"
         style="fill:#e18b4e;fill-opacity:1;stroke:none;stroke-opacity:1" />
      <path
         sodipodi:nodetypes="ccccc"
         inkscape:connector-curvature="0"
         id="rect4136-3-9-0-5-1-1-18-1"
         d="m 636,242.36216 2.99922,7.80125 13.40297,-13.00235 L 644,234.36216 Z"
         style="fill:#ae5f27;fill-opacity:1;stroke:none;stroke-opacity:1" />
      <path
         sodipodi:nodetypes="cccc"
         inkscape:connector-curvature="0"
         id="rect4136-3-9-0-5-5-2-7-1"
         d="m 684,242.36217 0,31.99999 -8,-16 z"
         style="fill:#ae5f27;fill-opacity:1;stroke:none;stroke-opacity:1" />
      <path
         sodipodi:nodetypes="cccccc"
         inkscape:connector-curvature="0"
         id="rect4136-3-9-00-7-2-7-0"
         d="m 684,249.36216 0,18.00001 -3.5,-10e-6 -4.5,-9 4.5,-9 z"
         style="fill:#e18b4e;fill-opacity:1;stroke:none;stroke-opacity:1" />
      <path
         sodipodi:nodetypes="cccccc"
         inkscape:connector-curvature="0"
         id="rect4136-3-8-82-0-7-8"
         d="m 684,250.36216 0,16 -4,0 -5.41643,-7.71671 L 680,250.36216 Z"
         style="fill:#cc7333;fill-opacity:1;stroke:none;stroke-opacity:1" />
      <path
         sodipodi:nodetypes="cccccccccc"
         inkscape:connector-curvature="0"
         id="rect4136-3-8-3-8-7"
         d="m 668,238.36216 -8,4 -8,-4 0,40 8,-4 8,4 12,-12 -4,-8 4,-8 z"
         style="fill:#cc7333;fill-opacity:1;stroke:none;stroke-opacity:1" />
      <path
         sodipodi:nodetypes="cccc"
         inkscape:connector-curvature="0"
         id="rect4136-3-9-0-5-5-2-7-1-6"
         d="m 675.99999,282.36216 -31.99999,0 16.00001,-8.00001 z"
         style="fill:#ae5f27;fill-opacity:1;stroke:none;stroke-opacity:1" />
      <path
         sodipodi:nodetypes="cccccc"
         inkscape:connector-curvature="0"
         id="rect4136-3-9-00-7-2-7-0-8"
         d="m 669,282.36216 -18.00001,0 10e-6,-3.5 9.00001,-4.50001 9,4.5 z"
         style="fill:#e18b4e;fill-opacity:1;stroke:none;stroke-opacity:1" />
      <path
         sodipodi:nodetypes="cccccc"
         inkscape:connector-curvature="0"
         id="rect4136-3-8-82-0-7-8-2"
         d="m 668,282.36215 -15.99999,1e-5 -10e-6,-4 8.14165,-5.84137 7.85835,5.84137 z"
         style="fill:#cc7333;fill-opacity:1;stroke:none;stroke-opacity:1" />
      <path
         sodipodi:nodetypes="cccc"
         inkscape:connector-curvature="0"
         id="rect4136-3-9-0-5-5-2-7-1-6-2"
         d="m 644,234.36215 31.99999,0 -16.00001,8.00001 z"
         style="fill:#ae5f27;fill-opacity:1;stroke:none;stroke-opacity:1" />
      <path
         sodipodi:nodetypes="cccccc"
         inkscape:connector-curvature="0"
         id="rect4136-3-9-00-7-2-7-0-8-2"
         d="m 650.99999,234.36215 18.00001,0 -10e-6,3.5 -9.00001,4.50001 -9,-4.50001 z"
         style="fill:#e18b4e;fill-opacity:1;stroke:none;stroke-opacity:1" />
      <path
         sodipodi:nodetypes="ccccc"
         inkscape:connector-curvature="0"
         id="rect4136-3-9-00-8-8-4-0"
         d="m 651,237.86216 -11.5,11.5 0.39984,2.20188 13.4022,-13.40219 z"
         style="fill:#e18b4e;fill-opacity:1;stroke:none;stroke-opacity:1" />
      <path
         sodipodi:nodetypes="cccccc"
         inkscape:connector-curvature="0"
         id="rect4136-3-8-82-0-7-8-2-1"
         d="m 651.99999,234.36215 15.99999,0 2e-5,3.99998 -8.70824,6.26632 -7.29177,-6.26632 z"
         style="fill:#cc7333;fill-opacity:1;stroke:none;stroke-opacity:1" />
      <path
         sodipodi:nodetypes="cccccccccc"
         inkscape:connector-curvature="0"
         id="rect4136-3-8-3-8-7-1"
         d="m 652,278.36216 8,-4 8,4 0,-40 -8,4 -8,-4 -12,12 4,8 -4,8 z"
         style="fill:#cc7333;fill-opacity:1;stroke:none;stroke-opacity:1" />
      <path
         sodipodi:nodetypes="cccc"
         inkscape:connector-curvature="0"
         id="rect4136-3-9-0-5-5-2-7-1-2"
         d="m 636,242.36217 0,31.99999 8,-16 z"
         style="fill:#ae5f27;fill-opacity:1;stroke:none;stroke-opacity:1" />
      <path
         sodipodi:nodetypes="cccccc"
         inkscape:connector-curvature="0"
         id="rect4136-3-9-00-7-2-7-0-81"
         d="m 636,249.36216 0,18.00001 3.5,-10e-6 4.5,-9 -4.5,-9 z"
         style="fill:#e18b4e;fill-opacity:1;stroke:none;stroke-opacity:1" />
      <path
         sodipodi:nodetypes="cccccc"
         inkscape:connector-curvature="0"
         id="rect4136-3-8-82-0-7-8-7"
         d="m 636,250.36216 0,16 4,0 5.13314,-8.14164 L 640,250.36216 Z"
         style="fill:#cc7333;fill-opacity:1;stroke:none;stroke-opacity:1" />
    </g>
    <circle
       style="opacity:1;fill:#ae5f27;fill-opacity:1;stroke:none;stroke-width:4;stroke-opacity:1"
       id="path4419"
       cx="751.37604"
       cy="89.867416"
       r="1.6025083" />
    <path
       style="fill:#ae5f27;fill-opacity:1;fill-rule:evenodd;stroke:none;stroke-width:1px;stroke-linecap:butt;stroke-linejoin:miter;stroke-opacity:1"
       d="m 750.97545,83.73072 0.59884,6.64479 7.61401,-6.434338 z"
       id="path4423"
       inkscape:connector-curvature="0"
       sodipodi:nodetypes="cccc" />
    <path
       style="fill:#cc7333;fill-opacity:1;stroke:none;stroke-opacity:1"
       d="M 361 0 C 351.028 0 343 8.028 343 18 L 343 95.164062 C 343 105.13606 351.028 113.16406 361 113.16406 L 405 113.16406 C 414.972 113.16406 423 105.13606 423 95.164062 L 423 18 C 423 8.028 414.972 1.1141088e-016 405 0 L 361 0 z M 384.00781 13.939453 C 392.53195 13.923304 401.04848 18.846743 406.70312 28.759766 C 414.84235 43.02847 411.64258 94.228516 411.64258 94.228516 L 356.33398 94.228516 C 356.33398 94.228516 353.17574 42.794589 361.27148 28.759766 C 366.95237 18.911337 375.48367 13.955602 384.00781 13.939453 z "
       transform="translate(0,28.362161)"
       id="rect4153" />
    <path
       style="opacity:0.5;fill:#c8beb7;fill-opacity:1;stroke:none;stroke-opacity:1"
       d="m 329.62332,240.59724 c 11.52281,-11.06116 34.60645,-11.13371 46.07603,0 8.2546,8.01289 5.00825,36.76491 5.00825,36.76491 l -56.09254,0 c 0,0 -3.20221,-28.88336 5.00826,-36.76491 z"
       id="rect4172-9"
       inkscape:connector-curvature="0"
       sodipodi:nodetypes="ssccs" />
    <rect
       style="fill:#be4f00;stroke:#be4f00;stroke-width:3.472;stroke-opacity:1;fill-opacity:1;stroke-miterlimit:4;stroke-dasharray:none"
       id="rect3467-5"
       width="58.836143"
       height="26.725428"
       x="386.53003"
       y="242.14053"
       ry="0" />
    <rect
       style="fill:#ae5f27;fill-opacity:1;stroke:none;stroke-opacity:1"
       id="rect4155"
       width="12.839506"
       height="15.353796"
       x="343.98779"
       y="141.00838"
       inkscape:export-filename="C:\code\fireperson\Assets\Materials\Objects\rect4155-8.png"
       inkscape:export-xdpi="90"
       inkscape:export-ydpi="90" />
    <rect
       style="fill:#ae5f27;fill-opacity:1;stroke:none;stroke-opacity:1"
       id="rect4155-8"
       width="12.839506"
       height="15.353796"
       x="409.15311"
       y="141.00838"
       inkscape:export-filename="C:\code\fireperson\Assets\Materials\Objects\rect4155-8.png"
       inkscape:export-xdpi="90"
       inkscape:export-ydpi="90" />
    <rect
       style="fill:#cc7333;stroke:#be4f00;stroke-width:3.19836116;stroke-opacity:1;fill-opacity:1"
       id="rect3467"
       width="59.099979"
       height="22.580769"
       x="386.3981"
       y="260.18222"
       ry="5.0444798" />
    <rect
       style="fill:#ffbc00;fill-opacity:1;stroke:none;stroke-opacity:1"
       id="rect4175"
       width="4.4444442"
       height="16.285017"
       x="346.26718"
       y="188.8766" />
    <path
       style="fill:none;fill-opacity:1;stroke:#be4f00;stroke-width:4.15990543;stroke-opacity:1"
       d="m 391.89547,206.06012 c 11.91653,-12.78209 35.78895,-12.86592 47.65048,0 8.53665,9.25953 5.17937,42.48484 5.17937,42.48484 l -58.00926,0 c 0,0 -3.31164,-33.37707 5.17941,-42.48484 z"
       id="rect4172-9-9"
       inkscape:connector-curvature="0"
       sodipodi:nodetypes="ssccs" />
    <ellipse
       style="fill:#e8ac31;fill-opacity:1;stroke:none;stroke-opacity:1"
       id="path4177"
       cx="348.98325"
       cy="186.31761"
       rx="3.7037039"
       ry="4.2649436" />
    <rect
       style="opacity:1;fill:#ae5f27;fill-opacity:1;stroke:none;stroke-width:4;stroke-opacity:1"
       id="rect4299-7-0"
       width="1.8413597"
       height="59.206799"
       x="-167.98517"
       y="323.24301"
       ry="6.8722177"
       transform="matrix(0,-1,1,0,0,0)" />
    <rect
       style="opacity:1;fill:#ae5f27;fill-opacity:1;stroke:none;stroke-width:4;stroke-opacity:1"
       id="rect4299-1"
       width="1.7324172"
       height="8.0127869"
       x="396.52792"
       y="168.00784"
       ry="0.93005562" />
    <path
       style="fill:#be4f00;fill-opacity:1;stroke:none;stroke-opacity:1"
       d="m 454.27668,176.97588 c 12.8619,-22.07916 38.62817,-22.22398 51.43067,0 9.21388,15.99448 5.59028,73.38628 5.59028,73.38628 l -62.61125,0 c 0,0 -3.57436,-57.65396 5.5903,-73.38628 z"
       id="rect4172-3"
       inkscape:connector-curvature="0"
       sodipodi:nodetypes="ssccs"
       inkscape:export-filename="C:\code\fireperson\Assets\Materials\Objects\rect4155-8.png"
       inkscape:export-xdpi="90"
       inkscape:export-ydpi="90" />
  </g>
</svg>
