<?xml version="1.0" encoding="UTF-8" standalone="no"?>
<!-- Created with Inkscape (http://www.inkscape.org/) -->

<svg
   xmlns:dc="http://purl.org/dc/elements/1.1/"
   xmlns:cc="http://creativecommons.org/ns#"
   xmlns:rdf="http://www.w3.org/1999/02/22-rdf-syntax-ns#"
   xmlns:svg="http://www.w3.org/2000/svg"
   xmlns="http://www.w3.org/2000/svg"
   xmlns:xlink="http://www.w3.org/1999/xlink"
   xmlns:sodipodi="http://sodipodi.sourceforge.net/DTD/sodipodi-0.dtd"
   xmlns:inkscape="http://www.inkscape.org/namespaces/inkscape"
   width="1024"
   height="1024"
   viewBox="0 0 1024 1024"
   id="svg2"
   version="1.1"
   inkscape:version="0.91 r13725"
   sodipodi:docname="furniture_normals.svg"
   inkscape:export-filename="C:\code\fireperson\Assets\Materials\Objects\furniture_normals.png"
   inkscape:export-xdpi="90"
   inkscape:export-ydpi="90">
  <defs
     id="defs4">
    <linearGradient
       inkscape:collect="always"
       id="linearGradient3445">
      <stop
         style="stop-color:#000000;stop-opacity:1;"
         offset="0"
         id="stop3447" />
      <stop
         style="stop-color:#000000;stop-opacity:0;"
         offset="1"
         id="stop3449" />
    </linearGradient>
    <linearGradient
       inkscape:collect="always"
       id="linearGradient4480">
      <stop
         style="stop-color:#ffffff;stop-opacity:1"
         offset="0"
         id="stop4482" />
      <stop
         style="stop-color:#000000;stop-opacity:1"
         offset="1"
         id="stop4484" />
    </linearGradient>
    <linearGradient
       inkscape:collect="always"
       id="linearGradient4458">
      <stop
         style="stop-color:#ffffff;stop-opacity:1"
         offset="0"
         id="stop4460" />
      <stop
         style="stop-color:#000000;stop-opacity:1"
         offset="1"
         id="stop4462" />
    </linearGradient>
    <filter
       style="color-interpolation-filters:sRGB"
       inkscape:label="Greyscale"
       id="filter4321">
      <feColorMatrix
         values="0.46875 0.83 0.47 0.05 0 0.46875 0.83 0.47 0.05 0 0.46875 0.83 0.47 0.05 0 0 0 0 1 0 "
         id="feColorMatrix4323"
         result="fbSourceGraphic" />
      <feColorMatrix
         result="fbSourceGraphicAlpha"
         in="fbSourceGraphic"
         values="0 0 0 -1 0 0 0 0 -1 0 0 0 0 -1 0 0 0 0 1 0"
         id="feColorMatrix4325" />
      <feColorMatrix
         id="feColorMatrix4327"
         values="0.47 0.83 0.47 0.05 0 0.47 0.83 0.47 0.05 0 0.47 0.83 0.47 0.05 0 0 0 0 1 0 "
         in="fbSourceGraphic" />
    </filter>
    <radialGradient
       inkscape:collect="always"
       xlink:href="#linearGradient4171"
       id="radialGradient4179"
       cx="189.82957"
       cy="84.422813"
       fx="189.82957"
       fy="84.422813"
       r="20.257231"
       gradientTransform="matrix(1.1395581,0.01163471,-0.09401826,9.208573,-16.554965,-667.19836)"
       gradientUnits="userSpaceOnUse" />
    <linearGradient
       inkscape:collect="always"
       id="linearGradient4171">
      <stop
         style="stop-color:#ffffff;stop-opacity:1"
         offset="0"
         id="stop4173" />
      <stop
         style="stop-color:#000000;stop-opacity:1"
         offset="1"
         id="stop4175" />
    </linearGradient>
    <radialGradient
       inkscape:collect="always"
       xlink:href="#linearGradient4181"
       id="radialGradient4187"
       cx="194"
       cy="34.92786"
       fx="194"
       fy="34.92786"
       r="75"
       gradientTransform="matrix(0.999832,-0.01832939,0.02666669,1.4546152,-0.898819,15.678253)"
       gradientUnits="userSpaceOnUse" />
    <linearGradient
       inkscape:collect="always"
       id="linearGradient4181">
      <stop
         style="stop-color:#ffffff;stop-opacity:1"
         offset="0"
         id="stop4183" />
      <stop
         style="stop-color:#1d1713;stop-opacity:1"
         offset="1"
         id="stop4185" />
    </linearGradient>
    <filter
       style="color-interpolation-filters:sRGB;"
       inkscape:label="Greyscale"
       id="filter4217">
      <feColorMatrix
         values="0.21 0.72 0.072 0 0 0.21 0.72 0.072 0 0 0.21 0.72 0.072 0 0 0 0 0 1 0 "
         id="feColorMatrix4219" />
    </filter>
    <filter
       style="color-interpolation-filters:sRGB;"
       inkscape:label="Greyscale"
       id="filter4221">
      <feColorMatrix
         values="0.21 0.72 0.072 0 0 0.21 0.72 0.072 0 0 0.21 0.72 0.072 0 0 0 0 0 1 0 "
         id="feColorMatrix4223" />
    </filter>
    <radialGradient
       inkscape:collect="always"
       xlink:href="#linearGradient4458"
       id="radialGradient4466"
       cx="736.08411"
       cy="55.213615"
       fx="736.08411"
       fy="55.213615"
       r="32.084106"
       gradientTransform="matrix(1.5730182,-5.7958e-7,9.2643693e-7,2.5144107,-421.78961,-83.615666)"
       gradientUnits="userSpaceOnUse" />
    <filter
       inkscape:collect="always"
       style="color-interpolation-filters:sRGB"
       id="filter4476"
       x="-0.027555954"
       width="1.0551119"
       y="-0.051905563"
       height="1.1038111">
      <feGaussianBlur
         inkscape:collect="always"
         stdDeviation="0.73675676"
         id="feGaussianBlur4478" />
    </filter>
    <radialGradient
       inkscape:collect="always"
       xlink:href="#linearGradient4480"
       id="radialGradient4488"
       cx="480"
       cy="72.36219"
       fx="480"
       fy="72.36219"
       r="16"
       gradientTransform="matrix(1,2.5099969e-7,-6.9024985e-7,2.7500028,4.9948012e-5,-126.63416)"
       gradientUnits="userSpaceOnUse" />
    <linearGradient
       inkscape:collect="always"
       xlink:href="#linearGradient3445"
       id="linearGradient3451"
       x1="384"
       y1="249.36215"
       x2="407"
       y2="28.362144"
       gradientUnits="userSpaceOnUse" />
  </defs>
  <sodipodi:namedview
     id="base"
     pagecolor="#ffffff"
     bordercolor="#666666"
     borderopacity="1.0"
     inkscape:pageopacity="0.0"
     inkscape:pageshadow="2"
     inkscape:zoom="1"
     inkscape:cx="268.68694"
     inkscape:cy="942.74163"
     inkscape:document-units="px"
     inkscape:current-layer="layer1"
     showgrid="true"
     inkscape:window-width="927"
     inkscape:window-height="460"
     inkscape:window-x="233"
     inkscape:window-y="138"
     inkscape:window-maximized="0"
     gridtolerance="10"
     units="px">
    <inkscape:grid
       type="xygrid"
       id="grid4179"
       spacingx="64"
       spacingy="64.000001"
       originy="0" />
  </sodipodi:namedview>
  <metadata
     id="metadata7">
    <rdf:RDF>
      <cc:Work
         rdf:about="">
        <dc:format>image/svg+xml</dc:format>
        <dc:type
           rdf:resource="http://purl.org/dc/dcmitype/StillImage" />
        <dc:title />
      </cc:Work>
    </rdf:RDF>
  </metadata>
  <g
     inkscape:label="Layer 1"
     inkscape:groupmode="layer"
     id="layer1"
     transform="translate(0,-28.362161)">
    <path
       style="fill:url(#radialGradient4179);fill-opacity:1;stroke:none;stroke-opacity:1;filter:url(#filter4217)"
       d="m 171.57235,68.484503 40.51446,0 -6.75241,57.070707 6.75241,30.80807 -40.51446,0 6.27009,-31.31312 z"
       id="rect4150"
       inkscape:connector-curvature="0"
       sodipodi:nodetypes="ccccccc" />
    <rect
       style="fill:url(#radialGradient4187);fill-opacity:1;stroke:none;stroke-opacity:1;filter:url(#filter4221)"
       id="rect4148"
       width="150"
       height="13.131312"
       x="119"
       y="56.36327" />
    <rect
       style="opacity:1;fill:#333333;fill-opacity:1;stroke:none;stroke-width:4;stroke-opacity:1"
       id="rect4393"
       width="46.458923"
       height="15.864022"
       x="712.74786"
       y="68.15818" />
    <rect
       style="fill:url(#linearGradient3451);fill-opacity:1;stroke:none;stroke-opacity:1"
       id="rect4153"
       width="80"
       height="113.16317"
       x="343"
       y="28.362194"
       inkscape:export-filename="C:\code\fireperson\Assets\Materials\Objects\rect4155-8nor.png"
       inkscape:export-xdpi="90"
       inkscape:export-ydpi="90" />
    <path
       style="fill:#000000;fill-opacity:1;stroke:none;stroke-opacity:1"
       d="m 361.2716,57.121845 c 11.36177,-19.696857 34.12281,-19.826044 45.4321,-2e-6 8.13923,14.268704 4.93826,65.468037 4.93826,65.468037 l -55.30864,0 c 0,0 -3.15746,-51.433212 4.93828,-65.468035 z"
       id="rect4172"
       inkscape:connector-curvature="0"
       sodipodi:nodetypes="ssccs"
       inkscape:export-filename="C:\code\fireperson\Assets\Materials\Objects\rect4155-8nor.png"
       inkscape:export-xdpi="90"
       inkscape:export-ydpi="90" />
    <path
       style="opacity:0.5;fill:#ffffff;fill-opacity:1;stroke:none;stroke-opacity:1"
       d="m 329.62318,240.59725 c 11.52281,-11.06116 34.60645,-11.13371 46.07603,0 8.2546,8.01288 5.00825,36.7649 5.00825,36.7649 l -56.09254,0 c 0,0 -3.20221,-28.88336 5.00826,-36.7649 z"
       id="rect4172-9"
       inkscape:connector-curvature="0"
       sodipodi:nodetypes="ssccs" />
    <rect
       style="fill:#cccccc;stroke:#cccccc;stroke-width:3.4717536;stroke-opacity:1"
       id="rect3467-5"
       width="58.836143"
       height="26.725428"
       x="386.52991"
       y="242.14055"
       ry="0" />
    <path
       style="fill:#734727;fill-opacity:1;stroke:none;stroke-opacity:1"
       d="M 0.40654224,31.761837 C 1.4803822,29.026364 3.1227922,27.591068 5.4508622,28.78703 c 3.19132,1.639426 3.40236,1.798267 4.1661099,5.836479 1.7669299,9.342437 3.9907099,18.644377 4.6652499,28.187144 0.69343,9.809878 -0.66072,29.523255 -0.66072,29.523255 l -10.0113298,0 c 0,0 3.32298,-16.757809 3.20362,-25.278108 -0.11609,-8.286971 -1.99752,-12.361339 -3.8028,-24.448389 C 2.1622222,36.92453 -1.1395177,35.70022 0.40654224,31.761837 Z"
       id="rect4136"
       inkscape:connector-curvature="0"
       sodipodi:nodetypes="ssssccsss" />
    <path
       style="fill:#734727;fill-opacity:1;stroke:none;stroke-opacity:1"
       d="m 3.6262722,90.034882 49.2557498,0.919611 c 0,0 6.33249,1.098047 8.04675,3.781217 1.80461,2.824587 0.76322,10.47272 0.76322,10.47272 l -58.0657198,0 z"
       id="rect4138"
       inkscape:connector-curvature="0"
       sodipodi:nodetypes="ccsccc" />
    <path
       style="fill:#734727;fill-opacity:1;stroke:none;stroke-opacity:1"
       d="m 3.6262722,105.20844 9.2104198,0 c 0,0 4.47984,37.29948 -2.30892,51.2627 -2.1588298,1.46468 -5.2996898,0.70711 -5.2996898,0.70711 l 1.20136,-27.03337 z"
       id="rect4140"
       inkscape:connector-curvature="0"
       sodipodi:nodetypes="cccccc" />
    <path
       style="fill:#734727;fill-opacity:1;stroke:none;stroke-opacity:1"
       d="m 53.682922,105.20844 8.00906,0 c 0,0 1.52213,12.8746 2.02816,26.14719 0.33075,8.67529 -3.44238,25.88039 -3.44238,25.88039 l -6.31344,0.0348 2.92223,-25.39369 z"
       id="rect4142"
       inkscape:connector-curvature="0"
       sodipodi:nodetypes="ccscccc" />
    <rect
       style="fill:#e6e6e6;fill-opacity:1;stroke:none;stroke-opacity:1"
       id="rect4155"
       width="12.839506"
       height="15.353796"
       x="343.98767"
       y="141.00839"
       inkscape:export-filename="C:\code\fireperson\Assets\Materials\Objects\rect4155-8nor.png"
       inkscape:export-xdpi="90"
       inkscape:export-ydpi="90" />
    <rect
       style="fill:#e6e6e6;fill-opacity:1;stroke:none;stroke-opacity:1"
       id="rect4155-8"
       width="12.839506"
       height="15.353796"
       x="409.15298"
       y="141.00839"
       inkscape:export-filename="C:\code\fireperson\Assets\Materials\Objects\rect4155-8nor.png"
       inkscape:export-xdpi="90"
       inkscape:export-ydpi="90" />
    <path
       style="fill:url(#radialGradient4488);fill-opacity:1;stroke:none;stroke-opacity:1"
       d="m 464,52.36219 32,0 c 0,0 -9.31056,7.442189 -8.99648,15.379826 0.29696,7.50522 10.32905,15.41399 6.73374,19.22545 -6.85099,7.26286 -21.19522,7.1838 -27.95939,-0.18578 -3.83316,-4.17622 6.0693,-11.31398 6.65847,-19.22327 C 472.96262,60.493376 464,52.36219 464,52.36219 Z"
       id="rect4187"
       inkscape:connector-curvature="0"
       sodipodi:nodetypes="ccssssc" />
    <path
       style="fill:#241c1c;fill-opacity:1;stroke:none;stroke-opacity:1"
       d="m 512,92.38301 128,0 -15.55635,51.97917 -92.64466,-0.7071 z"
       id="rect4206"
       inkscape:connector-curvature="0"
       sodipodi:nodetypes="ccccc" />
    <path
       style="fill:none;fill-opacity:1;stroke:#000000;stroke-width:6;stroke-opacity:1"
       id="path4226"
       sodipodi:type="arc"
       sodipodi:cx="575.81982"
       sodipodi:cy="92.202812"
       sodipodi:rx="7.9583693"
       sodipodi:ry="15.736544"
       sodipodi:start="0"
       sodipodi:end="6.2442957"
       d="m 583.77819,92.202812 a 7.9583693,15.736544 0 0 1 -7.88099,15.735798 7.9583693,15.736544 0 0 1 -8.03424,-15.429823 7.9583693,15.736544 0 0 1 7.72477,-16.035825 7.9583693,15.736544 0 0 1 8.18445,15.118016"
       sodipodi:open="true" />
    <path
       style="fill:none;fill-opacity:1;stroke:#000000;stroke-width:6;stroke-opacity:1"
       id="path4226-5"
       sodipodi:type="arc"
       sodipodi:cx="576.18018"
       sodipodi:cy="68.868279"
       sodipodi:rx="7.9583693"
       sodipodi:ry="15.736544"
       sodipodi:start="0"
       sodipodi:end="6.2442957"
       d="m 584.13855,68.868279 a 7.9583693,15.736544 0 0 1 -7.881,15.735799 7.9583693,15.736544 0 0 1 -8.03424,-15.429825 7.9583693,15.736544 0 0 1 7.72478,-16.035825 7.9583693,15.736544 0 0 1 8.18444,15.118017"
       sodipodi:open="true" />
    <path
       style="fill:none;fill-opacity:1;stroke:#000000;stroke-width:6;stroke-opacity:1"
       id="path4226-6"
       sodipodi:type="arc"
       sodipodi:cx="576.52692"
       sodipodi:cy="47.655079"
       sodipodi:rx="7.9583693"
       sodipodi:ry="15.736544"
       sodipodi:start="0"
       sodipodi:end="6.2442957"
       d="m 584.48529,47.655079 a 7.9583693,15.736544 0 0 1 -7.881,15.7358 7.9583693,15.736544 0 0 1 -8.03424,-15.429825 7.9583693,15.736544 0 0 1 7.72478,-16.035825 7.9583693,15.736544 0 0 1 8.18444,15.118016"
       sodipodi:open="true" />
    <path
       style="fill:url(#radialGradient4466);fill-opacity:1;fill-rule:evenodd;stroke:none;stroke-width:1px;stroke-linecap:butt;stroke-linejoin:miter;stroke-opacity:1;filter:url(#filter4476)"
       d="m 704.10538,70.183692 c -3.17449,2.762267 66.44269,2.738868 64,0 -10.04057,-11.257993 -26.81455,-31.646432 -32,-31.999985 -4.2916,-0.292609 -18.39719,20.163564 -32,31.999985 z"
       id="path4257"
       inkscape:connector-curvature="0"
       sodipodi:nodetypes="ssss" />
    <rect
       style="fill:#000000;fill-opacity:1;stroke:none;stroke-opacity:1"
       id="rect4136-3-9-0-5"
       width="32"
       height="64"
       x="-672"
       y="28.36215"
       inkscape:export-filename="C:\code\fireperson\Assets\Sprites\pipe.png"
       inkscape:export-xdpi="90"
       inkscape:export-ydpi="90"
       transform="scale(-1,1)" />
    <rect
       style="fill:#b3b3b3;fill-opacity:1;stroke:none;stroke-opacity:1"
       id="rect4136-3-9-00"
       width="18"
       height="64"
       x="-665"
       y="28.36215"
       inkscape:export-filename="C:\code\fireperson\Assets\Sprites\pipe.png"
       inkscape:export-xdpi="90"
       inkscape:export-ydpi="90"
       transform="scale(-1,1)" />
    <rect
       style="fill:#ffffff;fill-opacity:1;stroke:none;stroke-opacity:1"
       id="rect4136-3-8"
       width="16"
       height="64"
       x="-664"
       y="28.36215"
       inkscape:export-filename="C:\code\fireperson\Assets\Sprites\pipe.png"
       inkscape:export-xdpi="90"
       inkscape:export-ydpi="90"
       transform="scale(-1,1)" />
    <path
       style="fill:#000000;fill-opacity:1;stroke:none;stroke-opacity:1"
       d="m 672,116.36215 -32,0 0,16 23.71105,-7.32295 z"
       id="rect4136-3-9-0-5-5"
       inkscape:connector-curvature="0"
       sodipodi:nodetypes="ccccc" />
    <path
       style="fill:#b3b3b3;fill-opacity:1;stroke:none;stroke-opacity:1"
       d="m 665,116.36215 -18,0 0,12.5 11.27195,-1.81161 L 665,119.86215 Z"
       id="rect4136-3-9-00-7"
       inkscape:connector-curvature="0"
       sodipodi:nodetypes="cccccc" />
    <path
       style="fill:#ffffff;fill-opacity:1;stroke:none;stroke-opacity:1"
       d="m 664,116.36215 -16,0 0,12 8.99717,-1.73654 L 664,120.36215 Z"
       id="rect4136-3-8-82"
       inkscape:connector-curvature="0"
       sodipodi:nodetypes="cccccc" />
    <path
       style="fill:#000000;fill-opacity:1;stroke:none;stroke-opacity:1"
       d="m 680,124.36216 0,31.99999 -16,0 6.06629,-19.21473 z"
       id="rect4136-3-9-0-5-5-2"
       inkscape:connector-curvature="0"
       sodipodi:nodetypes="ccccc" />
    <path
       style="fill:#b3b3b3;fill-opacity:1;stroke:none;stroke-opacity:1"
       d="m 680,131.36215 0,18.00001 -12.49999,-10e-6 2.56628,-12.71048 6.43371,-5.28952 z"
       id="rect4136-3-9-00-7-2"
       inkscape:connector-curvature="0"
       sodipodi:nodetypes="cccccc" />
    <path
       style="fill:#ffffff;fill-opacity:1;stroke:none;stroke-opacity:1"
       d="m 680,132.36215 0,16 -11.99999,0 2.26458,-10.12408 L 676,132.36215 Z"
       id="rect4136-3-8-82-0"
       inkscape:connector-curvature="0"
       sodipodi:nodetypes="cccccc" />
    <path
       style="fill:#000000;fill-opacity:1;stroke:none;stroke-opacity:1"
       d="m 672,116.36215 -32,16 24,24 16,-32 z"
       id="rect4136-3-9-0-5-1"
       inkscape:connector-curvature="0"
       sodipodi:nodetypes="ccccc" />
    <path
       style="fill:#b3b3b3;fill-opacity:1;stroke:none;stroke-opacity:1"
       d="m 676.5,131.36215 -11.5,-11.5 -18,9 20.5,20.5 z"
       id="rect4136-3-9-00-8"
       inkscape:connector-curvature="0"
       sodipodi:nodetypes="ccccc" />
    <path
       style="fill:#ffffff;fill-opacity:1;stroke:none;stroke-opacity:1"
       d="m 664,120.36215 -16,8 20,20 8,-16 z"
       id="rect4136-3-8-3"
       inkscape:connector-curvature="0"
       sodipodi:nodetypes="ccccc" />
    <path
       style="fill:#000000;fill-opacity:1;stroke:none;stroke-opacity:1"
       d="m 680,210.36215 -3.5,-7 -8.69473,3.48658 -2.80527,8.01342 7,3.5 z"
       id="rect4136-3-9-0-5-1-1-1"
       inkscape:connector-curvature="0"
       sodipodi:nodetypes="cccccc" />
    <path
       style="fill:#000000;fill-opacity:1;stroke:none;stroke-opacity:1"
       d="m 640,202.36215 7,3.5 2.10329,-12.9953 -2.10329,-10.0047 -7,3.5 z"
       id="rect4136-3-9-0-5-1-1-5"
       inkscape:connector-curvature="0"
       sodipodi:nodetypes="cccccc" />
    <path
       style="fill:#000000;fill-opacity:1;stroke:none;stroke-opacity:1"
       d="m 672,218.36215 -32,0 0,-16 20.32103,1.59711 z"
       id="rect4136-3-9-0-5-5-7-0"
       inkscape:connector-curvature="0"
       sodipodi:nodetypes="ccccc" />
    <path
       style="fill:#000000;fill-opacity:1;stroke:none;stroke-opacity:1"
       d="m 672,170.36215 -32,0 0,16 20.07501,-3.77771 z"
       id="rect4136-3-9-0-5-5-7"
       inkscape:connector-curvature="0"
       sodipodi:nodetypes="ccccc" />
    <path
       style="fill:#b3b3b3;fill-opacity:1;stroke:none;stroke-opacity:1"
       d="m 665,170.36215 -18,0 0,12.5 13.55576,-4.32404 L 665,173.86215 Z"
       id="rect4136-3-9-00-7-6"
       inkscape:connector-curvature="0"
       sodipodi:nodetypes="cccccc" />
    <path
       style="fill:#ffffff;fill-opacity:1;stroke:none;stroke-opacity:1"
       d="m 664,170.36215 -16,0 0,12 9.08032,-3.11293 L 664,174.36215 Z"
       id="rect4136-3-8-82-5"
       inkscape:connector-curvature="0"
       sodipodi:nodetypes="cccccc" />
    <path
       style="fill:#000000;fill-opacity:1;stroke:none;stroke-opacity:1"
       d="m 680,178.36216 0,31.99999 -7.10542,-7.90096 -0.89458,-8.09904 1.20945,-7.0261 z"
       id="rect4136-3-9-0-5-5-2-7"
       inkscape:connector-curvature="0"
       sodipodi:nodetypes="cccccc" />
    <path
       style="fill:#b3b3b3;fill-opacity:1;stroke:none;stroke-opacity:1"
       d="m 680,185.36215 0,18.00001 -3.5,-10e-6 -5.45149,-9.10016 5.45149,-8.89984 z"
       id="rect4136-3-9-00-7-2-7"
       inkscape:connector-curvature="0"
       sodipodi:nodetypes="cccccc" />
    <path
       style="fill:#ffffff;fill-opacity:1;stroke:none;stroke-opacity:1"
       d="m 680,186.36215 0,16 -4,0 -6.20345,-8.25039 L 676,186.36215 Z"
       id="rect4136-3-8-82-0-7"
       inkscape:connector-curvature="0"
       sodipodi:nodetypes="cccccc" />
    <path
       style="fill:#000000;fill-opacity:1;stroke:none;stroke-opacity:1"
       d="m 672,170.36215 -7,3.5 3.81091,6.46671 7.68909,5.03329 3.5,-7 z"
       id="rect4136-3-9-0-5-1-1"
       inkscape:connector-curvature="0"
       sodipodi:nodetypes="cccccc" />
    <path
       style="fill:#b3b3b3;fill-opacity:1;stroke:none;stroke-opacity:1"
       d="m 676.5,185.36215 -11.5,-11.5 -1,0.5 5.01537,6.16717 6.98463,5.83283 z"
       id="rect4136-3-9-00-8-8"
       inkscape:connector-curvature="0"
       sodipodi:nodetypes="cccccc" />
    <path
       style="fill:#b3b3b3;fill-opacity:1;stroke:none;stroke-opacity:1"
       d="m 647,182.86215 0,23 1,0.5 1.80282,-12.84428 L 648,182.36215 Z"
       id="rect4136-3-9-00-8-8-61"
       inkscape:connector-curvature="0"
       sodipodi:nodetypes="cccccc" />
    <path
       style="fill:#b3b3b3;fill-opacity:1;stroke:none;stroke-opacity:1"
       d="m 665,218.36215 -18,0 0,-12.5 11.17767,2.73437 6.82233,6.26563 z"
       id="rect4136-3-9-00-7-6-8"
       inkscape:connector-curvature="0"
       sodipodi:nodetypes="cccccc" />
    <path
       style="fill:#b3b3b3;fill-opacity:1;stroke:none;stroke-opacity:1"
       d="m 665,214.86215 11.5,-11.5 -0.5,-1 -5.91499,3.51123 L 664,214.36215 Z"
       id="rect4136-3-9-00-8-8-6"
       inkscape:connector-curvature="0"
       sodipodi:nodetypes="cccccc" />
    <path
       style="fill:#ffffff;fill-opacity:1;stroke:none;stroke-opacity:1"
       d="m 664,174.36215 -16,8 0,24 16,8 12,-12 -4,-8 4,-8 z"
       id="rect4136-3-8-3-8"
       inkscape:connector-curvature="0"
       sodipodi:nodetypes="cccccccc" />
    <path
       style="fill:#ffffff;fill-opacity:1;stroke:none;stroke-opacity:1"
       d="m 664,218.36215 -16,0 0,-12 8.69535,3.19587 7.30465,4.80413 z"
       id="rect4136-3-8-82-5-1"
       inkscape:connector-curvature="0"
       sodipodi:nodetypes="cccccc" />
    <path
       style="fill:#000000;fill-opacity:1;stroke:none;stroke-opacity:1"
       d="m 648,282.36215 7.80125,-3.09937 -12.50156,-12.60173 -3.29969,7.7011 z"
       id="rect4136-3-9-0-5-1-1-18-17"
       inkscape:connector-curvature="0"
       sodipodi:nodetypes="ccccc" />
    <path
       style="fill:#b3b3b3;fill-opacity:1;stroke:none;stroke-opacity:1"
       d="m 643.5,267.36215 11.5,11.5 2.20188,-0.5 L 644,265.36058 Z"
       id="rect4136-3-9-00-8-8-4-2"
       inkscape:connector-curvature="0"
       sodipodi:nodetypes="ccccc" />
    <path
       style="fill:#000000;fill-opacity:1;stroke:none;stroke-opacity:1"
       d="m 688,274.36215 -3.19953,-8.10172 -12.70188,12.60172 7.90141,3.5 z"
       id="rect4136-3-9-0-5-1-1-1-5"
       inkscape:connector-curvature="0"
       sodipodi:nodetypes="ccccc" />
    <path
       style="fill:#b3b3b3;fill-opacity:1;stroke:none;stroke-opacity:1"
       d="m 673,278.86215 11.5,-11.5 -0.60016,-2.20188 -12.70109,13.10172 z"
       id="rect4136-3-9-00-8-8-6-2"
       inkscape:connector-curvature="0"
       sodipodi:nodetypes="ccccc" />
    <path
       style="fill:#000000;fill-opacity:1;stroke:none;stroke-opacity:1"
       d="m 680,234.36215 -7.90141,2.99922 13.10251,12.80203 2.7989,-7.80125 z"
       id="rect4136-3-9-0-5-1-1-18"
       inkscape:connector-curvature="0"
       sodipodi:nodetypes="ccccc" />
    <path
       style="fill:#b3b3b3;fill-opacity:1;stroke:none;stroke-opacity:1"
       d="m 684.5,249.36215 -11.5,-11.5 -1.7011,0.60016 13.00157,12.80125 z"
       id="rect4136-3-9-00-8-8-4"
       inkscape:connector-curvature="0"
       sodipodi:nodetypes="ccccc" />
    <path
       style="fill:#000000;fill-opacity:1;stroke:none;stroke-opacity:1"
       d="m 640,242.36215 2.99922,7.80125 13.40297,-13.00235 L 648,234.36215 Z"
       id="rect4136-3-9-0-5-1-1-18-1"
       inkscape:connector-curvature="0"
       sodipodi:nodetypes="ccccc" />
    <path
       style="fill:#000000;fill-opacity:1;stroke:none;stroke-opacity:1"
       d="m 688,242.36216 0,31.99999 -8,-16 z"
       id="rect4136-3-9-0-5-5-2-7-1"
       inkscape:connector-curvature="0"
       sodipodi:nodetypes="cccc" />
    <path
       style="fill:#b3b3b3;fill-opacity:1;stroke:none;stroke-opacity:1"
       d="m 688,249.36215 0,18.00001 -3.5,-1e-5 -4.5,-9 4.5,-9 z"
       id="rect4136-3-9-00-7-2-7-0"
       inkscape:connector-curvature="0"
       sodipodi:nodetypes="cccccc" />
    <path
       style="fill:#ffffff;fill-opacity:1;stroke:none;stroke-opacity:1"
       d="m 688,250.36215 0,16 -4,0 -5.41643,-7.71671 L 684,250.36215 Z"
       id="rect4136-3-8-82-0-7-8"
       inkscape:connector-curvature="0"
       sodipodi:nodetypes="cccccc" />
    <path
       style="fill:#ffffff;fill-opacity:1;stroke:none;stroke-opacity:1"
       d="m 672,238.36215 -8,4 -8,-4 0,40 8,-4 8,4 12,-12 -4,-8 4,-8 z"
       id="rect4136-3-8-3-8-7"
       inkscape:connector-curvature="0"
       sodipodi:nodetypes="cccccccccc" />
    <path
       style="fill:#000000;fill-opacity:1;stroke:none;stroke-opacity:1"
       d="m 679.99999,282.36215 -31.99999,0 16.00001,-8.00001 z"
       id="rect4136-3-9-0-5-5-2-7-1-6"
       inkscape:connector-curvature="0"
       sodipodi:nodetypes="cccc" />
    <path
       style="fill:#b3b3b3;fill-opacity:1;stroke:none;stroke-opacity:1"
       d="m 673,282.36215 -18.00001,0 10e-6,-3.5 9.00001,-4.50001 9,4.5 z"
       id="rect4136-3-9-00-7-2-7-0-8"
       inkscape:connector-curvature="0"
       sodipodi:nodetypes="cccccc" />
    <path
       style="fill:#ffffff;fill-opacity:1;stroke:none;stroke-opacity:1"
       d="m 672,282.36214 -15.99999,10e-6 -10e-6,-4 8.14165,-5.84137 7.85835,5.84137 z"
       id="rect4136-3-8-82-0-7-8-2"
       inkscape:connector-curvature="0"
       sodipodi:nodetypes="cccccc" />
    <path
       style="fill:#000000;fill-opacity:1;stroke:none;stroke-opacity:1"
       d="m 648,234.36214 31.99999,0 -16.00001,8.00001 z"
       id="rect4136-3-9-0-5-5-2-7-1-6-2"
       inkscape:connector-curvature="0"
       sodipodi:nodetypes="cccc" />
    <path
       style="fill:#b3b3b3;fill-opacity:1;stroke:none;stroke-opacity:1"
       d="m 654.99999,234.36214 18.00001,0 -10e-6,3.5 -9.00001,4.50001 -9,-4.50001 z"
       id="rect4136-3-9-00-7-2-7-0-8-2"
       inkscape:connector-curvature="0"
       sodipodi:nodetypes="cccccc" />
    <path
       style="fill:#b3b3b3;fill-opacity:1;stroke:none;stroke-opacity:1"
       d="m 655,237.86215 -11.5,11.5 0.39984,2.20188 13.4022,-13.40219 z"
       id="rect4136-3-9-00-8-8-4-0"
       inkscape:connector-curvature="0"
       sodipodi:nodetypes="ccccc" />
    <path
       style="fill:#ffffff;fill-opacity:1;stroke:none;stroke-opacity:1"
       d="m 655.99999,234.36214 15.99999,0 2e-5,3.99998 -8.70824,6.26632 -7.29177,-6.26632 z"
       id="rect4136-3-8-82-0-7-8-2-1"
       inkscape:connector-curvature="0"
       sodipodi:nodetypes="cccccc" />
    <path
       style="fill:#ffffff;fill-opacity:1;stroke:none;stroke-opacity:1"
       d="m 656,278.36215 8,-4 8,4 0,-40 -8,4 -8,-4 -12,12 4,8 -4,8 z"
       id="rect4136-3-8-3-8-7-1"
       inkscape:connector-curvature="0"
       sodipodi:nodetypes="cccccccccc" />
    <path
       style="fill:#000000;fill-opacity:1;stroke:none;stroke-opacity:1"
       d="m 640,242.36216 0,31.99999 8,-16 z"
       id="rect4136-3-9-0-5-5-2-7-1-2"
       inkscape:connector-curvature="0"
       sodipodi:nodetypes="cccc" />
    <path
       style="fill:#b3b3b3;fill-opacity:1;stroke:none;stroke-opacity:1"
       d="m 640,249.36215 0,18.00001 3.5,-1e-5 4.5,-9 -4.5,-9 z"
       id="rect4136-3-9-00-7-2-7-0-81"
       inkscape:connector-curvature="0"
       sodipodi:nodetypes="cccccc" />
    <path
       style="fill:#ffffff;fill-opacity:1;stroke:none;stroke-opacity:1"
       d="m 640,250.36215 0,16 4,0 5.13314,-8.14164 L 644,250.36215 Z"
       id="rect4136-3-8-82-0-7-8-7"
       inkscape:connector-curvature="0"
       sodipodi:nodetypes="cccccc" />
    <rect
       style="fill:#cccccc;stroke:#cccccc;stroke-width:3.19836116;stroke-opacity:1"
       id="rect3467"
       width="59.099979"
       height="22.580769"
       x="386.39798"
       y="260.18222"
       ry="5.0444798" />
    <rect
       style="fill:#ececec;fill-opacity:1;stroke:none;stroke-opacity:1"
       id="rect4175"
       width="4.4444442"
       height="16.285017"
       x="346.26706"
       y="188.8766" />
    <path
       style="fill:none;fill-opacity:1;stroke:#cccccc;stroke-width:4.15990543;stroke-opacity:1"
       d="m 391.89533,206.06013 c 11.91653,-12.78209 35.78895,-12.86592 47.65048,0 8.53665,9.25953 5.17937,42.48483 5.17937,42.48483 l -58.00926,0 c 0,0 -3.31164,-33.37706 5.17941,-42.48483 z"
       id="rect4172-9-9"
       inkscape:connector-curvature="0"
       sodipodi:nodetypes="ssccs" />
    <ellipse
       style="fill:#999999;fill-opacity:1;stroke:none;stroke-opacity:1"
       id="path4177"
       cx="348.98312"
       cy="186.31761"
       rx="3.7037039"
       ry="4.2649436" />
    <path
       style="fill:#333333;fill-opacity:1;fill-rule:evenodd;stroke:none;stroke-width:1px;stroke-linecap:butt;stroke-linejoin:miter;stroke-opacity:1"
       d="m 750.97545,83.730706 0.59884,6.64479 7.61401,-6.434338 z"
       id="path4423"
       inkscape:connector-curvature="0"
       sodipodi:nodetypes="cccc" />
    <rect
       style="opacity:1;fill:#808080;fill-opacity:1;stroke:none;stroke-width:4;stroke-opacity:1"
       id="rect4299-7-0"
       width="1.8413597"
       height="59.206799"
       x="-167.98517"
       y="323.24286"
       ry="6.8722177"
       transform="matrix(0,-1,1,0,0,0)" />
    <rect
       style="opacity:1;fill:#f2f2f2;fill-opacity:1;stroke:none;stroke-width:4;stroke-opacity:1"
       id="rect4299-1"
       width="1.7324172"
       height="8.0127869"
       x="396.5278"
       y="168.00784"
       ry="0.93005562" />
    <circle
       style="opacity:1;fill:#999999;fill-opacity:1;stroke:none;stroke-width:4;stroke-opacity:1"
       id="path4419"
       cx="751.37604"
       cy="89.867401"
       r="1.6025083" />
  </g>
</svg>
