<?xml version="1.0" encoding="UTF-8" standalone="no"?>
<!-- Created with Inkscape (http://www.inkscape.org/) -->

<svg
   xmlns:dc="http://purl.org/dc/elements/1.1/"
   xmlns:cc="http://creativecommons.org/ns#"
   xmlns:rdf="http://www.w3.org/1999/02/22-rdf-syntax-ns#"
   xmlns:svg="http://www.w3.org/2000/svg"
   xmlns="http://www.w3.org/2000/svg"
   xmlns:xlink="http://www.w3.org/1999/xlink"
   xmlns:sodipodi="http://sodipodi.sourceforge.net/DTD/sodipodi-0.dtd"
   xmlns:inkscape="http://www.inkscape.org/namespaces/inkscape"
   width="1024"
   height="1024"
   viewBox="0 0 1024 1024"
   id="svg2"
   version="1.1"
   inkscape:version="0.91 r13725"
   sodipodi:docname="furniture.svg"
   inkscape:export-filename="C:\code\fireperson\Assets\Materials\Objects\furniture.png"
   inkscape:export-xdpi="90"
   inkscape:export-ydpi="90">
  <defs
     id="defs4">
    <linearGradient
       inkscape:collect="always"
       id="linearGradient4181">
      <stop
         style="stop-color:#734727;stop-opacity:1;"
         offset="0"
         id="stop4183" />
      <stop
         style="stop-color:#bd7744;stop-opacity:1"
         offset="1"
         id="stop4185" />
    </linearGradient>
    <linearGradient
       inkscape:collect="always"
       id="linearGradient4171">
      <stop
         style="stop-color:#734727;stop-opacity:1;"
         offset="0"
         id="stop4173" />
      <stop
         style="stop-color:#9f6942;stop-opacity:1"
         offset="1"
         id="stop4175" />
    </linearGradient>
    <radialGradient
       inkscape:collect="always"
       xlink:href="#linearGradient4171"
       id="radialGradient4179"
       cx="189.82957"
       cy="84.422813"
       fx="189.82957"
       fy="84.422813"
       r="20.257231"
       gradientTransform="matrix(0.58105581,0.01163471,-0.18435963,9.2072074,65.092156,-695.08415)"
       gradientUnits="userSpaceOnUse" />
    <radialGradient
       inkscape:collect="always"
       xlink:href="#linearGradient4181"
       id="radialGradient4187"
       cx="194"
       cy="34.92786"
       fx="194"
       fy="34.92786"
       r="75"
       gradientTransform="matrix(0.999832,-0.01832939,0.02666669,1.4546152,-32.898819,-12.322832)"
       gradientUnits="userSpaceOnUse" />
    <filter
       style="color-interpolation-filters:sRGB"
       inkscape:label="Greyscale"
       id="filter4321">
      <feColorMatrix
         values="0.46875 0.83 0.47 0.05 0 0.46875 0.83 0.47 0.05 0 0.46875 0.83 0.47 0.05 0 0 0 0 1 0 "
         id="feColorMatrix4323"
         result="fbSourceGraphic" />
      <feColorMatrix
         result="fbSourceGraphicAlpha"
         in="fbSourceGraphic"
         values="0 0 0 -1 0 0 0 0 -1 0 0 0 0 -1 0 0 0 0 1 0"
         id="feColorMatrix4325" />
      <feColorMatrix
         id="feColorMatrix4327"
         values="0.47 0.83 0.47 0.05 0 0.47 0.83 0.47 0.05 0 0.47 0.83 0.47 0.05 0 0 0 0 1 0 "
         in="fbSourceGraphic" />
    </filter>
    <pattern
       patternUnits="userSpaceOnUse"
       width="32"
       height="61.560286"
       patternTransform="translate(641.58862,95.128)"
       id="pattern3685">
      <g
         transform="matrix(-0.70710678,-2.1764848,0.70710678,-2.1764848,434.83258,1773.8675)"
         id="g3665">
        <path
           inkscape:connector-curvature="0"
           id="rect4136-3-3-6"
           d="m 409.91821,556.30255 17.71411,0 0,20 -17.71411,0 z"
           style="fill:#cc7333;fill-opacity:1;stroke:none;stroke-opacity:1"
           transform="matrix(0.70710678,-0.70710678,0.70710678,0.70710678,0,0)" />
        <path
           inkscape:connector-curvature="0"
           id="rect4136-5-5-75"
           d="m 406.37537,556.30255 3.54282,0 0,20 -3.54282,0 z"
           style="fill:#d98245;fill-opacity:1;stroke:none;stroke-opacity:1"
           transform="matrix(0.70710678,-0.70710678,0.70710678,0.70710678,0,0)" />
        <path
           inkscape:connector-curvature="0"
           id="rect4136-3-9-7-1"
           d="m 405.48972,556.30255 0.8857,0 0,20 -0.8857,0 z"
           style="fill:#cc7333;fill-opacity:1;stroke:none;stroke-opacity:1"
           transform="matrix(0.70710678,-0.70710678,0.70710678,0.70710678,0,0)" />
        <path
           inkscape:connector-curvature="0"
           id="rect4136-5-8-2-3"
           d="m 403.71829,556.30255 1.77141,0 0,20 -1.77141,0 z"
           style="fill:#e18b4e;fill-opacity:1;stroke:none;stroke-opacity:1"
           transform="matrix(0.70710678,-0.70710678,0.70710678,0.70710678,0,0)" />
        <path
           inkscape:connector-curvature="0"
           id="rect4136-3-9-0-3-9"
           d="m 402.83258,556.30255 0.88571,0 0,20 -0.88571,0 z"
           style="fill:#cc7333;fill-opacity:1;stroke:none;stroke-opacity:1"
           transform="matrix(0.70710678,-0.70710678,0.70710678,0.70710678,0,0)" />
        <path
           inkscape:connector-curvature="0"
           id="rect4136-5-30-4-0"
           d="m -431.28976,556.30255 3.54282,0 0,20 -3.54282,0 z"
           style="fill:#d98245;fill-opacity:1;stroke:none;stroke-opacity:1"
           transform="matrix(-0.70710678,0.70710678,0.70710678,0.70710678,0,0)" />
        <path
           inkscape:connector-curvature="0"
           id="rect4136-3-9-00-4-7"
           d="m -432.17542,556.30255 0.88571,0 0,20 -0.88571,0 z"
           style="fill:#cc7333;fill-opacity:1;stroke:none;stroke-opacity:1"
           transform="matrix(-0.70710678,0.70710678,0.70710678,0.70710678,0,0)" />
        <path
           inkscape:connector-curvature="0"
           id="rect4136-5-8-8-0-5"
           d="m -433.94687,556.30255 1.77141,0 0,20 -1.77141,0 z"
           style="fill:#e18b4e;fill-opacity:1;stroke:none;stroke-opacity:1"
           transform="matrix(-0.70710678,0.70710678,0.70710678,0.70710678,0,0)" />
        <path
           inkscape:connector-curvature="0"
           id="rect4136-3-9-0-5-2-0"
           d="m -434.83258,556.30255 0.8857,0 0,20 -0.8857,0 z"
           style="fill:#cc7333;fill-opacity:1;stroke:none;stroke-opacity:1"
           transform="matrix(-0.70710678,0.70710678,0.70710678,0.70710678,0,0)" />
      </g>
    </pattern>
  </defs>
  <sodipodi:namedview
     id="base"
     pagecolor="#ffffff"
     bordercolor="#666666"
     borderopacity="1.0"
     inkscape:pageopacity="0.0"
     inkscape:pageshadow="2"
     inkscape:zoom="1.765"
     inkscape:cx="775.10819"
     inkscape:cy="1004.1953"
     inkscape:document-units="px"
     inkscape:current-layer="layer1"
     showgrid="true"
     inkscape:window-width="823"
     inkscape:window-height="616"
     inkscape:window-x="1565"
     inkscape:window-y="594"
     inkscape:window-maximized="0"
     gridtolerance="10"
     units="px">
    <inkscape:grid
       type="xygrid"
       id="grid4179"
       spacingx="64"
       spacingy="64.000001"
       originy="0" />
  </sodipodi:namedview>
  <metadata
     id="metadata7">
    <rdf:RDF>
      <cc:Work
         rdf:about="">
        <dc:format>image/svg+xml</dc:format>
        <dc:type
           rdf:resource="http://purl.org/dc/dcmitype/StillImage" />
        <dc:title />
      </cc:Work>
    </rdf:RDF>
  </metadata>
  <g
     inkscape:label="Layer 1"
     inkscape:groupmode="layer"
     id="layer1"
     transform="translate(0,-28.362161)">
    <rect
       style="opacity:1;fill:#ae5f27;fill-opacity:1;stroke:none;stroke-width:4;stroke-opacity:1"
       id="rect4393"
       width="46.458923"
       height="15.864022"
       x="712.74786"
       y="68.158195" />
    <rect
       style="fill:#000000;fill-opacity:1;stroke:none;stroke-opacity:1"
       id="rect4153"
       width="80"
       height="113.16317"
       x="343"
       y="28.362206" />
    <path
       style="fill:#c8beb7;fill-opacity:1;stroke:none;stroke-opacity:1"
       d="m 361.2716,57.121859 c 11.36177,-19.696857 34.12281,-19.826044 45.4321,-2e-6 8.13923,14.268704 4.93826,65.468043 4.93826,65.468043 l -55.30864,0 c 0,0 -3.15746,-51.433218 4.93828,-65.468041 z"
       id="rect4172"
       inkscape:connector-curvature="0"
       sodipodi:nodetypes="ssccs" />
    <path
       style="opacity:0.5;fill:#c8beb7;fill-opacity:1;stroke:none;stroke-opacity:1"
       d="m 329.62318,240.59726 c 11.52281,-11.06116 34.60645,-11.13371 46.07603,0 8.2546,8.01288 5.00825,36.7649 5.00825,36.7649 l -56.09254,0 c 0,0 -3.20221,-28.88336 5.00826,-36.7649 z"
       id="rect4172-9"
       inkscape:connector-curvature="0"
       sodipodi:nodetypes="ssccs" />
    <rect
       style="fill:#000000;stroke:#000000;stroke-width:3.4717536;stroke-opacity:1"
       id="rect3467-5"
       width="58.836143"
       height="26.725428"
       x="386.52991"
       y="242.14056"
       ry="0" />
    <path
       style="fill:#734727;fill-opacity:1;stroke:none;stroke-opacity:1"
       d="M 0.40654102,31.761851 C 1.480382,29.026378 3.122788,27.591082 5.450857,28.787044 c 3.191319,1.639426 3.40236,1.798267 4.166108,5.836479 1.766937,9.342437 3.990716,18.644377 4.66526,28.187144 0.693426,9.809878 -0.660728,29.523255 -0.660728,29.523255 l -10.01133,0 c 0,0 3.322984,-16.757809 3.203626,-25.278108 C 6.697703,58.768843 4.816271,54.694475 3.010993,42.607425 2.162218,36.924544 -1.139515,35.700234 0.40654102,31.761851 Z"
       id="rect4136"
       inkscape:connector-curvature="0"
       sodipodi:nodetypes="ssssccsss" />
    <path
       style="fill:#734727;fill-opacity:1;stroke:none;stroke-opacity:1"
       d="m 3.626265,90.034896 49.25575,0.919611 c 0,0 6.332492,1.098047 8.046751,3.781217 1.804614,2.824587 0.76322,10.472726 0.76322,10.472726 l -58.065721,0 z"
       id="rect4138"
       inkscape:connector-curvature="0"
       sodipodi:nodetypes="ccsccc" />
    <path
       style="fill:#734727;fill-opacity:1;stroke:none;stroke-opacity:1"
       d="m 3.626265,105.20846 9.210425,0 c 0,0 4.479838,37.29948 -2.30892,51.2627 -2.1588251,1.46468 -5.299692,0.70711 -5.299692,0.70711 l 1.20136,-27.03337 z"
       id="rect4140"
       inkscape:connector-curvature="0"
       sodipodi:nodetypes="cccccc" />
    <path
       style="fill:#734727;fill-opacity:1;stroke:none;stroke-opacity:1"
       d="m 53.682922,105.20846 8.009056,0 c 0,0 1.522127,12.8746 2.02816,26.14719 0.330748,8.67529 -3.442374,25.88039 -3.442374,25.88039 l -6.313443,0.0348 2.922226,-25.39369 z"
       id="rect4142"
       inkscape:connector-curvature="0"
       sodipodi:nodetypes="ccscccc" />
    <rect
       style="opacity:1;fill:#ae5f27;fill-opacity:1;stroke:none;stroke-width:4;stroke-opacity:1"
       id="rect4299-7"
       width="1.8413597"
       height="59.206799"
       x="-111.92307"
       y="354.67422"
       ry="6.8722177"
       transform="matrix(0,-1,1,0,0,0)" />
    <rect
       style="fill:#000000;fill-opacity:1;stroke:none;stroke-opacity:1"
       id="rect4155"
       width="12.839506"
       height="15.353796"
       x="343.98767"
       y="141.00841" />
    <rect
       style="fill:#000000;fill-opacity:1;stroke:none;stroke-opacity:1"
       id="rect4155-8"
       width="12.839506"
       height="15.353796"
       x="409.15298"
       y="141.00841" />
    <path
       style="fill:#ff2a2a;fill-opacity:1;stroke:none;stroke-opacity:1"
       d="m 464,52.362204 32,0 c 0,0 -9.31056,7.442189 -8.99648,15.379826 0.29696,7.50522 10.32905,15.41399 6.73374,19.22545 -6.85099,7.26286 -21.19522,7.1838 -27.95939,-0.18578 -3.83316,-4.17622 6.0693,-11.31398 6.65847,-19.22327 C 472.96262,60.49339 464,52.362204 464,52.362204 Z"
       id="rect4187"
       inkscape:connector-curvature="0"
       sodipodi:nodetypes="ccssssc" />
    <path
       style="fill:#241c1c;fill-opacity:1;stroke:none;stroke-opacity:1"
       d="m 512,92.383024 128,0 -15.55635,51.979176 -92.64466,-0.7071 z"
       id="rect4206"
       inkscape:connector-curvature="0"
       sodipodi:nodetypes="ccccc" />
    <path
       style="fill:none;fill-opacity:1;stroke:#000000;stroke-width:6;stroke-opacity:1"
       id="path4226"
       sodipodi:type="arc"
       sodipodi:cx="575.81982"
       sodipodi:cy="92.202827"
       sodipodi:rx="7.9583693"
       sodipodi:ry="15.736544"
       sodipodi:start="0"
       sodipodi:end="6.2442957"
       d="m 583.77819,92.202827 a 7.9583693,15.736544 0 0 1 -7.88099,15.735803 7.9583693,15.736544 0 0 1 -8.03424,-15.429828 7.9583693,15.736544 0 0 1 7.72477,-16.035825 7.9583693,15.736544 0 0 1 8.18445,15.118017"
       sodipodi:open="true" />
    <path
       style="fill:none;fill-opacity:1;stroke:#000000;stroke-width:6;stroke-opacity:1"
       id="path4226-5"
       sodipodi:type="arc"
       sodipodi:cx="576.18018"
       sodipodi:cy="68.868294"
       sodipodi:rx="7.9583693"
       sodipodi:ry="15.736544"
       sodipodi:start="0"
       sodipodi:end="6.2442957"
       d="m 584.13855,68.868294 a 7.9583693,15.736544 0 0 1 -7.881,15.7358 7.9583693,15.736544 0 0 1 -8.03424,-15.429826 7.9583693,15.736544 0 0 1 7.72478,-16.035825 7.9583693,15.736544 0 0 1 8.18444,15.118017"
       sodipodi:open="true" />
    <path
       style="fill:none;fill-opacity:1;stroke:#000000;stroke-width:6;stroke-opacity:1"
       id="path4226-6"
       sodipodi:type="arc"
       sodipodi:cx="576.52692"
       sodipodi:cy="47.65509"
       sodipodi:rx="7.9583693"
       sodipodi:ry="15.736544"
       sodipodi:start="0"
       sodipodi:end="6.2442957"
       d="m 584.48529,47.65509 a 7.9583693,15.736544 0 0 1 -7.881,15.7358 7.9583693,15.736544 0 0 1 -8.03424,-15.429825 7.9583693,15.736544 0 0 1 7.72478,-16.035825 7.9583693,15.736544 0 0 1 8.18444,15.118017"
       sodipodi:open="true" />
    <g
       id="g4225"
       transform="translate(32,28)">
      <path
         sodipodi:nodetypes="ccccccc"
         inkscape:connector-curvature="0"
         id="rect4150"
         d="m 139.57235,40.48342 40.51446,0 -6.75241,57.070705 6.75241,30.808075 -40.51446,0 6.27009,-31.313125 z"
         style="fill:url(#radialGradient4179);fill-opacity:1;stroke:none;stroke-opacity:1" />
      <rect
         y="28.362206"
         x="87"
         height="13.131312"
         width="150"
         id="rect4148"
         style="fill:url(#radialGradient4187);fill-opacity:1;stroke:none;stroke-opacity:1" />
    </g>
    <path
       style="fill:#cc7333;fill-opacity:1;fill-rule:evenodd;stroke:none;stroke-width:1px;stroke-linecap:butt;stroke-linejoin:miter;stroke-opacity:1"
       d="m 704.10538,70.183706 c -3.17449,2.762267 66.44269,2.738868 64,0 -10.04057,-11.257993 -26.81455,-31.646432 -32,-31.999985 -4.2916,-0.292609 -18.39719,20.163564 -32,31.999985 z"
       id="path4257"
       inkscape:connector-curvature="0"
       sodipodi:nodetypes="ssss" />
    <g
       id="g5893"
       inkscape:export-filename="C:\code\fireperson\Assets\Materials\Objects\pipe.png"
       inkscape:export-xdpi="90"
       inkscape:export-ydpi="90">
      <rect
         transform="scale(-1,1)"
         inkscape:export-ydpi="90"
         inkscape:export-xdpi="90"
         inkscape:export-filename="C:\code\fireperson\Assets\Sprites\pipe.png"
         y="28.362162"
         x="-672"
         height="64"
         width="32"
         id="rect4136-3-9-0-5"
         style="fill:#ae5f27;fill-opacity:1;stroke:none;stroke-opacity:1" />
      <rect
         transform="scale(-1,1)"
         inkscape:export-ydpi="90"
         inkscape:export-xdpi="90"
         inkscape:export-filename="C:\code\fireperson\Assets\Sprites\pipe.png"
         y="28.362162"
         x="-665"
         height="64"
         width="18"
         id="rect4136-3-9-00"
         style="fill:#e18b4e;fill-opacity:1;stroke:none;stroke-opacity:1" />
      <rect
         transform="scale(-1,1)"
         inkscape:export-ydpi="90"
         inkscape:export-xdpi="90"
         inkscape:export-filename="C:\code\fireperson\Assets\Sprites\pipe.png"
         y="28.362162"
         x="-664"
         height="64"
         width="16"
         id="rect4136-3-8"
         style="fill:#cc7333;fill-opacity:1;stroke:none;stroke-opacity:1" />
    </g>
    <g
       id="g6236"
       inkscape:export-filename="C:\code\fireperson\Assets\Materials\Objects\pipecorner.png"
       inkscape:export-xdpi="90"
       inkscape:export-ydpi="90">
      <path
         sodipodi:nodetypes="ccccc"
         inkscape:connector-curvature="0"
         id="rect4136-3-9-0-5-5"
         d="m -672,116.36216 32,0 0,16 -23.71105,-7.32295 z"
         style="fill:#ae5f27;fill-opacity:1;stroke:none;stroke-opacity:1"
         transform="scale(-1,1)" />
      <path
         sodipodi:nodetypes="cccccc"
         inkscape:connector-curvature="0"
         id="rect4136-3-9-00-7"
         d="m -665,116.36216 18,0 0,12.5 -11.27195,-1.81161 L -665,119.86216 Z"
         style="fill:#e18b4e;fill-opacity:1;stroke:none;stroke-opacity:1"
         transform="scale(-1,1)" />
      <path
         sodipodi:nodetypes="cccccc"
         inkscape:connector-curvature="0"
         id="rect4136-3-8-82"
         d="m -664,116.36216 16,0 0,12 -8.99717,-1.73654 L -664,120.36216 Z"
         style="fill:#cc7333;fill-opacity:1;stroke:none;stroke-opacity:1"
         transform="scale(-1,1)" />
      <path
         sodipodi:nodetypes="ccccc"
         inkscape:connector-curvature="0"
         id="rect4136-3-9-0-5-5-2"
         d="m 680,124.36217 0,31.99999 -16,0 6.06629,-19.21473 z"
         style="fill:#ae5f27;fill-opacity:1;stroke:none;stroke-opacity:1" />
      <path
         sodipodi:nodetypes="cccccc"
         inkscape:connector-curvature="0"
         id="rect4136-3-9-00-7-2"
         d="m 680,131.36216 0,18.00001 -12.49999,-1e-5 2.56628,-12.71048 6.43371,-5.28952 z"
         style="fill:#e18b4e;fill-opacity:1;stroke:none;stroke-opacity:1" />
      <path
         sodipodi:nodetypes="cccccc"
         inkscape:connector-curvature="0"
         id="rect4136-3-8-82-0"
         d="m 680,132.36216 0,16 -11.99999,0 2.26458,-10.12408 L 676,132.36216 Z"
         style="fill:#cc7333;fill-opacity:1;stroke:none;stroke-opacity:1" />
      <path
         sodipodi:nodetypes="ccccc"
         inkscape:connector-curvature="0"
         id="rect4136-3-9-0-5-1"
         d="m -672,116.36216 32,16 -24,24 -16,-32 z"
         style="fill:#ae5f27;fill-opacity:1;stroke:none;stroke-opacity:1"
         transform="scale(-1,1)" />
      <path
         sodipodi:nodetypes="ccccc"
         inkscape:connector-curvature="0"
         id="rect4136-3-9-00-8"
         d="m -676.5,131.36216 11.5,-11.5 18,9 -20.5,20.5 z"
         style="fill:#e18b4e;fill-opacity:1;stroke:none;stroke-opacity:1"
         transform="scale(-1,1)" />
      <path
         sodipodi:nodetypes="ccccc"
         inkscape:connector-curvature="0"
         id="rect4136-3-8-3"
         d="m -664,120.36216 16,8 -20,20 -8,-16 z"
         style="fill:#cc7333;fill-opacity:1;stroke:none;stroke-opacity:1"
         transform="scale(-1,1)" />
    </g>
    <path
       style="fill:none;fill-rule:evenodd;stroke:#000000;stroke-width:1px;stroke-linecap:butt;stroke-linejoin:miter;stroke-opacity:1"
       d="m 669.24752,-23.521839 c 0,0.267085 -0.0157,0.53463 0,0.801254 0.0511,0.869087 0.14601,1.735182 0.20032,2.604076 0.0371,0.594357 0,1.206727 0,1.802822 0,0.163996 -0.0433,0.871781 0,1.001567 0.0472,0.141643 0.1641,0.25578 0.20031,0.400627 0.0391,0.15628 0,0.968081 0,1.201882 0,0.133542 0,0.267084 0,0.400627 0,0.133542 -0.0597,0.281183 0,0.400627 0.0299,0.05972 0.1531,-0.04721 0.20031,0 0.0247,0.02474 0,0.67564 0,0.801254 0,1.13511 0,2.27022 0,3.40533 0,3.538873 0,7.077745 0,10.616617 0,0.734483 0,1.468966 0,2.203449 0,0.138321 0.0304,0.740352 0,0.801254 -0.0422,0.08446 -0.17045,0.110731 -0.20031,0.200314 -0.0633,0.190034 0,0.400627 0,0.600941 0,0.60094 0,1.201881 0,1.802821 0,0.133543 0,0.267085 0,0.400628 0,0.06677 0.0472,0.153099 0,0.200313 -0.0472,0.04721 -0.1531,-0.04721 -0.20031,0 -0.0472,0.04721 0,0.133542 0,0.200314 0,0.333855 0,0.667711 0,1.001567 0,0.934797 0,1.869593 0,2.80439 0,0.13783 -0.0389,1.085243 0,1.201881 0.23017,0.690524 0.20031,0.148385 0.20031,0.600941"
       id="path5794"
       inkscape:connector-curvature="0" />
    <path
       style="fill:none;fill-rule:evenodd;stroke:#000000;stroke-width:1px;stroke-linecap:butt;stroke-linejoin:miter;stroke-opacity:1"
       d="m 677.861,-22.720585 c 0,3.004703 0,6.009406 0,9.014109 0,0.667712 0,1.335424 0,2.003135 0,0.133543 0,0.267085 0,0.400627 0,0.133543 -0.0324,0.271072 0,0.400628 0.0362,0.144847 0.1531,0.258984 0.20032,0.400627 0.0422,0.126689 -0.0597,0.281183 0,0.400627 0.0845,0.168919 0.31617,0.231708 0.40063,0.400627 0.0597,0.119444 -0.0597,0.281183 0,0.400627 0.0422,0.08446 0.13354,0.133542 0.20031,0.200313 0.0668,0.06677 0.11585,0.158084 0.20031,0.200314 0.0597,0.02986 0.14059,-0.02986 0.20032,0 0.17754,0.08877 0.41859,0.479375 0.60094,0.60094 0.12423,0.08282 0.27639,0.117495 0.40062,0.200314 0.15714,0.104759 0.23171,0.316168 0.40063,0.400627 0.0597,0.02986 0.13697,-0.02112 0.20031,0 0.14165,0.04721 0.26709,0.133542 0.40063,0.200314 0.13354,0.06677 0.2764,0.117494 0.40063,0.200313 0.0786,0.05238 0.11585,0.158084 0.20031,0.200314 0.11945,0.05972 0.3062,-0.09443 0.40063,0 0.0472,0.04721 -0.0472,0.153099 0,0.200313 0.13354,0.133543 0.90378,0.38107 1.00157,0.400627 0.13095,0.02619 0.27107,-0.03239 0.40062,0 0.2897,0.07242 0.51797,0.306199 0.80126,0.400627 0.0633,0.02111 0.13697,-0.02112 0.20031,0 0.13354,0.06677 0.26709,0.133543 0.40063,0.200314 0.0668,0 0.13697,-0.02112 0.20031,0 0.14165,0.04721 0.25899,0.153099 0.40063,0.200313 0.0633,0.02111 0.13697,-0.02111 0.20031,0 0.14165,0.04721 0.25578,0.164102 0.40063,0.200314 0.19433,0.04858 0.41091,-0.06335 0.60094,0 0.14164,0.04721 0.25898,0.153099 0.40063,0.200314 0.12669,0.04223 0.26708,0 0.40062,0 0.33386,0 0.66772,0 1.00157,0 0.16774,0 0.84924,0.03808 1.00157,0 0.28969,-0.07242 0.51797,-0.306199 0.80125,-0.400628 0.16789,-0.05596 0.66851,0.06638 0.80126,0 0.0845,-0.04223 0.11585,-0.158083 0.20031,-0.200313 0.061,-0.03048 0.51073,0 0.60094,0 0.0792,0 0.91602,0.04277 1.00157,0 0.0845,-0.04223 0.11585,-0.158084 0.20031,-0.200314 0.061,-0.03048 0.51073,0 0.60094,0 0.40063,0 0.80126,0 1.20189,0 0.20031,0 0.4109,0.06334 0.60094,0 0.0896,-0.02986 0.11585,-0.158083 0.20031,-0.200313 0.0597,-0.02986 0.13354,0 0.20031,0 0.13355,0 0.26709,0 0.40063,0"
       id="path5796"
       inkscape:connector-curvature="0" />
    <path
       style="fill:none;fill-rule:evenodd;stroke:#000000;stroke-width:1px;stroke-linecap:butt;stroke-linejoin:miter;stroke-opacity:1"
       d="m 698.4933,-0.485783 c -0.53417,0 -1.06834,0 -1.60251,0 -0.13354,0 -0.27664,-0.0496 -0.40063,0 -0.22352,0.08941 -0.37741,0.311216 -0.60094,0.400627 -0.12399,0.0496 -0.26708,0 -0.40062,0 -0.40063,0 -0.80126,0 -1.20189,0 -2.14393,0 1.33567,-0.04858 -1.40219,0.200314 -0.46548,0.04232 -0.9348,0 -1.40219,0 -0.20032,0 -0.40265,-0.02833 -0.60095,0 -0.27253,0.03893 -0.52807,0.166166 -0.80125,0.200314 -0.3954,0.04942 -1.1519,0 -1.60251,0 -0.20031,0 -0.40661,-0.04858 -0.60094,0 -0.0916,0.0229 -0.11073,0.170452 -0.20031,0.200313 -0.12669,0.04223 -0.26709,0 -0.40063,0 -0.40063,0 -0.80125,0 -1.20188,0 -0.73448,0 -1.46897,0 -2.20345,0 -0.17902,0 -0.93773,-0.03192 -1.00157,0 -0.0845,0.04223 -0.11073,0.170453 -0.20031,0.200314 -0.30047,0.100156 -0.7011,-0.100157 -1.00157,0 -0.0167,0.0056 -0.35897,0.369386 -0.40063,0.400627 -0.19259,0.144448 -0.4307,0.230393 -0.60094,0.400627 -0.0472,0.04721 0.0299,0.140591 0,0.200313 -0.0422,0.08446 -0.13354,0.133543 -0.20031,0.200314 -0.13354,0.133542 -0.24349,0.295868 -0.40063,0.400627 -0.11111,0.07408 -0.28118,-0.05972 -0.40062,0 -0.16892,0.08446 -0.24349,0.295868 -0.40063,0.400627 -0.12423,0.08282 -0.29505,0.09474 -0.40063,0.200313 -0.10557,0.105575 -0.11749,0.276398 -0.20031,0.400628 -0.10476,0.157138 -0.31617,0.231707 -0.40063,0.400627 -0.0299,0.05972 0.0299,0.140591 0,0.200313 -0.0422,0.08446 -0.14793,0.121744 -0.20031,0.200314 -0.0828,0.124229 -0.1175,0.276398 -0.20032,0.400627 -0.0524,0.07857 -0.14793,0.121744 -0.20031,0.200313 -0.0828,0.12423 -0.11749,0.276398 -0.20031,0.400627 -0.0524,0.07857 -0.15809,0.115854 -0.20032,0.200314 -0.0597,0.119444 0.0597,0.281183 0,0.400627 -0.0422,0.08446 -0.17045,0.110731 -0.20031,0.200314 -3e-4,9.07e-4 1.9e-4,0.600749 0,0.60094 -0.0472,0.04721 -0.1531,-0.04721 -0.20031,0 -0.0472,0.04721 0,0.133542 0,0.200314 0,1.015097 -0.11945,-0.179166 0.40062,0.60094 0.0741,0.111114 -0.0262,0.269678 0,0.400627 0.0414,0.207049 0.15891,0.393892 0.20032,0.600941 0.0517,0.25868 -0.0716,0.98718 0,1.201881 0.0299,0.08958 0.17741,0.108704 0.20031,0.200314 0.0329,0.131479 -0.0474,1.307381 0,1.402194 0.0422,0.08446 0.15808,0.115854 0.20031,0.200314 0.0509,0.101799 -0.0414,1.036289 0,1.201881 0.0362,0.144847 0.1531,0.258984 0.20032,0.400627 0.11717,0.351515 -0.21042,0.190205 0.20031,0.600941"
       id="path5798"
       inkscape:connector-curvature="0" />
    <path
       style="fill:none;fill-rule:evenodd;stroke:#000000;stroke-width:1px;stroke-linecap:butt;stroke-linejoin:miter;stroke-opacity:1"
       d="m 671.45097,-21.518704 c 0,1.068339 0,2.136678 0,3.205017 0,0.161259 -0.0419,0.675526 0,0.801254 0.0472,0.141643 0.1531,0.258984 0.20032,0.400627 0.0211,0.06335 0,0.133542 0,0.200313 0,0.133543 -0.0422,0.273938 0,0.400628 0.0299,0.08958 0.15808,0.115853 0.20031,0.200313 0.0801,0.160251 -0.0801,0.44069 0,0.600941 0.0422,0.08446 0.17045,0.11073 0.20031,0.200313 0.0422,0.12669 0,0.267085 0,0.400627 0,0.333856 0,0.667712 0,1.001568 0,0.133542 0,0.267085 0,0.400627 0,0.06677 -0.0211,0.136969 0,0.200314 0.0472,0.141643 0.1531,0.258984 0.20032,0.400627 0.042,0.126077 0,0.821012 0,1.001567 0,0.232699 0.0454,0.819974 0,1.001568 -0.0362,0.144847 -0.16411,0.25578 -0.20032,0.400627 -0.0324,0.129555 0,0.267085 0,0.400627 0,0.333856 0,0.667712 0,1.001568 0,0.06677 0.0211,0.136969 0,0.200313 -0.0472,0.141643 -0.1531,0.258984 -0.20031,0.400627 -0.0211,0.06335 0,0.133543 0,0.200314 0,0.333856 0,0.667712 0,1.001568 0,0.06677 0.0299,0.140591 0,0.200313 -0.24753,0.495056 -0.20031,-0.06914 -0.20031,0.400627 0,0.400627 0,0.801254 0,1.201881 0,0.06677 0.0472,0.1531 0,0.200314 -0.14375,0.143744 -0.60095,-0.351283 -0.60095,0.200314 0,0.200313 0.50079,0.400627 0.60095,0.60094 0.0299,0.05972 0,0.133542 0,0.200314 0,0.133542 0,0.267084 0,0.400627 0,0.734483 0,1.468966 0,2.203449 0,0.169595 -0.0359,0.693564 0,0.801254 0.0299,0.08958 0.17045,0.11073 0.20031,0.200313 0.038,0.113951 0,0.812905 0,1.001568 0,0.133542 0,0.267085 0,0.400627 0,0.133542 0.0597,0.281183 0,0.400627 -0.0299,0.05972 -0.13354,0 -0.20031,0 0,0.133542 0,0.267085 0,0.400627 0,0.600941 0,1.201881 0,1.802822 0,0.133542 0,0.267085 0,0.400627 0,0.133542 0.0597,0.281183 0,0.400627 -0.0299,0.05972 -0.1531,-0.04721 -0.20032,0 -0.006,0.0064 0,0.552359 0,0.600941 0,1.335423 0,2.670847 0,4.00627 0,0.667712 0,1.335424 0,2.003136 0,0.05589 0,1.24392 0,0.60094"
       id="path5860"
       inkscape:connector-curvature="0" />
    <path
       style="fill:none;fill-rule:evenodd;stroke:#000000;stroke-width:1px;stroke-linecap:butt;stroke-linejoin:miter;stroke-opacity:1"
       d="m 696.49016,-2.088291 c -0.40315,0.429424 -0.95229,0.08784 -1.40219,0.200314 -0.14485,0.03621 -0.25899,0.153099 -0.40063,0.200313 -0.0633,0.02111 -0.14059,-0.02986 -0.20031,0 -0.0845,0.04223 -0.11586,0.158084 -0.20032,0.200314 -0.16025,0.08012 -0.44069,-0.08013 -0.60094,0 -0.0845,0.04223 -0.11073,0.170452 -0.20031,0.200313 -0.10152,0.03384 -1.23844,0 -1.40219,0 -0.13355,0 -0.26709,0 -0.40063,0 -0.0668,0 -0.14059,-0.02986 -0.20031,0 -0.0845,0.04223 -0.11586,0.158084 -0.20032,0.200314 -0.0856,0.04277 -0.92238,0 -1.00157,0 -0.66771,0 -1.33542,0 -2.00313,0 -1.89009,0 -4.32674,0 -5.60878,0 -0.86803,0 -1.73605,0 -2.60408,0 -0.17902,0 -0.93773,-0.03192 -1.00156,0 -0.16892,0.08446 -0.23171,0.316167 -0.40063,0.400627 -0.0597,0.02986 -0.14059,-0.02986 -0.20031,0 -0.0845,0.04223 -0.11586,0.158084 -0.20032,0.200313 -0.0597,0.02986 -0.1531,-0.04721 -0.20031,0 -0.0472,0.04721 0.0472,0.1531 0,0.200314 -0.10558,0.105574 -0.29505,0.09474 -0.40063,0.200313 -0.41445,0.414456 0.63334,-0.0162 -0.20031,0.400628 -0.0794,0.03971 -0.55999,-0.04095 -0.60094,0 -0.0472,0.04721 0.0299,0.140591 0,0.200313 -0.12019,0.240376 -0.48076,0.360564 -0.60094,0.600941 -0.0299,0.05972 0.0299,0.140591 0,0.200313 -0.0422,0.08446 -0.15809,0.115854 -0.20032,0.200314 -0.0299,0.05972 0.0299,0.140591 0,0.200313 -0.0422,0.08446 -0.14793,0.121744 -0.20031,0.200314 -0.0828,0.124229 -0.13354,0.267085 -0.20031,0.400627 -0.0668,0.133542 -0.1531,0.258984 -0.20032,0.400627 -0.0422,0.126689 0.0944,0.306198 0,0.400627 -0.0472,0.04721 -0.17045,-0.05972 -0.20031,0 -0.0597,0.119444 0,0.267085 0,0.400627 0,0.133542 0,0.267085 0,0.400627 0,0.06677 0.0597,0.170453 0,0.200314 -0.11945,0.05972 -0.28118,-0.05972 -0.40063,0 -0.0331,0.01654 0,0.547646 0,0.60094 0,0.868026 0,1.736051 0,2.604076 0,0.467399 0,0.934797 0,1.402195 0,0.06677 0,0.133542 0,0.200314 0,0.06677 -0.0401,0.146896 0,0.200313 0.16997,0.226629 0.43097,0.374312 0.60094,0.600941 0.0401,0.05342 0,0.133542 0,0.200313 0,0.06677 0,0.133543 0,0.200314 0,0.267084 0,0.534169 0,0.801254 0,0.267085 0,0.534169 0,0.801254 0,0.06677 0,0.267085 0,0.200314 0,-0.133543 0,-0.53417 0,-0.400627 0,0.267084 0,0.534169 0,0.801254"
       id="path5862"
       inkscape:connector-curvature="0" />
    <path
       style="fill:none;fill-rule:evenodd;stroke:#000000;stroke-width:1px;stroke-linecap:butt;stroke-linejoin:miter;stroke-opacity:1"
       d="m 658.83122,-19.916196 c -0.53417,0 -1.06834,0 -1.60251,0 -0.13354,0 -0.26708,0 -0.40063,0 -0.13354,0 -0.27663,0.0496 -0.40062,0 -0.22353,-0.08941 -0.37255,-0.324497 -0.60094,-0.400627 -0.19004,-0.06334 -0.40063,0 -0.60094,0 -0.9348,0 -1.8696,0 -2.80439,0 -0.26709,0 -0.53686,0.03777 -0.80126,0 -0.20903,-0.02986 -0.39266,-0.165603 -0.60094,-0.200313 -0.19759,-0.03293 -0.40063,0 -0.60094,0 -0.53417,0 -1.07099,0.05315 -1.60251,0 -0.27394,-0.02739 -0.52871,-0.161384 -0.80125,-0.200314 -0.1983,-0.02833 -0.40063,0 -0.60094,0 -0.40063,0 -0.80126,0 -1.20188,0 -0.4674,0 -0.9348,0 -1.4022,0 -0.13354,0 -0.2689,-0.02195 -0.40063,0 -0.27155,0.04526 -0.53417,0.133544 -0.80125,0.200314 -0.0668,0.400627 -0.14287,0.79981 -0.20031,1.201881 -0.0455,0.318508 0,0.680351 0,1.001568 0,0.734483 0,1.468966 0,2.203449 0,0.467398 0,0.934796 0,1.402194 0,0.200314 -0.0486,0.406608 0,0.600941 0.0872,0.348838 0.34595,0.646175 0.40062,1.001568 0.32051,2.08326 -0.16025,0.961505 0,2.403762 0.0376,0.338385 0.14855,0.665059 0.20032,1.0015678 0.0819,0.5320666 0.0947,1.0746357 0.20031,1.6025082 0.0953,0.4766618 0.3053,0.925533 0.40063,1.4021948 0.0917,0.4583217 -0.0661,0.9394941 0,1.4021947 0.0299,0.2090269 0.17045,0.3919138 0.20031,0.6009406 0.0378,0.2644004 0,0.5341695 0,0.8012542 0,0.6677118 0,1.3354236 0,2.0031353 0,0.2003136 -0.0283,0.4026404 0,0.6009406 0.0389,0.2725377 0.15506,0.52969539 0.20031,0.80125419 0.0733,0.4397137 -0.0733,0.96248106 0,1.40219475 0.0453,0.27155876 0.16992,0.52763336 0.20032,0.80125416 0.0369,0.3318139 0,0.6677118 0,1.0015677 0,0.6677117 0,1.3354235 0,2.0031353 0,0.6009406 0,1.2018812 0,1.8028218 0,0.1335424 0,0.2670848 0,0.4006271 0,0.1335424 0.0422,0.2739377 0,0.4006271 -0.0299,0.089583 -0.1818,0.1077186 -0.20032,0.2003135 -0.0786,0.3928472 0,0.8012542 0,1.2018812 0,0.1335424 0.0422,0.2739377 0,0.4006271 -0.0299,0.089583 -0.18478,0.1071696 -0.20031,0.2003135 -0.0549,0.3293135 0.0369,0.6697538 0,1.0015674 -0.0304,0.273621 -0.16138,0.528717 -0.20031,0.801254 -0.0283,0.198301 0,0.400628 0,0.600941 0,0.267085 0,0.534169 0,0.801254 0,1.13511 0,2.27022 0,3.40533 0,0.400627 0,0.801254 0,1.201882 0,0.133542 0.0262,0.269678 0,0.400627 -0.0414,0.207048 -0.15891,0.393892 -0.20032,0.60094 -0.0262,0.130949 0,0.267085 0,0.400627 0,0.267085 0,0.53417 0,0.801254 0,0.734483 0,1.468966 0,2.203449 0,0.400627 0,0.801254 0,1.201882 0,0.133542 0,0.267084 0,0.400627 0,0.06677 -0.0211,0.136968 0,0.200313 0.0472,0.141643 0.1531,0.258984 0.20032,0.400627 0.0419,0.125728 0,0.639995 0,0.801254 0,0.341441 -0.0211,0.358398 0.20031,0.801254 0.0422,0.08446 0.15809,0.115854 0.20031,0.200314 0.0299,0.05972 -0.0472,0.153099 0,0.200314 0.0472,0.04721 0.13355,0 0.20032,0 0.9348,-1e-6 1.86959,0 2.80439,0 0.53212,0 0.92757,0.08446 1.40219,-0.200314 0.16195,-0.09717 0.23869,-0.303461 0.40063,-0.400627 0.24114,-0.144683 1.20575,-0.335147 1.40219,-0.400627 0.14165,-0.04721 0.25899,-0.153099 0.40063,-0.200314 0.0634,-0.02111 0.13354,0 0.20032,0 0.13354,0 0.27393,0.04223 0.40062,0 0.0896,-0.02986 0.11586,-0.158083 0.20032,-0.200313 0.0597,-0.02986 0.13354,0 0.20031,0 0.13354,0 0.27107,0.03239 0.40063,0 0.14484,-0.03621 0.25578,-0.164102 0.40062,-0.200314 0.12956,-0.03239 0.26709,0 0.40063,0 0.13354,0 0.26709,0 0.40063,0 0.33385,0 0.66771,0 1.00157,0 0.13354,0 0.26967,-0.02619 0.40062,0 0.20705,0.04141 0.39389,0.158904 0.60094,0.200314 0.13095,0.02619 0.40063,-0.133543 0.40063,0 0,0.133542 -0.26708,0 -0.40063,0 4.6e-4,-0.0018 0.31297,-0.976569 0.20032,-1.201881 -0.0845,-0.16892 -0.32624,-0.22704 -0.40063,-0.400627 -0.26579,-0.620173 -0.20031,-1.356105 -0.20031,-2.003136 0,-0.133542 0.0324,-0.271072 0,-0.400627 -0.0362,-0.144847 -0.16411,-0.25578 -0.20032,-0.400627 -0.0972,-0.188352 0.0486,-0.406608 0,-0.600941 -0.0512,-0.204844 -0.1656,-0.392664 -0.20031,-0.60094 -0.0329,-0.197588 0,-0.400627 0,-0.600941 0,-0.467398 0,-0.934796 0,-1.402195 0,-0.133542 0.0422,-0.273937 0,-0.400627 -0.0299,-0.08958 -0.15808,-0.115854 -0.20031,-0.200313 -0.0299,-0.05972 0,-0.133543 0,-0.200314 0,-0.06677 0,-0.133542 0,-0.200313 0,-0.467398 0,-0.934797 0,-1.402195 0,-0.200314 0.0633,-0.410906 0,-0.600941 -0.0299,-0.08958 -0.15809,-0.115854 -0.20032,-0.200313 -0.0263,-0.05267 0,-0.696506 0,-0.801254 0,-0.667712 0,-1.335424 0,-2.003136 0.20031,-0.267085 0.42917,-0.514975 0.60094,-0.8012538 0.0344,-0.057256 -0.0472,-0.1530991 0,-0.2003135 0.0472,-0.047214 0.1531,0.047214 0.20032,0 0.0472,-0.047214 -0.0299,-0.1405916 0,-0.2003135 0.0765,-0.1530173 0.55572,-0.4652983 0.60094,-0.6009406 0.0422,-0.1266894 -0.0597,-0.2811832 0,-0.4006271 0.0299,-0.059722 0.13697,0.021115 0.20031,0 0.13354,-0.066771 0.26708,-0.1335424 0.40063,-0.2003135 0,-0.066771 -0.0472,-0.1530992 0,-0.2003136 0.10557,-0.1055745 0.3178,-0.076084 0.40062,-0.2003135 0.0741,-0.111114 -0.0422,-0.2739377 0,-0.4006271 0.0299,-0.089583 0.14794,-0.1217441 0.20032,-0.2003135 0.0828,-0.1242292 0.11749,-0.2763979 0.20031,-0.4006271 0.0524,-0.078569 0.15808,-0.1158539 0.20031,-0.2003135 0.0597,-0.1194439 -0.0597,-0.2811832 0,-0.4006271 0.41683,-0.8336569 -0.0138,0.2141423 0.40063,-0.2003135 0.0472,-0.047214 -0.0299,-0.1405916 0,-0.2003136 0.0422,-0.08446 0.14794,-0.1217441 0.20032,-0.2003135 0.0828,-0.1242292 0.11749,-0.2763979 0.20031,-0.4006271 0.12156,-0.1823484 0.51217,-0.4233951 0.60094,-0.6009406 0.0597,-0.1194439 -0.0944,-0.3061983 0,-0.4006271 0.10557,-0.1055745 0.29505,-0.094739 0.40063,-0.2003135 0.1976,-0.1976047 -0.41046,-0.4006271 0.20031,-0.4006271"
       id="path5872"
       inkscape:connector-curvature="0" />
    <path
       style="fill:none;fill-rule:evenodd;stroke:#000000;stroke-width:1px;stroke-linecap:butt;stroke-linejoin:miter;stroke-opacity:1"
       d="m 655.02526,-20.116509 c -0.0668,0.267085 -0.15505,0.529695 -0.20031,0.801254 -0.022,0.131725 0,0.267085 0,0.400627 0,0.400627 0,0.801254 0,1.201881 0,0.133543 0.0422,0.273938 0,0.400627 -0.0299,0.08958 -0.17741,0.108705 -0.20032,0.200314 -0.16692,0.667712 0.11129,0.445141 0,1.001568 -0.0414,0.207048 -0.17699,0.391083 -0.20031,0.60094 -0.0476,0.42886 0,1.861358 0,2.403763 0,0.200313 0,0.400627 0,0.60094 0,0.267085 -0.0439,0.537804 0,0.801254 0.0246,0.147274 0.18383,0.252236 0.20031,0.400627 0.0516,0.46454 -0.0465,0.937117 0,1.402195 0.021,0.210101 0.15891,0.393892 0.20032,0.600941 0.0524,0.261898 -0.0439,0.537803 0,0.801254 0.0453,0.271559 0.16138,0.528716 0.20031,0.801254 0.0472,0.330501 0,0.667712 0,1.001568 0,0.534169 0,1.068339 0,1.602508 0,0.400627 0,0.801254 0,1.201881 0,0.06677 0,0.133543 0,0.200314 0,0.06677 0.0299,0.140591 0,0.200313 -0.0422,0.08446 -0.15808,0.115854 -0.20031,0.200314 -0.0319,0.06383 0,0.822543 0,1.001568 0.77694,0.037925 0.81098,1.1065859 1.40219,1.40219432 0.24624,0.12311997 0.55502,0.0771936 0.80126,0.20031354 0.16892,0.0844596 0.24349,0.29586782 0.40062,0.40062707 0.0556,0.037038 0.1406,-0.029861 0.20032,0 0.0845,0.0422298 0.11585,0.15808373 0.20031,0.20031353 0.0597,0.02986098 0.20031,-0.06677118 0.20031,0 0,0.06677118 -0.24752,-0.04721435 -0.20031,0 0.10558,0.10557451 0.2764,0.11749409 0.40063,0.20031354 0.0786,0.0523796 0.11585,0.15808373 0.20031,0.20031353 0.0597,0.029861 0.13354,0 0.20032,0 0.0668,0 0.13354,0 0.20031,0"
       id="path5876"
       inkscape:connector-curvature="0" />
    <g
       id="g6218"
       inkscape:export-filename="C:\code\fireperson\Assets\Materials\Objects\pipeT.png"
       inkscape:export-xdpi="90"
       inkscape:export-ydpi="90">
      <path
         sodipodi:nodetypes="cccccc"
         inkscape:connector-curvature="0"
         id="rect4136-3-9-0-5-1-1-1"
         d="m 680,210.36216 -3.5,-7 -8.69473,3.48658 -2.80527,8.01342 7,3.5 z"
         style="fill:#ae5f27;fill-opacity:1;stroke:none;stroke-opacity:1" />
      <path
         sodipodi:nodetypes="cccccc"
         inkscape:connector-curvature="0"
         id="rect4136-3-9-0-5-1-1-5"
         d="m 640,202.36216 7,3.5 2.10329,-12.9953 -2.10329,-10.0047 -7,3.5 z"
         style="fill:#ae5f27;fill-opacity:1;stroke:none;stroke-opacity:1" />
      <path
         sodipodi:nodetypes="ccccc"
         inkscape:connector-curvature="0"
         id="rect4136-3-9-0-5-5-7-0"
         d="m 672,218.36216 -32,0 0,-16 20.32103,1.59711 z"
         style="fill:#ae5f27;fill-opacity:1;stroke:none;stroke-opacity:1" />
      <path
         sodipodi:nodetypes="ccccc"
         inkscape:connector-curvature="0"
         id="rect4136-3-9-0-5-5-7"
         d="m 672,170.36216 -32,0 0,16 20.07501,-3.77771 z"
         style="fill:#ae5f27;fill-opacity:1;stroke:none;stroke-opacity:1" />
      <path
         sodipodi:nodetypes="cccccc"
         inkscape:connector-curvature="0"
         id="rect4136-3-9-00-7-6"
         d="m 665,170.36216 -18,0 0,12.5 13.55576,-4.32404 L 665,173.86216 Z"
         style="fill:#e18b4e;fill-opacity:1;stroke:none;stroke-opacity:1" />
      <path
         sodipodi:nodetypes="cccccc"
         inkscape:connector-curvature="0"
         id="rect4136-3-8-82-5"
         d="m 664,170.36216 -16,0 0,12 9.08032,-3.11293 L 664,174.36216 Z"
         style="fill:#cc7333;fill-opacity:1;stroke:none;stroke-opacity:1" />
      <path
         sodipodi:nodetypes="cccccc"
         inkscape:connector-curvature="0"
         id="rect4136-3-9-0-5-5-2-7"
         d="m 680,178.36217 0,31.99999 -7.10542,-7.90096 -0.89458,-8.09904 1.20945,-7.0261 z"
         style="fill:#ae5f27;fill-opacity:1;stroke:none;stroke-opacity:1" />
      <path
         sodipodi:nodetypes="cccccc"
         inkscape:connector-curvature="0"
         id="rect4136-3-9-00-7-2-7"
         d="m 680,185.36216 0,18.00001 -3.5,-1e-5 -5.45149,-9.10016 5.45149,-8.89984 z"
         style="fill:#e18b4e;fill-opacity:1;stroke:none;stroke-opacity:1" />
      <path
         sodipodi:nodetypes="cccccc"
         inkscape:connector-curvature="0"
         id="rect4136-3-8-82-0-7"
         d="m 680,186.36216 0,16 -4,0 -6.20345,-8.25039 L 676,186.36216 Z"
         style="fill:#cc7333;fill-opacity:1;stroke:none;stroke-opacity:1" />
      <path
         sodipodi:nodetypes="cccccc"
         inkscape:connector-curvature="0"
         id="rect4136-3-9-0-5-1-1"
         d="m 672,170.36216 -7,3.5 3.81091,6.46671 7.68909,5.03329 3.5,-7 z"
         style="fill:#ae5f27;fill-opacity:1;stroke:none;stroke-opacity:1" />
      <path
         sodipodi:nodetypes="cccccc"
         inkscape:connector-curvature="0"
         id="rect4136-3-9-00-8-8"
         d="m 676.5,185.36216 -11.5,-11.5 -1,0.5 5.01537,6.16717 6.98463,5.83283 z"
         style="fill:#e18b4e;fill-opacity:1;stroke:none;stroke-opacity:1" />
      <path
         sodipodi:nodetypes="cccccc"
         inkscape:connector-curvature="0"
         id="rect4136-3-9-00-8-8-61"
         d="m 647,182.86216 0,23 1,0.5 1.80282,-12.84428 L 648,182.36216 Z"
         style="fill:#e18b4e;fill-opacity:1;stroke:none;stroke-opacity:1" />
      <path
         sodipodi:nodetypes="cccccc"
         inkscape:connector-curvature="0"
         id="rect4136-3-9-00-7-6-8"
         d="m 665,218.36216 -18,0 0,-12.5 11.17767,2.73437 6.82233,6.26563 z"
         style="fill:#e18b4e;fill-opacity:1;stroke:none;stroke-opacity:1" />
      <path
         sodipodi:nodetypes="cccccc"
         inkscape:connector-curvature="0"
         id="rect4136-3-9-00-8-8-6"
         d="m 665,214.86216 11.5,-11.5 -0.5,-1 -5.91499,3.51123 L 664,214.36216 Z"
         style="fill:#e18b4e;fill-opacity:1;stroke:none;stroke-opacity:1" />
      <path
         sodipodi:nodetypes="cccccccc"
         inkscape:connector-curvature="0"
         id="rect4136-3-8-3-8"
         d="m 664,174.36216 -16,8 0,24 16,8 12,-12 -4,-8 4,-8 z"
         style="fill:#cc7333;fill-opacity:1;stroke:none;stroke-opacity:1" />
      <path
         sodipodi:nodetypes="cccccc"
         inkscape:connector-curvature="0"
         id="rect4136-3-8-82-5-1"
         d="m 664,218.36216 -16,0 0,-12 8.69535,3.19587 7.30465,4.80413 z"
         style="fill:#cc7333;fill-opacity:1;stroke:none;stroke-opacity:1" />
    </g>
    <g
       id="g6194"
       inkscape:export-filename="C:\code\fireperson\Assets\Materials\Objects\pipeX.png"
       inkscape:export-xdpi="90"
       inkscape:export-ydpi="90">
      <path
         sodipodi:nodetypes="ccccc"
         inkscape:connector-curvature="0"
         id="rect4136-3-9-0-5-1-1-18-17"
         d="m 644,282.36216 7.80125,-3.09937 -12.50156,-12.60173 -3.29969,7.7011 z"
         style="fill:#ae5f27;fill-opacity:1;stroke:none;stroke-opacity:1" />
      <path
         sodipodi:nodetypes="ccccc"
         inkscape:connector-curvature="0"
         id="rect4136-3-9-00-8-8-4-2"
         d="m 639.5,267.36216 11.5,11.5 2.20188,-0.5 L 640,265.36059 Z"
         style="fill:#e18b4e;fill-opacity:1;stroke:none;stroke-opacity:1" />
      <path
         sodipodi:nodetypes="ccccc"
         inkscape:connector-curvature="0"
         id="rect4136-3-9-0-5-1-1-1-5"
         d="m 684,274.36216 -3.19953,-8.10172 -12.70188,12.60172 7.90141,3.5 z"
         style="fill:#ae5f27;fill-opacity:1;stroke:none;stroke-opacity:1" />
      <path
         sodipodi:nodetypes="ccccc"
         inkscape:connector-curvature="0"
         id="rect4136-3-9-00-8-8-6-2"
         d="m 669,278.86216 11.5,-11.5 -0.60016,-2.20188 -12.70109,13.10172 z"
         style="fill:#e18b4e;fill-opacity:1;stroke:none;stroke-opacity:1" />
      <path
         sodipodi:nodetypes="ccccc"
         inkscape:connector-curvature="0"
         id="rect4136-3-9-0-5-1-1-18"
         d="m 676,234.36216 -7.90141,2.99922 13.10251,12.80203 2.7989,-7.80125 z"
         style="fill:#ae5f27;fill-opacity:1;stroke:none;stroke-opacity:1" />
      <path
         sodipodi:nodetypes="ccccc"
         inkscape:connector-curvature="0"
         id="rect4136-3-9-00-8-8-4"
         d="m 680.5,249.36216 -11.5,-11.5 -1.7011,0.60016 13.00157,12.80125 z"
         style="fill:#e18b4e;fill-opacity:1;stroke:none;stroke-opacity:1" />
      <path
         sodipodi:nodetypes="ccccc"
         inkscape:connector-curvature="0"
         id="rect4136-3-9-0-5-1-1-18-1"
         d="m 636,242.36216 2.99922,7.80125 13.40297,-13.00235 L 644,234.36216 Z"
         style="fill:#ae5f27;fill-opacity:1;stroke:none;stroke-opacity:1" />
      <path
         sodipodi:nodetypes="cccc"
         inkscape:connector-curvature="0"
         id="rect4136-3-9-0-5-5-2-7-1"
         d="m 684,242.36217 0,31.99999 -8,-16 z"
         style="fill:#ae5f27;fill-opacity:1;stroke:none;stroke-opacity:1" />
      <path
         sodipodi:nodetypes="cccccc"
         inkscape:connector-curvature="0"
         id="rect4136-3-9-00-7-2-7-0"
         d="m 684,249.36216 0,18.00001 -3.5,-10e-6 -4.5,-9 4.5,-9 z"
         style="fill:#e18b4e;fill-opacity:1;stroke:none;stroke-opacity:1" />
      <path
         sodipodi:nodetypes="cccccc"
         inkscape:connector-curvature="0"
         id="rect4136-3-8-82-0-7-8"
         d="m 684,250.36216 0,16 -4,0 -5.41643,-7.71671 L 680,250.36216 Z"
         style="fill:#cc7333;fill-opacity:1;stroke:none;stroke-opacity:1" />
      <path
         sodipodi:nodetypes="cccccccccc"
         inkscape:connector-curvature="0"
         id="rect4136-3-8-3-8-7"
         d="m 668,238.36216 -8,4 -8,-4 0,40 8,-4 8,4 12,-12 -4,-8 4,-8 z"
         style="fill:#cc7333;fill-opacity:1;stroke:none;stroke-opacity:1" />
      <path
         sodipodi:nodetypes="cccc"
         inkscape:connector-curvature="0"
         id="rect4136-3-9-0-5-5-2-7-1-6"
         d="m 675.99999,282.36216 -31.99999,0 16.00001,-8.00001 z"
         style="fill:#ae5f27;fill-opacity:1;stroke:none;stroke-opacity:1" />
      <path
         sodipodi:nodetypes="cccccc"
         inkscape:connector-curvature="0"
         id="rect4136-3-9-00-7-2-7-0-8"
         d="m 669,282.36216 -18.00001,0 10e-6,-3.5 9.00001,-4.50001 9,4.5 z"
         style="fill:#e18b4e;fill-opacity:1;stroke:none;stroke-opacity:1" />
      <path
         sodipodi:nodetypes="cccccc"
         inkscape:connector-curvature="0"
         id="rect4136-3-8-82-0-7-8-2"
         d="m 668,282.36215 -15.99999,1e-5 -10e-6,-4 8.14165,-5.84137 7.85835,5.84137 z"
         style="fill:#cc7333;fill-opacity:1;stroke:none;stroke-opacity:1" />
      <path
         sodipodi:nodetypes="cccc"
         inkscape:connector-curvature="0"
         id="rect4136-3-9-0-5-5-2-7-1-6-2"
         d="m 644,234.36215 31.99999,0 -16.00001,8.00001 z"
         style="fill:#ae5f27;fill-opacity:1;stroke:none;stroke-opacity:1" />
      <path
         sodipodi:nodetypes="cccccc"
         inkscape:connector-curvature="0"
         id="rect4136-3-9-00-7-2-7-0-8-2"
         d="m 650.99999,234.36215 18.00001,0 -10e-6,3.5 -9.00001,4.50001 -9,-4.50001 z"
         style="fill:#e18b4e;fill-opacity:1;stroke:none;stroke-opacity:1" />
      <path
         sodipodi:nodetypes="ccccc"
         inkscape:connector-curvature="0"
         id="rect4136-3-9-00-8-8-4-0"
         d="m 651,237.86216 -11.5,11.5 0.39984,2.20188 13.4022,-13.40219 z"
         style="fill:#e18b4e;fill-opacity:1;stroke:none;stroke-opacity:1" />
      <path
         sodipodi:nodetypes="cccccc"
         inkscape:connector-curvature="0"
         id="rect4136-3-8-82-0-7-8-2-1"
         d="m 651.99999,234.36215 15.99999,0 2e-5,3.99998 -8.70824,6.26632 -7.29177,-6.26632 z"
         style="fill:#cc7333;fill-opacity:1;stroke:none;stroke-opacity:1" />
      <path
         sodipodi:nodetypes="cccccccccc"
         inkscape:connector-curvature="0"
         id="rect4136-3-8-3-8-7-1"
         d="m 652,278.36216 8,-4 8,4 0,-40 -8,4 -8,-4 -12,12 4,8 -4,8 z"
         style="fill:#cc7333;fill-opacity:1;stroke:none;stroke-opacity:1" />
      <path
         sodipodi:nodetypes="cccc"
         inkscape:connector-curvature="0"
         id="rect4136-3-9-0-5-5-2-7-1-2"
         d="m 636,242.36217 0,31.99999 8,-16 z"
         style="fill:#ae5f27;fill-opacity:1;stroke:none;stroke-opacity:1" />
      <path
         sodipodi:nodetypes="cccccc"
         inkscape:connector-curvature="0"
         id="rect4136-3-9-00-7-2-7-0-81"
         d="m 636,249.36216 0,18.00001 3.5,-10e-6 4.5,-9 -4.5,-9 z"
         style="fill:#e18b4e;fill-opacity:1;stroke:none;stroke-opacity:1" />
      <path
         sodipodi:nodetypes="cccccc"
         inkscape:connector-curvature="0"
         id="rect4136-3-8-82-0-7-8-7"
         d="m 636,250.36216 0,16 4,0 5.13314,-8.14164 L 640,250.36216 Z"
         style="fill:#cc7333;fill-opacity:1;stroke:none;stroke-opacity:1" />
    </g>
    <rect
       style="fill:#000000;stroke:#000000;stroke-width:3.19836116;stroke-opacity:1"
       id="rect3467"
       width="59.099979"
       height="22.580769"
       x="386.39798"
       y="260.18222"
       ry="5.0444798" />
    <rect
       style="fill:#999999;fill-opacity:1;stroke:none;stroke-opacity:1"
       id="rect4175"
       width="4.4444442"
       height="16.285017"
       x="346.26706"
       y="188.87662" />
    <path
       style="fill:none;fill-opacity:1;stroke:#000000;stroke-width:4.15990543;stroke-opacity:1"
       d="m 391.89533,206.06015 c 11.91653,-12.78209 35.78895,-12.86592 47.65048,0 8.53665,9.25952 5.17937,42.48482 5.17937,42.48482 l -58.00926,0 c 0,0 -3.31164,-33.37706 5.17941,-42.48482 z"
       id="rect4172-9-9"
       inkscape:connector-curvature="0"
       sodipodi:nodetypes="ssccs" />
    <ellipse
       style="fill:#999999;fill-opacity:1;stroke:none;stroke-opacity:1"
       id="path4177"
       cx="348.98312"
       cy="186.31763"
       rx="3.7037039"
       ry="4.2649436" />
    <rect
       style="opacity:1;fill:#ae5f27;fill-opacity:1;stroke:none;stroke-width:4;stroke-opacity:1"
       id="rect4299"
       width="1.7324172"
       height="8.0127869"
       x="446.26758"
       y="243.97075"
       ry="0.93005562" />
    <rect
       style="opacity:1;fill:#ae5f27;fill-opacity:1;stroke:none;stroke-width:4;stroke-opacity:1"
       id="rect4299-4"
       width="1.7324172"
       height="8.0127869"
       x="446.26758"
       y="266.19476"
       ry="0.93005562" />
    <rect
       style="opacity:1;fill:#ae5f27;fill-opacity:1;stroke:none;stroke-width:4;stroke-opacity:1"
       id="rect4299-7-5"
       width="1.8413597"
       height="59.206799"
       x="-115.92307"
       y="354.67422"
       ry="6.8722177"
       transform="matrix(0,-1,1,0,0,0)" />
    <rect
       style="opacity:1;fill:#ae5f27;fill-opacity:1;stroke:none;stroke-width:4;stroke-opacity:1"
       id="rect4299-7-0"
       width="1.8413597"
       height="59.206799"
       x="-120.17236"
       y="354.67422"
       ry="6.8722177"
       transform="matrix(0,-1,1,0,0,0)" />
    <circle
       style="opacity:1;fill:#ae5f27;fill-opacity:1;stroke:none;stroke-width:4;stroke-opacity:1"
       id="path4419"
       cx="751.37604"
       cy="89.867416"
       r="1.6025083" />
    <path
       style="fill:#ae5f27;fill-opacity:1;fill-rule:evenodd;stroke:none;stroke-width:1px;stroke-linecap:butt;stroke-linejoin:miter;stroke-opacity:1"
       d="m 750.97545,83.73072 0.59884,6.64479 7.61401,-6.434338 z"
       id="path4423"
       inkscape:connector-curvature="0"
       sodipodi:nodetypes="cccc" />
  </g>
</svg>
