<?xml version="1.0" encoding="UTF-8" standalone="no"?>
<!-- Created with Inkscape (http://www.inkscape.org/) -->

<svg
   xmlns:dc="http://purl.org/dc/elements/1.1/"
   xmlns:cc="http://creativecommons.org/ns#"
   xmlns:rdf="http://www.w3.org/1999/02/22-rdf-syntax-ns#"
   xmlns:svg="http://www.w3.org/2000/svg"
   xmlns="http://www.w3.org/2000/svg"
   xmlns:sodipodi="http://sodipodi.sourceforge.net/DTD/sodipodi-0.dtd"
   xmlns:inkscape="http://www.inkscape.org/namespaces/inkscape"
   width="1024"
   height="1024"
   viewBox="0 0 1024 1024"
   id="svg2"
   version="1.1"
   inkscape:version="0.91 r13725"
   sodipodi:docname="denizen.svg"
   inkscape:export-filename="C:\code\fireperson\Assets\Materials\Player\denizen.png"
   inkscape:export-xdpi="256"
   inkscape:export-ydpi="256">
  <defs
     id="defs4">
    <filter
       style="color-interpolation-filters:sRGB"
       inkscape:label="Greyscale"
       id="filter4321">
      <feColorMatrix
         values="0.46875 0.83 0.47 0.05 0 0.46875 0.83 0.47 0.05 0 0.46875 0.83 0.47 0.05 0 0 0 0 1 0 "
         id="feColorMatrix4323"
         result="fbSourceGraphic" />
      <feColorMatrix
         result="fbSourceGraphicAlpha"
         in="fbSourceGraphic"
         values="0 0 0 -1 0 0 0 0 -1 0 0 0 0 -1 0 0 0 0 1 0"
         id="feColorMatrix4325" />
      <feColorMatrix
         id="feColorMatrix4327"
         values="0.47 0.83 0.47 0.05 0 0.47 0.83 0.47 0.05 0 0.47 0.83 0.47 0.05 0 0 0 0 1 0 "
         in="fbSourceGraphic" />
    </filter>
    <pattern
       patternUnits="userSpaceOnUse"
       width="32"
       height="61.560286"
       patternTransform="translate(641.58862,95.128)"
       id="pattern3685">
      <g
         transform="matrix(-0.70710678,-2.1764848,0.70710678,-2.1764848,434.83258,1773.8675)"
         id="g3665">
        <path
           inkscape:connector-curvature="0"
           id="rect4136-3-3-6"
           d="m 409.91821,556.30255 17.71411,0 0,20 -17.71411,0 z"
           style="fill:#cc7333;fill-opacity:1;stroke:none;stroke-opacity:1"
           transform="matrix(0.70710678,-0.70710678,0.70710678,0.70710678,0,0)" />
        <path
           inkscape:connector-curvature="0"
           id="rect4136-5-5-75"
           d="m 406.37537,556.30255 3.54282,0 0,20 -3.54282,0 z"
           style="fill:#d98245;fill-opacity:1;stroke:none;stroke-opacity:1"
           transform="matrix(0.70710678,-0.70710678,0.70710678,0.70710678,0,0)" />
        <path
           inkscape:connector-curvature="0"
           id="rect4136-3-9-7-1"
           d="m 405.48972,556.30255 0.8857,0 0,20 -0.8857,0 z"
           style="fill:#cc7333;fill-opacity:1;stroke:none;stroke-opacity:1"
           transform="matrix(0.70710678,-0.70710678,0.70710678,0.70710678,0,0)" />
        <path
           inkscape:connector-curvature="0"
           id="rect4136-5-8-2-3"
           d="m 403.71829,556.30255 1.77141,0 0,20 -1.77141,0 z"
           style="fill:#e18b4e;fill-opacity:1;stroke:none;stroke-opacity:1"
           transform="matrix(0.70710678,-0.70710678,0.70710678,0.70710678,0,0)" />
        <path
           inkscape:connector-curvature="0"
           id="rect4136-3-9-0-3-9"
           d="m 402.83258,556.30255 0.88571,0 0,20 -0.88571,0 z"
           style="fill:#cc7333;fill-opacity:1;stroke:none;stroke-opacity:1"
           transform="matrix(0.70710678,-0.70710678,0.70710678,0.70710678,0,0)" />
        <path
           inkscape:connector-curvature="0"
           id="rect4136-5-30-4-0"
           d="m -431.28976,556.30255 3.54282,0 0,20 -3.54282,0 z"
           style="fill:#d98245;fill-opacity:1;stroke:none;stroke-opacity:1"
           transform="matrix(-0.70710678,0.70710678,0.70710678,0.70710678,0,0)" />
        <path
           inkscape:connector-curvature="0"
           id="rect4136-3-9-00-4-7"
           d="m -432.17542,556.30255 0.88571,0 0,20 -0.88571,0 z"
           style="fill:#cc7333;fill-opacity:1;stroke:none;stroke-opacity:1"
           transform="matrix(-0.70710678,0.70710678,0.70710678,0.70710678,0,0)" />
        <path
           inkscape:connector-curvature="0"
           id="rect4136-5-8-8-0-5"
           d="m -433.94687,556.30255 1.77141,0 0,20 -1.77141,0 z"
           style="fill:#e18b4e;fill-opacity:1;stroke:none;stroke-opacity:1"
           transform="matrix(-0.70710678,0.70710678,0.70710678,0.70710678,0,0)" />
        <path
           inkscape:connector-curvature="0"
           id="rect4136-3-9-0-5-2-0"
           d="m -434.83258,556.30255 0.8857,0 0,20 -0.8857,0 z"
           style="fill:#cc7333;fill-opacity:1;stroke:none;stroke-opacity:1"
           transform="matrix(-0.70710678,0.70710678,0.70710678,0.70710678,0,0)" />
      </g>
    </pattern>
  </defs>
  <sodipodi:namedview
     id="base"
     pagecolor="#ffffff"
     bordercolor="#666666"
     borderopacity="1.0"
     inkscape:pageopacity="0.0"
     inkscape:pageshadow="2"
     inkscape:zoom="1.698766"
     inkscape:cx="480.82732"
     inkscape:cy="656.98835"
     inkscape:document-units="px"
     inkscape:current-layer="layer1"
     showgrid="true"
     inkscape:window-width="1366"
     inkscape:window-height="705"
     inkscape:window-x="1912"
     inkscape:window-y="-8"
     inkscape:window-maximized="1"
     gridtolerance="10"
     units="px">
    <inkscape:grid
       type="xygrid"
       id="grid4179"
       spacingx="64"
       spacingy="64.000001"
       originy="0" />
  </sodipodi:namedview>
  <metadata
     id="metadata7">
    <rdf:RDF>
      <cc:Work
         rdf:about="">
        <dc:format>image/svg+xml</dc:format>
        <dc:type
           rdf:resource="http://purl.org/dc/dcmitype/StillImage" />
        <dc:title />
      </cc:Work>
    </rdf:RDF>
  </metadata>
  <g
     inkscape:label="Layer 1"
     inkscape:groupmode="layer"
     id="layer1"
     transform="translate(0,-28.362161)">
    <path
       style="fill:#deaa87;fill-rule:evenodd;stroke:none;stroke-width:1px;stroke-linecap:butt;stroke-linejoin:miter;stroke-opacity:1"
       d="m 547.68246,310.31332 c -0.55564,3.06953 13.29026,4.37597 18.32004,8.19975 1.7408,1.32341 0.0175,3.26043 -0.24735,5.02436 -0.39779,2.64943 -0.11931,5.16977 -0.75129,6.72188 -0.83638,2.72865 -3.28656,4.19078 -5.22199,5.25443 -1.56918,1.60698 -23.10477,-0.32456 -25.57162,-0.0511 z"
       id="path3492"
       inkscape:connector-curvature="0"
       sodipodi:nodetypes="csscccc"
       inkscape:export-filename="C:\code\fireperson\Assets\Materials\Player\denizen.png"
       inkscape:export-xdpi="180"
       inkscape:export-ydpi="180" />
    <path
       style="fill:#280b0b;fill-rule:evenodd;stroke:none;stroke-width:1px;stroke-linecap:butt;stroke-linejoin:miter;stroke-opacity:1"
       d="m 537.74317,496.07139 c 14.95949,1.89514 8.69968,11.87124 -4.31875,9.89623 -3.82316,-0.32514 -6.59184,0.80756 -10.33836,0.52086 z"
       id="path3470"
       inkscape:connector-curvature="0"
       sodipodi:nodetypes="cccc"
       inkscape:export-filename="C:\code\fireperson\Assets\Materials\Player\denizen.png"
       inkscape:export-xdpi="180"
       inkscape:export-ydpi="180" />
    <path
       style="fill:#ff5599;fill-rule:evenodd;stroke:none;stroke-width:1px;stroke-linecap:butt;stroke-linejoin:miter;stroke-opacity:1"
       d="m 559.41276,347.17004 c 0.55993,-1.67295 5.19583,-5.5639 6.679,-9.33724 1.53916,-3.91575 -0.0905,-7.70483 -0.50221,-8.75706 1.28177,-2.19846 -7.31331,-1.19034 -9.80131,-1.48989 -3.97773,-1.04932 -6.48762,2.74959 -11.00856,2.23985 l -9.67526,14.30908 z"
       id="path3496"
       inkscape:connector-curvature="0"
       sodipodi:nodetypes="csccccc"
       inkscape:export-filename="C:\code\fireperson\Assets\Materials\Player\denizen.png"
       inkscape:export-xdpi="180"
       inkscape:export-ydpi="180" />
    <path
       style="fill:#cccccc;fill-rule:evenodd;stroke:none;stroke-width:1px;stroke-linecap:butt;stroke-linejoin:miter;stroke-opacity:1"
       d="m 565.3298,286.89847 c 2.77992,1.35393 5.53982,1.08855 5.68482,3.47642 0.27126,4.46725 -2.1606,10.16605 -0.15715,14.93463 2.46627,3.58345 2.88472,12.05858 3.0199,16.77823 -4.5099,1.57622 -9.65709,-0.18536 -15.91782,-0.66856 -3.98773,0.84217 -7.15975,19.6917 -10.87669,22.15611 -0.46639,1.22071 -6.41629,-3.22166 -7.37024,-2.32803 z"
       id="path3490"
       inkscape:connector-curvature="0"
       sodipodi:nodetypes="cscccccc"
       inkscape:export-filename="C:\code\fireperson\Assets\Materials\Player\denizen.png"
       inkscape:export-xdpi="180"
       inkscape:export-ydpi="180" />
    <path
       style="fill:#be68d9;fill-opacity:1;fill-rule:evenodd;stroke:none;stroke-width:1px;stroke-linecap:butt;stroke-linejoin:miter;stroke-opacity:1"
       d="m 463.05595,497.52265 c -0.31262,-36.54484 -2.85441,-19.92836 -0.31262,-36.54484 0.63657,-8.85265 -2.54932,-5.52055 2.9511,-31.91779 1.67433,-8.03534 7.10113,-15.72667 10.0269,-25.41393 2.6757,-8.8593 2.77801,-19.67689 5.91293,-28.00902 2.26732,-2.76118 9.17778,-19.05225 10.89264,-22.32595 3.25533,-3.58651 14.39427,-11.41769 11.03861,-16.48553 l 29.42799,2.97311 6.70766,0 c 6.84442,-0.16364 8.68592,0.51038 14.43744,3.90247 l 5.19577,0.93724 c 0.3414,8.50145 -4.41733,14.06306 -4.41733,14.06306 -2.40612,19.20389 -2.939,18.76077 -2.86559,35.32868 -16.59036,34.27344 -20.06471,37.48361 -17.90835,50.73483 -0.56308,2.0584 0.59943,6.14118 1.59271,24.31272 0.66045,12.08196 6.10463,25.81737 -3.93208,35.15563 3.76486,10.4176 -18.66223,4.78663 -44.64537,4.84958 -14.96929,0.0363 -16.72626,-6.56139 -24.10241,-11.56026 z"
       id="path3460"
       inkscape:connector-curvature="0"
       sodipodi:nodetypes="ccssccccccccccscsc"
       inkscape:export-filename="C:\code\fireperson\Assets\Materials\Player\denizen.png"
       inkscape:export-xdpi="180"
       inkscape:export-ydpi="180" />
    <path
       style="fill:#483737;fill-rule:evenodd;stroke:none;stroke-width:1px;stroke-linecap:butt;stroke-linejoin:miter;stroke-opacity:1"
       d="m 501.49031,341.51923 c -2.94242,4.04938 4.62255,38.42987 3.95323,43.00798 -1.86554,12.76021 10.03098,19.9228 18.49098,23.63083 18.19117,7.97322 29.45184,-2.34327 36.20406,-5.87474 2.59581,-1.35763 12.25153,-11.50658 13.64745,-15.80263 1.45903,-4.49028 1.35873,-12.12061 -5.58441,-16.706 -2.2044,-1.45583 -8.80384,2.68852 -11.46238,0.48095 -3.91833,-3.25365 -7.99668,10.09407 -9.95763,11.82199 -1.96501,1.7315 -12.96822,1.26124 -12.96822,1.26124 0,0 5.9951,-34.9767 6.26112,-43.47459 l -34.28571,-4.26064 z"
       id="path3458"
       inkscape:connector-curvature="0"
       sodipodi:nodetypes="sssssssscccs"
       inkscape:export-filename="C:\code\fireperson\Assets\Materials\Player\denizen.png"
       inkscape:export-xdpi="180"
       inkscape:export-ydpi="180" />
    <path
       style="fill:#c8b7b7;fill-rule:evenodd;stroke:none;stroke-width:1px;stroke-linecap:butt;stroke-linejoin:miter;stroke-opacity:1"
       d="m 542.1521,338.52228 c -3.43362,-0.10016 0.0514,14.84131 -2.98671,10.78276 -4.10801,-5.48784 -18.23052,-5.47029 -26.35873,-6.22646 -1.88125,-0.13386 -9.98591,5.89459 -12.7078,2.54027 -2.50061,-3.08161 3.88189,-7.05801 4.6879,-10.94384 1.00251,-4.83311 0.65709,-9.27046 0.0642,-14.80781 0.65627,-4.45112 0.20996,-9.36303 1.15593,-13.68087 0.64279,-4.87298 3.50537,-10.02652 4.6237,-14.25359 2.45956,-1.41324 2.63186,-5.28754 6.33912,-5.65656 4.00899,-3.23331 11.35012,-3.93598 16.77935,-5.17617 7.16467,-0.35563 13.68435,0.8248 20.80663,0.57014 4.3615,0.91908 14.10383,2.23243 16.06779,4.76534 0.82,0.4094 4.41989,9.30822 3.21231,14.60781 -0.91284,4.00609 -5.58192,3.93718 -10.54113,8.05857 -15.69475,13.23152 -16.31268,25.58668 -21.14256,29.42041 z"
       id="path3450"
       inkscape:connector-curvature="0"
       sodipodi:nodetypes="cscaacccccccscc"
       inkscape:export-filename="C:\code\fireperson\Assets\Materials\Player\denizen.png"
       inkscape:export-xdpi="180"
       inkscape:export-ydpi="180" />
  </g>
</svg>
