<?xml version="1.0" encoding="UTF-8" standalone="no"?>
<!-- Created with Inkscape (http://www.inkscape.org/) -->

<svg
   xmlns:dc="http://purl.org/dc/elements/1.1/"
   xmlns:cc="http://creativecommons.org/ns#"
   xmlns:rdf="http://www.w3.org/1999/02/22-rdf-syntax-ns#"
   xmlns:svg="http://www.w3.org/2000/svg"
   xmlns="http://www.w3.org/2000/svg"
   xmlns:sodipodi="http://sodipodi.sourceforge.net/DTD/sodipodi-0.dtd"
   xmlns:inkscape="http://www.inkscape.org/namespaces/inkscape"
   width="1024"
   height="1024"
   viewBox="0 0 1024 1024"
   id="svg2"
   version="1.1"
   inkscape:version="0.91 r13725"
   sodipodi:docname="denizen shivering.svg"
   inkscape:export-filename="C:\code\fireperson\Assets\Materials\Player\denizen.png"
   inkscape:export-xdpi="256"
   inkscape:export-ydpi="256">
  <defs
     id="defs4">
    <filter
       style="color-interpolation-filters:sRGB"
       inkscape:label="Greyscale"
       id="filter4321">
      <feColorMatrix
         values="0.46875 0.83 0.47 0.05 0 0.46875 0.83 0.47 0.05 0 0.46875 0.83 0.47 0.05 0 0 0 0 1 0 "
         id="feColorMatrix4323"
         result="fbSourceGraphic" />
      <feColorMatrix
         result="fbSourceGraphicAlpha"
         in="fbSourceGraphic"
         values="0 0 0 -1 0 0 0 0 -1 0 0 0 0 -1 0 0 0 0 1 0"
         id="feColorMatrix4325" />
      <feColorMatrix
         id="feColorMatrix4327"
         values="0.47 0.83 0.47 0.05 0 0.47 0.83 0.47 0.05 0 0.47 0.83 0.47 0.05 0 0 0 0 1 0 "
         in="fbSourceGraphic" />
    </filter>
    <pattern
       patternUnits="userSpaceOnUse"
       width="32"
       height="61.560286"
       patternTransform="translate(641.58862,95.128)"
       id="pattern3685">
      <g
         transform="matrix(-0.70710678,-2.1764848,0.70710678,-2.1764848,434.83258,1773.8675)"
         id="g3665">
        <path
           inkscape:connector-curvature="0"
           id="rect4136-3-3-6"
           d="m 409.91821,556.30255 17.71411,0 0,20 -17.71411,0 z"
           style="fill:#cc7333;fill-opacity:1;stroke:none;stroke-opacity:1"
           transform="matrix(0.70710678,-0.70710678,0.70710678,0.70710678,0,0)" />
        <path
           inkscape:connector-curvature="0"
           id="rect4136-5-5-75"
           d="m 406.37537,556.30255 3.54282,0 0,20 -3.54282,0 z"
           style="fill:#d98245;fill-opacity:1;stroke:none;stroke-opacity:1"
           transform="matrix(0.70710678,-0.70710678,0.70710678,0.70710678,0,0)" />
        <path
           inkscape:connector-curvature="0"
           id="rect4136-3-9-7-1"
           d="m 405.48972,556.30255 0.8857,0 0,20 -0.8857,0 z"
           style="fill:#cc7333;fill-opacity:1;stroke:none;stroke-opacity:1"
           transform="matrix(0.70710678,-0.70710678,0.70710678,0.70710678,0,0)" />
        <path
           inkscape:connector-curvature="0"
           id="rect4136-5-8-2-3"
           d="m 403.71829,556.30255 1.77141,0 0,20 -1.77141,0 z"
           style="fill:#e18b4e;fill-opacity:1;stroke:none;stroke-opacity:1"
           transform="matrix(0.70710678,-0.70710678,0.70710678,0.70710678,0,0)" />
        <path
           inkscape:connector-curvature="0"
           id="rect4136-3-9-0-3-9"
           d="m 402.83258,556.30255 0.88571,0 0,20 -0.88571,0 z"
           style="fill:#cc7333;fill-opacity:1;stroke:none;stroke-opacity:1"
           transform="matrix(0.70710678,-0.70710678,0.70710678,0.70710678,0,0)" />
        <path
           inkscape:connector-curvature="0"
           id="rect4136-5-30-4-0"
           d="m -431.28976,556.30255 3.54282,0 0,20 -3.54282,0 z"
           style="fill:#d98245;fill-opacity:1;stroke:none;stroke-opacity:1"
           transform="matrix(-0.70710678,0.70710678,0.70710678,0.70710678,0,0)" />
        <path
           inkscape:connector-curvature="0"
           id="rect4136-3-9-00-4-7"
           d="m -432.17542,556.30255 0.88571,0 0,20 -0.88571,0 z"
           style="fill:#cc7333;fill-opacity:1;stroke:none;stroke-opacity:1"
           transform="matrix(-0.70710678,0.70710678,0.70710678,0.70710678,0,0)" />
        <path
           inkscape:connector-curvature="0"
           id="rect4136-5-8-8-0-5"
           d="m -433.94687,556.30255 1.77141,0 0,20 -1.77141,0 z"
           style="fill:#e18b4e;fill-opacity:1;stroke:none;stroke-opacity:1"
           transform="matrix(-0.70710678,0.70710678,0.70710678,0.70710678,0,0)" />
        <path
           inkscape:connector-curvature="0"
           id="rect4136-3-9-0-5-2-0"
           d="m -434.83258,556.30255 0.8857,0 0,20 -0.8857,0 z"
           style="fill:#cc7333;fill-opacity:1;stroke:none;stroke-opacity:1"
           transform="matrix(-0.70710678,0.70710678,0.70710678,0.70710678,0,0)" />
      </g>
    </pattern>
  </defs>
  <sodipodi:namedview
     id="base"
     pagecolor="#ffffff"
     bordercolor="#666666"
     borderopacity="1.0"
     inkscape:pageopacity="0.0"
     inkscape:pageshadow="2"
     inkscape:zoom="1.97"
     inkscape:cx="622.75625"
     inkscape:cy="751.10599"
     inkscape:document-units="px"
     inkscape:current-layer="layer1"
     showgrid="true"
     inkscape:window-width="690"
     inkscape:window-height="406"
     inkscape:window-x="692"
     inkscape:window-y="71"
     inkscape:window-maximized="0"
     gridtolerance="10"
     units="px">
    <inkscape:grid
       type="xygrid"
       id="grid4179"
       spacingx="64"
       spacingy="64.000001"
       originy="0" />
  </sodipodi:namedview>
  <metadata
     id="metadata7">
    <rdf:RDF>
      <cc:Work
         rdf:about="">
        <dc:format>image/svg+xml</dc:format>
        <dc:type
           rdf:resource="http://purl.org/dc/dcmitype/StillImage" />
        <dc:title></dc:title>
      </cc:Work>
    </rdf:RDF>
  </metadata>
  <g
     inkscape:label="Layer 1"
     inkscape:groupmode="layer"
     id="layer1"
     transform="translate(0,-28.362161)">
    <path
       style="fill:#deaa87;fill-rule:evenodd;stroke:none;stroke-width:1px;stroke-linecap:butt;stroke-linejoin:miter;stroke-opacity:1"
       d="m 490.31286,221.03108 c 0.56827,3.24595 -13.59197,4.62748 -18.73592,8.67102 -4.45437,3.50148 -0.0553,9.68727 1.0213,12.42133 0.85537,2.88548 3.36117,4.43164 5.34054,5.55642 1.6048,1.69934 23.62927,-0.34321 26.15212,-0.0541 z"
       id="path3492"
       inkscape:connector-curvature="0"
       sodipodi:nodetypes="cscccc" />
    <path
       style="fill:#280b0b;fill-rule:evenodd;stroke:none;stroke-width:1px;stroke-linecap:butt;stroke-linejoin:miter;stroke-opacity:1"
       d="m 463.7542,418.71033 c -15.2991,2.00405 -8.89717,12.55353 4.41679,10.46501 3.90995,-0.34383 6.74149,0.85398 10.57306,0.55078 z"
       id="path3470"
       inkscape:connector-curvature="0"
       sodipodi:nodetypes="cccc" />
    <path
       style="fill:#cccccc;fill-rule:evenodd;stroke:none;stroke-width:1px;stroke-linecap:butt;stroke-linejoin:miter;stroke-opacity:1"
       d="m 472.26491,196.27049 c -2.84303,1.43175 -5.66558,1.15111 -5.81388,3.67623 -0.27741,4.72399 2.20965,10.75033 0.16072,15.79297 -2.52226,3.78941 -1.74615,8.39416 -1.88439,13.38507 4.61227,1.6668 8.67225,4.16146 15.07511,3.65048 4.07826,0.89057 3.1081,7.12855 6.90942,9.7346 0.47698,1.29087 6.56194,-2.16181 7.53756,-1.21683 z"
       id="path3490"
       inkscape:connector-curvature="0"
       sodipodi:nodetypes="cscccccc" />
    <path
       style="fill:#c8b7b7;fill-rule:evenodd;stroke:none;stroke-width:1px;stroke-linecap:butt;stroke-linejoin:miter;stroke-opacity:1"
       d="m 471.46197,202.79991 c 1.06385,11.48299 10.85788,19.22506 14.77706,29.5427 4.15825,5.75684 4.79022,14.46463 9.72974,18.5187 3.51156,-0.10593 6.7042,11.7722 4.25858,7.04502 6.87928,-1.39704 17.44031,-1.42722 25.75304,-2.22685 1.92396,-0.14155 4.56964,1.11246 5.77198,-0.42621 1.61524,-2.06708 -1.26765,-5.19594 -1.18217,-7.83786 0.17979,-5.55643 2.94015,-10.42576 3.5465,-16.28136 -0.67117,-4.70693 -0.21473,-9.90115 -1.18217,-14.46715 -0.65738,-5.15305 -3.58494,-10.60279 -4.72866,-15.0728 -2.5154,-1.49447 -2.69161,-5.59143 -6.48304,-5.98167 -4.09999,-3.41914 -11.60777,-4.16218 -17.16025,-5.47366 -7.32732,-0.37607 -13.99501,0.8722 -21.27897,0.60291 -4.46052,0.97191 -10.20982,2.36074 -12.21836,5.03922 -1.47255,0.76019 -0.67384,5.13044 -0.78545,7.01902"
       id="path3450"
       inkscape:connector-curvature="0"
       sodipodi:nodetypes="cccccaacccccccc" />
    <path
       style="fill:#ff5599;fill-rule:evenodd;stroke:none;stroke-width:1px;stroke-linecap:butt;stroke-linejoin:miter;stroke-opacity:1"
       d="m 478.31627,260.00608 c -1.1669,-3.60497 -4.13367,-10.10185 -3.30689,-12.28678 -1.31086,-2.32482 2.66314,-2.50376 5.20761,-2.82053 4.06803,-1.10962 8.44098,-2.69483 13.06456,-3.23386 l 9.89489,15.13147 z"
       id="path3496"
       inkscape:connector-curvature="0"
       sodipodi:nodetypes="cccccc" />
    <path
       style="fill:#782121;fill-rule:evenodd;stroke:none;stroke-width:1px;stroke-linecap:butt;stroke-linejoin:miter;stroke-opacity:1"
       d="m 470.2798,361.0659 c -3.41269,12.1068 -4.23727,24.6929 -4.72866,37.08152 -0.43623,7.50993 -1.36132,15.00775 -1.81203,22.53043 1.13908,4.26697 0.46946,10.67025 3.94584,12.72226 3.1578,2.82239 9.45166,-0.11664 13.82542,0.0346 4.07397,-1.13008 9.53063,-0.91447 13.59489,0.59808 6.18804,-0.14435 12.07303,1.01028 18.32355,0.59809 4.68832,1.23287 9.86787,0.31038 14.77706,0.59809 7.51612,-1.78796 15.35392,-1.22398 21.27897,-7.77515 6.22441,-8.69974 11.68576,-18.21128 14.18597,-28.70827 2.48634,-8.8132 2.80183,-18.32768 2.06879,-27.5121 -0.61999,-6.72963 0.20981,-13.47807 -2.00682,-19.94647 0.0482,-3.33613 -2.5227,-5.88661 -3.01738,-8.76179 z"
       id="path3466"
       inkscape:connector-curvature="0"
       sodipodi:nodetypes="cccccccccccccc" />
    <path
       style="fill:#916f6f;fill-rule:evenodd;stroke:none;stroke-width:1px;stroke-linecap:butt;stroke-linejoin:miter;stroke-opacity:1"
       d="m 559.71351,336.64267 c 3.1272,2.58832 0.25209,-22.93384 0,-24.23475 -1.50145,-6.48706 -2.88341,-12.93725 -5.64702,-18.72685 -1.55972,-3.41962 -2.85459,-6.97522 -3.95292,-9.91421 -1.72453,-3.7874 -4.24017,-7.19297 -7.90582,-10.46501 -2.31878,-2.91988 -2.76383,-6.45237 -4.51762,-9.91421 -3.32923,-3.79265 -5.69064,-8.96143 -2.2588,-14.32053 l -30.09605,3.14398 -6.85993,0 c -6.9998,-0.17306 -8.88311,0.53972 -14.76519,4.12676 l -5.31372,0.9911 c -0.34915,8.99007 -5.94674,14.87132 4.51761,14.87132 -2.72907,7.00695 -6.83143,10.98274 -9.03522,15.42211 l 0,2.20316 1.1294,25.33633 c -3.33945,7.51437 -3.61534,12.81077 -5.36353,19.51142 -1.03373,4.4122 -0.87414,9.26319 -0.84819,14.08675 1.15612,4.37009 0.29973,9.1946 0.5647,13.76974 9.0523,-0.34633 18.35162,0.89713 27.10569,-1.10158 9.50603,-0.73798 19.27211,-2.0957 28.79979,0 10.55543,0.25918 21.02023,-0.5327 31.3091,-2.6509 2.59366,-1.88221 8.73483,-4.72999 6.52593,-9.46647 z"
       id="path3460"
       inkscape:connector-curvature="0"
       sodipodi:nodetypes="ccccccccccccccccccccccc" />
    <path
       style="fill:#483737;fill-rule:evenodd;stroke:none;stroke-width:1px;stroke-linecap:butt;stroke-linejoin:miter;stroke-opacity:1"
       d="m 525.7853,282.66528 c -2.6693,4.51667 -4.74769,9.45984 -7.0531,13.73257 -4.89206,7.77465 -13.13331,13.8882 -21.31885,18.76402 -6.71662,4.01177 -14.54705,5.39549 -21.87004,6.60948 -6.67,1.75262 -12.4674,3.17394 -18.2174,4.99419 -8.39233,2.05247 -12.6504,-6.41331 -10.15456,-12.70525 l 8.86624,-6.60948 c 1.84098,-1.2335 5.79917,-2.77274 8.27515,-3.85552 8.07096,-4.54924 17.60347,-7.08718 26.00762,-11.56659 9.89799,-3.52596 16.84495,-10.97859 20.68789,-19.82843 z"
       id="path3458"
       inkscape:connector-curvature="0"
       sodipodi:nodetypes="ccccccccccc" />
    <path
       style="fill:#deaa87;fill-rule:evenodd;stroke:none;stroke-width:1px;stroke-linecap:butt;stroke-linejoin:miter;stroke-opacity:1"
       d="m 703.08044,245.26469 c 0.55564,3.06953 -13.29026,4.37597 -18.32004,8.19975 -1.7408,1.32341 -0.0175,3.26043 0.24735,5.02436 0.39779,2.64943 0.11931,5.16977 0.75129,6.72188 0.83638,2.72865 3.28656,4.19078 5.22199,5.25443 1.56918,1.60698 23.10477,-0.32456 25.57162,-0.0511 z"
       id="path3492-5"
       inkscape:connector-curvature="0"
       sodipodi:nodetypes="csscccc"
       inkscape:export-filename="C:\code\fireperson\Assets\Materials\Player\denizen.png"
       inkscape:export-xdpi="256"
       inkscape:export-ydpi="256" />
    <path
       style="fill:#280b0b;fill-rule:evenodd;stroke:none;stroke-width:1px;stroke-linecap:butt;stroke-linejoin:miter;stroke-opacity:1"
       d="m 713.01973,431.02276 c -14.95949,1.89514 -8.69968,11.87124 4.31875,9.89623 3.82316,-0.32514 17.77643,-0.36977 21.52295,-0.65647 z"
       id="path3470-3"
       inkscape:connector-curvature="0"
       sodipodi:nodetypes="cccc"
       inkscape:export-filename="C:\code\fireperson\Assets\Materials\Player\denizen.png"
       inkscape:export-xdpi="256"
       inkscape:export-ydpi="256" />
    <path
       style="fill:#ff5599;fill-rule:evenodd;stroke:none;stroke-width:1px;stroke-linecap:butt;stroke-linejoin:miter;stroke-opacity:1"
       d="m 691.35014,282.12141 c -0.55993,-1.67295 -5.19583,-5.5639 -6.679,-9.33724 -1.53916,-3.91575 0.0905,-7.70483 0.50221,-8.75706 -1.28177,-2.19846 7.31331,-1.19034 9.80131,-1.48989 3.97773,-1.04932 6.48762,2.74959 11.00856,2.23985 l 9.67526,14.30908 z"
       id="path3496-2"
       inkscape:connector-curvature="0"
       sodipodi:nodetypes="csccccc"
       inkscape:export-filename="C:\code\fireperson\Assets\Materials\Player\denizen.png"
       inkscape:export-xdpi="256"
       inkscape:export-ydpi="256" />
    <path
       style="fill:#cccccc;fill-rule:evenodd;stroke:none;stroke-width:1px;stroke-linecap:butt;stroke-linejoin:miter;stroke-opacity:1"
       d="m 705.73767,239.10872 c -2.77992,1.35393 -18.23018,-12.61703 -18.37518,-10.22916 -0.27126,4.46725 -5.45361,6.61275 -7.45706,11.38133 -2.46627,3.58345 -2.88472,12.05858 -3.0199,16.77823 4.5099,1.57622 9.65709,-0.18536 15.91782,-0.66856 3.98773,0.84217 7.15975,19.6917 10.87669,22.15611 0.46639,1.22071 6.41629,-3.22166 7.37024,-2.32803 z"
       id="path3490-5"
       inkscape:connector-curvature="0"
       sodipodi:nodetypes="cscccccc"
       inkscape:export-filename="C:\code\fireperson\Assets\Materials\Player\denizen.png"
       inkscape:export-xdpi="256"
       inkscape:export-ydpi="256" />
    <path
       style="fill:#c8b7b7;fill-rule:evenodd;stroke:none;stroke-width:1px;stroke-linecap:butt;stroke-linejoin:miter;stroke-opacity:1"
       d="m 708.6108,273.47365 c 3.43362,-0.10016 -0.0514,14.84131 2.98671,10.78276 4.10801,-5.48784 18.23052,-5.47029 26.35873,-6.22646 1.88125,-0.13386 3.31245,3.26089 5.05519,2.54027 2.39909,-0.99202 2.0886,-4.82073 2.4571,-7.39054 0.74914,-5.22435 -1.16471,-10.28569 -0.57182,-15.82304 0,0 4.86618,-13.93156 3.92021,-18.2494 -0.64279,-4.87298 -3.50537,-11.54936 -4.6237,-15.77643 -2.45956,-1.41324 -6.69277,-6.30277 -10.40003,-6.67179 -4.00899,-3.23331 -7.79682,-2.92075 -13.22605,-4.16094 -7.16467,-0.35563 -17.23765,4.3781 -24.35993,4.12344 -4.3615,0.91908 -9.5353,5.78573 -11.49926,8.31864 -0.82,0.4094 -8.98842,5.75492 -7.78084,11.05451 0.91284,4.00609 5.58192,3.93718 10.54113,8.05857 15.69475,13.23152 16.31268,25.58668 21.14256,29.42041 z"
       id="path3450-5"
       inkscape:connector-curvature="0"
       sodipodi:nodetypes="cscaacccccccscc"
       inkscape:export-filename="C:\code\fireperson\Assets\Materials\Player\denizen.png"
       inkscape:export-xdpi="256"
       inkscape:export-ydpi="256" />
    <path
       style="fill:#be68d9;fill-opacity:1;fill-rule:evenodd;stroke:none;stroke-width:1px;stroke-linecap:butt;stroke-linejoin:miter;stroke-opacity:1"
       d="m 787.70695,432.47402 c 15.05595,-21.1605 11.68435,-18.75103 9.14256,-35.36751 -0.63657,-8.85265 -0.39399,-6.69788 -5.89441,-33.09512 -1.67433,-8.03534 -4.74648,-16.904 -7.67225,-26.59126 -2.6757,-8.8593 -11.01929,-18.49956 -14.15421,-26.83169 -2.26732,-2.76118 -9.17778,-19.05225 -10.89264,-22.32595 0,0 -4.11808,-12.13736 -6.9777,-17.50076 l -33.4889,3.98834 -6.70766,0 c -6.84442,-0.16364 -8.68592,0.51038 -14.43744,3.90247 l -5.19577,0.93724 c -0.3414,8.50145 4.41733,14.06306 4.41733,14.06306 2.40612,19.20389 2.939,18.76077 2.86559,35.32868 16.59036,34.27344 11.23477,37.48361 9.07841,50.73483 0,0 -1.77675,7.90717 -2.77003,26.07871 -0.66045,12.08196 3.90263,24.05138 13.93934,33.38964 0,0 18.66223,4.78663 44.64537,4.84958 14.96929,0.0363 16.72626,-6.56139 24.10241,-11.56026 z"
       id="path3460-5"
       inkscape:connector-curvature="0"
       sodipodi:nodetypes="ccssccccccccccscsc"
       inkscape:export-filename="C:\code\fireperson\Assets\Materials\Player\denizen.png"
       inkscape:export-xdpi="256"
       inkscape:export-ydpi="256" />
    <path
       style="fill:#483737;fill-rule:evenodd;stroke:none;stroke-width:1px;stroke-linecap:butt;stroke-linejoin:miter;stroke-opacity:1"
       d="m 755.15922,303.08411 c -5.55713,16.90208 -4.10256,12.5099 -5.55713,16.90208 -4.22583,12.76021 -21.75848,21.60038 -21.75848,21.60038 -12.18183,6.77558 -25.89854,-4.37373 -32.65076,-7.9052 -2.59581,-1.35763 -7.17539,-7.95328 -8.57131,-12.24933 -1.45903,-4.49028 -4.84533,-14.77461 3.04634,-12.13747 2.50555,0.83727 14.50806,-4.08758 14.50806,-4.08758 4.66648,-2.04048 1.90531,10.09407 3.86626,11.82199 1.96501,1.7315 8.90731,1.26124 8.90731,1.26124 0,0 14.22417,-7.97927 13.95815,-16.47716 l 7.20723,-11.54641 z"
       id="path3458-3"
       inkscape:connector-curvature="0"
       sodipodi:nodetypes="cssssscscccc"
       inkscape:export-filename="C:\code\fireperson\Assets\Materials\Player\denizen.png"
       inkscape:export-xdpi="256"
       inkscape:export-ydpi="256" />
  </g>
</svg>
