<?xml version="1.0" encoding="UTF-8" standalone="no"?>
<!-- Created with Inkscape (http://www.inkscape.org/) -->

<svg
   xmlns:dc="http://purl.org/dc/elements/1.1/"
   xmlns:cc="http://creativecommons.org/ns#"
   xmlns:rdf="http://www.w3.org/1999/02/22-rdf-syntax-ns#"
   xmlns:svg="http://www.w3.org/2000/svg"
   xmlns="http://www.w3.org/2000/svg"
   xmlns:sodipodi="http://sodipodi.sourceforge.net/DTD/sodipodi-0.dtd"
   xmlns:inkscape="http://www.inkscape.org/namespaces/inkscape"
   width="210mm"
   height="297mm"
   viewBox="0 0 744.09448819 1052.3622047"
   id="svg2"
   version="1.1"
   inkscape:version="0.91 r13725"
   sodipodi:docname="clifftop.svg">
  <defs
     id="defs4" />
  <sodipodi:namedview
     id="base"
     pagecolor="#ffffff"
     bordercolor="#666666"
     borderopacity="1.0"
     inkscape:pageopacity="0.0"
     inkscape:pageshadow="2"
     inkscape:zoom="0.35"
     inkscape:cx="452.13103"
     inkscape:cy="484.84771"
     inkscape:document-units="px"
     inkscape:current-layer="layer1"
     showgrid="false"
     inkscape:window-width="1366"
     inkscape:window-height="705"
     inkscape:window-x="-8"
     inkscape:window-y="-8"
     inkscape:window-maximized="1" />
  <metadata
     id="metadata7">
    <rdf:RDF>
      <cc:Work
         rdf:about="">
        <dc:format>image/svg+xml</dc:format>
        <dc:type
           rdf:resource="http://purl.org/dc/dcmitype/StillImage" />
      </cc:Work>
    </rdf:RDF>
  </metadata>
  <g
     inkscape:label="Layer 1"
     inkscape:groupmode="layer"
     id="layer1">
    <path
       style="fill:#c8b7b7;fill-rule:evenodd;stroke:none;stroke-width:1px;stroke-linecap:butt;stroke-linejoin:miter;stroke-opacity:1"
       d="m 77.142857,263.79078 c 37.222043,-0.58595 75.555883,-21.11103 114.285713,-11.42858 5.92787,1.48197 11.82296,3.25153 14.28572,5.71429 6.89525,6.89525 72.79441,-6.45994 85.71428,0 43.03509,21.51755 101.34153,11.42857 142.85714,11.42857 6.71933,0 31.73253,-1.94527 34.28572,5.71429 2.49713,7.49139 -76.07049,44.64192 -88.57143,57.14285 -3.47908,3.47908 -11.47637,4.35742 -14.28571,8.57143 -6.48183,9.72275 -16.12656,23.68168 -22.85715,37.14286 -1.14285,2.28571 1.14286,6.28571 0,8.57143 -2.56387,5.12775 -31.64465,23.07322 -37.14285,28.57143 -9.96835,9.96834 -22.12279,24.97993 -31.42858,34.28571 -4.08435,4.08435 -19.03612,44.26848 -25.71428,54.28572 -10.21859,15.32789 -23.26927,20.82425 -31.42857,37.14285 -6.88612,13.77223 -0.59371,58.92397 -5.71429,74.28572 -4.28283,12.8485 -9.73241,60.53518 -2.85714,74.28571 5.97902,11.95804 6.29498,32.58997 11.42857,42.85714 7.30109,14.60218 19.23865,22.0958 31.42857,34.28572 4.09743,4.09742 10.33236,15.16618 14.28572,17.14286 19.67961,9.8398 57.31621,8.6581 68.57142,14.28571 8.19564,4.09782 13.31627,6.18621 22.85715,8.57143 16.31487,4.07872 26.8722,-1.51879 31.42857,0 5.29018,1.76339 -5.71429,43.43258 -5.71429,45.71428 0,3.80953 3.80953,11.42858 0,11.42858 -10.69439,0 -20.93553,35.22124 -31.42857,45.71428 -3.63655,3.63655 -13.78195,4.03383 -17.14286,5.71429 C 324.38176,920.17132 320,950.94112 320,960.93363 c 0,6.51569 -5.71523,19.99906 0,25.71429 3.66574,3.66574 30.89387,50.83268 25.71429,54.28568 -10.1594,6.773 -42.12976,5.7143 -57.14286,5.7143 -7.61905,0 -15.2381,0 -22.85714,0 -0.95239,0 -3.53058,-0.6734 -2.85715,0 4.70898,4.709 13.80165,5.7143 20,5.7143 1.90476,0 -3.80952,0 -5.71428,0 -10.47619,0 -20.95238,0 -31.42857,0 -26.85251,0 -56.1954,2.2206 -80,-5.7143 -18.85953,-6.2865 -107.606256,2.8955 -111.428576,-8.5714 -12.391055,-37.1732 -6.830861,-84.46631 -17.142857,-125.7143 -5.060987,-20.24394 6.577178,-45.98275 0,-65.71428 -10.842422,-32.52727 -12.322507,-141.51624 5.714286,-168.57143 5.492843,-8.23926 0,-99.71071 0,-114.28571 0,-25.43345 9.69638,-170.82133 17.142857,-185.71429 2.666667,-5.33333 -2.666667,-14.66667 0,-20 7.230591,-14.46118 -4.214169,-37.28595 2.857143,-51.42857 6.684381,-13.36876 6.866665,-28.01905 14.285714,-42.85714 z"
       id="path3360"
       inkscape:connector-curvature="0"
       inkscape:export-filename="C:\code\fireperson\Assets\Sprites\cliffs\cliffTop.png"
       inkscape:export-xdpi="90"
       inkscape:export-ydpi="90" />
  </g>
</svg>
