<?xml version="1.0" encoding="UTF-8" standalone="no"?>
<!-- Created with Inkscape (http://www.inkscape.org/) -->

<svg
   xmlns:dc="http://purl.org/dc/elements/1.1/"
   xmlns:cc="http://creativecommons.org/ns#"
   xmlns:rdf="http://www.w3.org/1999/02/22-rdf-syntax-ns#"
   xmlns:svg="http://www.w3.org/2000/svg"
   xmlns="http://www.w3.org/2000/svg"
   xmlns:sodipodi="http://sodipodi.sourceforge.net/DTD/sodipodi-0.dtd"
   xmlns:inkscape="http://www.inkscape.org/namespaces/inkscape"
   width="500mm"
   height="210mm"
   viewBox="0 0 1771.6535 744.09448"
   id="svg4347"
   version="1.1"
   inkscape:version="0.91 r13725"
   sodipodi:docname="actual mountain.svg"
   inkscape:export-filename="C:\code\fireperson\Assets\Sprites\mountain.png"
   inkscape:export-xdpi="90"
   inkscape:export-ydpi="90">
  <defs
     id="defs4349" />
  <sodipodi:namedview
     id="base"
     pagecolor="#ffffff"
     bordercolor="#666666"
     borderopacity="1.0"
     inkscape:pageopacity="0.0"
     inkscape:pageshadow="2"
     inkscape:zoom="0.49497475"
     inkscape:cx="892.31283"
     inkscape:cy="308.08619"
     inkscape:document-units="px"
     inkscape:current-layer="layer1"
     showgrid="false"
     width="500mm"
     inkscape:window-width="1366"
     inkscape:window-height="705"
     inkscape:window-x="-8"
     inkscape:window-y="-8"
     inkscape:window-maximized="1" />
  <metadata
     id="metadata4352">
    <rdf:RDF>
      <cc:Work
         rdf:about="">
        <dc:format>image/svg+xml</dc:format>
        <dc:type
           rdf:resource="http://purl.org/dc/dcmitype/StillImage" />
        <dc:title></dc:title>
      </cc:Work>
    </rdf:RDF>
  </metadata>
  <g
     inkscape:label="Layer 1"
     inkscape:groupmode="layer"
     id="layer1"
     transform="translate(0,-308.26772)">
    <path
       style="fill:#ac9d93;fill-rule:evenodd;stroke:none;stroke-width:1px;stroke-linecap:butt;stroke-linejoin:miter;stroke-opacity:1"
       d="m 202.85708,1000.9336 c 22.92465,-23.39788 41.11227,-36.51021 54.28572,-62.85711 2.14704,-4.29408 10.42135,-9.41413 11.42857,-11.42857 7.14685,-14.29371 10.01347,-31.45552 17.14286,-45.71429 0.17694,-0.35388 7.37839,-3.32821 8.57142,-5.71428 6.48698,-12.97396 17.97803,-21.67034 25.71429,-37.14286 1.19304,-2.38608 8.39449,-5.36041 8.57143,-5.71429 2.80474,-5.60948 -0.24288,-8.08567 2.85714,-14.28571 4.09528,-8.19057 17.93784,-18.73282 22.85714,-28.57143 7.08136,-14.16272 6.61999,-31.28853 11.42858,-45.71429 3.29414,-9.88243 12.81386,-17.05631 17.14285,-25.71428 9.20376,-18.40752 97.57561,-57.43136 122.85715,-74.28572 17.0935,-11.39566 28.69097,-20.07969 45.71428,-31.42857 6.83409,-4.55606 6.92571,-10.60571 14.28572,-14.28571 4.65828,-2.32914 6.13812,-8.99527 8.57142,-11.42857 3.57729,-3.57729 11.12121,-2.24242 14.28572,-8.57143 0.85183,-1.70367 0,-7.61905 0,-5.71429 0,1.90476 -1.90476,5.71429 0,5.71429 5.57533,0 1.83201,-6.52116 2.85714,-8.57143 4.46328,-8.92656 20.61849,-12.66555 25.71429,-22.85714 2.85522,-5.71045 41.84077,-59.07962 51.42857,-54.28572 21.62546,10.81273 6.76893,19.09875 25.71428,28.57143 3.09006,1.54503 54.28572,29.77595 54.28572,31.42857 0,2.94857 17.5731,22.19159 22.85714,25.71429 8.08741,5.3916 21.90363,12.37869 25.71429,20 6.94607,13.89215 25.19398,32.98647 40,42.85714 15.32397,10.21598 17.98488,46.1353 34.28571,54.28572 20.64518,10.32259 39.47894,26.88232 60,37.14285 3.78999,1.895 10.23174,-1.35132 14.28572,0 25.60337,8.53446 42.94672,-4.70413 66.04597,-4.70413 1.9048,0 1.6736,3.00046 2.5254,4.70413 1.9629,3.92581 3.9278,7.85548 5.7143,11.42857 9.2306,18.46123 26.0999,35.01141 45.7143,42.85715 30.2102,12.08409 44.0594,26.31542 77.1428,42.85714 3.0477,1.52381 8.381,-1.52381 11.4286,0 8.1134,4.05671 24.0078,22.30138 28.5714,31.42857 1.3075,2.61482 -1.9385,9.49 0,11.42857 25.4017,25.4017 84.0079,121.7064 65.7143,140 -11.73,11.73 -191.5023,8.5714 -222.8571,8.5714 -50.47345,0 -102.00054,-2.8571 -151.42855,-2.8571 -4.23944,0 -38.70702,-2.586 -40,0 -3.43901,6.878 5.71429,4.2343 5.71429,8.5714 0,7.6191 -15.2381,0 -22.85714,0 -26.03591,0 -54.27845,3.2152 -80,0 -24.95797,-3.1197 -55.96349,3.152 -80,-2.8571 -24.02599,-6.0065 -54.21679,4.7849 -77.14286,-2.8572 -35.98301,-11.9943 -126.32662,-2.8571 -168.57143,-2.8571 -23.41547,0 -52.90182,0.9226 -71.42857,-11.4286 -14.52773,-9.68514 -47.10786,7.8747 -62.85714,0 -13.97998,-6.98997 -58.12812,-9.75367 -74.28572,-5.7143 z"
       id="path4899"
       inkscape:connector-curvature="0"
       sodipodi:nodetypes="cssssssssssssssssssssssssssssscssssccssssssssssssc" />
    <path
       style="fill:none;fill-rule:evenodd;stroke:none;stroke-width:1px;stroke-linecap:butt;stroke-linejoin:miter;stroke-opacity:1"
       d="m 664.70408,490.16859 c -7.24075,16.15953 14.39445,38.28215 6.72443,53.62218 -6.82584,13.65168 -26.17571,27.09857 -31.42857,42.85715 -3.79977,11.39932 6.15954,24.37852 0,42.85714 -4.0725,12.21751 -9.33678,24.38784 -14.28571,34.28571 -8.31898,16.63796 1.92958,41.85513 -5.71429,57.14286 -7.59672,15.19344 -44.05302,1.79382 -54.28571,17.14286 -13.51866,20.27798 -10.14968,33.30616 -17.14286,54.28571 -2.09631,6.28892 -21.72591,13.15448 -25.71429,17.14286 -3.36717,3.36717 -10.91854,-3.36718 -14.28571,0 -5.17677,5.17677 -8.47728,16.95456 -11.42857,22.85714 -7.22012,14.44024 -11.48698,14.40253 -17.14286,25.71429 -0.60234,1.20468 2.85714,-4.20401 2.85714,-2.85714 0,6.73435 0.15455,13.97661 -2.85714,20 -5.66476,11.32951 -14.62594,32.10902 -22.85714,48.57142 -2.31713,4.63426 -21.46937,12.89795 -34.28572,25.71429 -5.59215,5.59215 -1.66987,21.66987 -5.71428,25.71429 -11.50697,11.50696 -26.55112,30.32845 -26.55112,43.03055"
       id="path4901"
       inkscape:connector-curvature="0"
       sodipodi:nodetypes="cssssssssssssssssc" />
    <path
       style="opacity:0.78600003;fill:#f4e3d7;fill-opacity:1;stroke:none;stroke-width:4;stroke-miterlimit:4;stroke-dasharray:none;stroke-opacity:1"
       d="m 1094.67,714.39491 c -0.012,-1.06515 -1.5661,-3.77191 -3.4536,-6.01501 -1.8874,-2.24312 -4.5481,-7.15734 -5.9125,-10.92052 -6.7806,-18.70048 -8.3979,-21.03205 -24.0625,-34.68937 l -15.1647,-13.22151 -0.061,-8.03706 c -0.054,-7.1113 -1.2471,-10.34074 -10.3572,-28.03704 -8.3535,-16.22689 -11.3023,-20.64879 -15.6305,-23.43903 -3.9166,-2.52489 -5.5828,-4.7622 -6.2684,-8.41689 -0.7381,-3.93428 -4.7564,-8.75394 -19.16714,-22.98955 -24.28661,-23.99149 -27.97363,-31.62665 -23.61907,-48.91098 2.60929,-10.35692 10.43493,-26.80876 25.05451,-52.67212 10.9974,-19.45547 16.3197,-32.00363 15.2725,-36.00795 -1.6301,-6.23339 1.7418,-1.26388 8.1775,12.05198 5.7044,11.8029 8.952,16.43366 17.8571,25.46265 9.8775,10.01483 12.7135,11.91684 30.6479,20.55433 10.8697,5.23504 26.6197,13.76447 35,18.95429 31.7159,19.64138 38.9515,23.26362 46.4773,23.26715 6.6569,0.003 7.3368,0.39282 15.8694,9.09508 13.4856,13.7537 18.396,21.52287 17.4169,27.55665 -0.6749,4.15846 -0.063,5.77793 3.8573,10.21803 15.2705,17.29282 36.6986,50.53862 49.4013,76.64612 13.9948,28.7631 19.0053,49.82697 13.6658,57.45018 -4.6051,6.57464 -27.0365,8.84922 -98.5941,9.99754 -37.2663,0.59805 -54.6147,1.36785 -55.3352,2.45542 -0.711,1.07314 -1.0566,0.95946 -1.0715,-0.35239 z"
       id="path4915"
       inkscape:connector-curvature="0"
       transform="translate(-6.1035156e-5,308.26772)" />
    <path
       style="fill:none;fill-rule:evenodd;stroke:none;stroke-width:1px;stroke-linecap:butt;stroke-linejoin:miter;stroke-opacity:1"
       d="m 1012.1068,726.64792 c -5.1485,34.1884 -55.85954,83.92321 -40.67829,114.28571 9.17791,18.35582 33.93939,36.79653 39.99999,42.85714 1.8731,1.87309 1.4257,9.99714 2.8571,11.42858 3.2381,3.23813 9.0609,3.83608 11.4286,8.57142 7.5949,15.18977 13.5734,27.14675 20,40 1.4535,2.90705 -2.2651,12.02059 0,14.28572 7.9571,7.95715 19.5269,16.66975 28.5714,25.71428 9.7687,9.76872 6.3361,24.31573 21.0572,39.03683"
       id="path4903"
       inkscape:connector-curvature="0"
       sodipodi:nodetypes="csssssssc" />
    <path
       style="opacity:0.78600003;fill:#6c5d53;fill-opacity:1;stroke:none;stroke-width:4;stroke-miterlimit:4;stroke-dasharray:none;stroke-opacity:1"
       d="m 377.45649,708.48711 c -13.85073,-1.15003 -23.42388,-3.61358 -33.50199,-8.62136 -8.36691,-4.1575 -9.5766,-4.47614 -16.99303,-4.47614 -4.39167,0 -13.09927,0.92093 -19.35021,2.04651 -15.89921,2.8629 -23.46601,2.76747 -32.67818,-0.41214 -12.91171,-4.45652 -25.33765,-6.02224 -48.45165,-6.10506 l -20.92611,-0.075 18.50402,-18.68783 c 19.17395,-19.3644 24.32384,-25.57789 30.47563,-36.76969 2.00705,-3.6514 6.04469,-8.80888 9.03761,-11.54426 5.99714,-5.48104 7.87386,-9.26281 14.12223,-28.45764 5.83539,-17.92618 8.1704,-22.65275 12.12175,-24.53702 2.17471,-1.03704 4.9885,-4.06514 7.88739,-8.48809 2.47863,-3.78176 7.09429,-10.0579 10.25702,-13.94698 3.16274,-3.88909 7.42383,-9.88658 9.46907,-13.32775 2.45323,-4.12763 5.02911,-6.99753 7.56974,-8.43383 4.27083,-2.41441 5.74534,-5.24363 5.74534,-11.02384 0,-4.49624 2.8528,-8.86714 13.65563,-20.92234 3.8993,-4.35136 8.08281,-9.52181 9.29669,-11.48991 2.67791,-4.3418 6.43934,-17.71315 9.2961,-33.04645 2.71952,-14.59662 4.21178,-18.174 11.68607,-28.01488 3.37999,-4.45022 7.20607,-9.82533 8.50237,-11.94471 6.05867,-9.90554 25.87003,-22.38158 82.92358,-52.22042 29.66941,-15.51702 36.82641,-19.84853 65.6592,-39.73784 17.83738,-12.30449 24.05475,-17.16236 26.8649,-20.99055 2.01099,-2.73953 4.93144,-5.64032 6.48988,-6.44622 1.55844,-0.8059 4.57818,-4.07899 6.71054,-7.27352 3.22717,-4.83466 4.72364,-6.11405 8.92779,-7.63272 2.77792,-1.00347 5.80548,-2.71719 6.72791,-3.80827 0.92243,-1.09108 2.14187,-1.98378 2.70985,-1.98378 1.41022,0 2.45017,-3.61516 1.71043,-5.9459 -0.84967,-2.67706 3.34296,-7.32579 11.98062,-13.28394 10.07574,-6.95013 9.74374,-6.62038 16.23622,-16.1255 12.71274,-18.61171 38.57307,-48.48732 41.97063,-48.48732 0.54548,0 0.99177,2.07124 0.99177,4.60276 0,2.78631 1.79393,9.91814 4.54569,18.07157 7.22067,21.39476 6.6441,24.46628 -7.68163,40.92145 -12.63604,14.51431 -15.14213,17.79329 -18.10688,23.69122 -3.47269,6.90841 -3.70502,10.80429 -1.45117,24.33486 0.91258,5.47853 1.25718,11.29922 0.86715,14.64721 -0.73007,6.26688 -5.9449,20.8448 -12.828,35.86041 -6.50851,14.19839 -7.06019,17.381 -6.30377,36.36549 0.52112,13.07882 0.33895,17.30777 -0.95485,22.16548 -0.87936,3.30167 -2.15,6.67117 -2.82365,7.48777 -2.8633,3.4709 -9.5648,5.20492 -23.81989,6.16343 -23.36495,1.57105 -26.65361,3.17642 -33.24833,16.23021 -4.17677,8.26765 -5.55271,13.04112 -10.47524,36.34146 -2.67037,12.63995 -4.17147,14.49232 -17.16571,21.18267 -4.64175,2.3899 -9.25601,5.05488 -10.25392,5.92219 -1.55319,1.34991 -2.63202,1.40542 -7.49388,0.38564 -4.42616,-0.92841 -6.0066,-0.91981 -7.16183,0.039 -2.36906,1.96615 -5.6065,7.72606 -9.14213,16.2653 -3.69424,8.92232 -6.38509,13.46199 -13.43695,22.66921 -2.67909,3.49793 -5.38334,7.31705 -6.00943,8.48693 -0.98658,1.84342 -0.90084,2.0359 0.64301,1.44346 1.6265,-0.62414 1.73085,-0.0886 1.20016,6.16029 -0.51021,6.00786 -2.01538,9.9287 -12.32196,32.09768 -6.45741,13.88959 -12.40786,26.27347 -13.22323,27.51972 -0.81536,1.24626 -6.13337,5.27796 -11.81779,8.95934 -13.22509,8.5649 -22.37359,15.97377 -23.92269,19.37369 -0.67098,1.47262 -1.48048,6.6987 -1.7989,11.61349 l -0.57894,8.93599 -7.50614,8.76136 c -10.15895,11.85775 -16.49345,21.61332 -19.14767,29.48868 -1.21711,3.6113 -2.8081,6.61931 -3.53553,6.68447 -0.72745,0.0652 -5.53106,-0.23096 -10.67471,-0.65804 z"
       id="path4909"
       inkscape:connector-curvature="0"
       transform="translate(-6.1035156e-5,308.26772)" />
  </g>
</svg>
