<?xml version="1.0" encoding="UTF-8" standalone="no"?>
<!-- Created with Inkscape (http://www.inkscape.org/) -->

<svg
   xmlns:dc="http://purl.org/dc/elements/1.1/"
   xmlns:cc="http://creativecommons.org/ns#"
   xmlns:rdf="http://www.w3.org/1999/02/22-rdf-syntax-ns#"
   xmlns:svg="http://www.w3.org/2000/svg"
   xmlns="http://www.w3.org/2000/svg"
   xmlns:sodipodi="http://sodipodi.sourceforge.net/DTD/sodipodi-0.dtd"
   xmlns:inkscape="http://www.inkscape.org/namespaces/inkscape"
   width="500mm"
   height="210mm"
   viewBox="0 0 1771.6535 744.09448"
   id="svg2"
   version="1.1"
   inkscape:version="0.91 r13725"
   sodipodi:docname="mountain1.svg">
  <defs
     id="defs4" />
  <sodipodi:namedview
     id="base"
     pagecolor="#ffffff"
     bordercolor="#666666"
     borderopacity="1.0"
     inkscape:pageopacity="0.0"
     inkscape:pageshadow="2"
     inkscape:zoom="0.48140636"
     inkscape:cx="922.98044"
     inkscape:cy="397.71883"
     inkscape:document-units="px"
     inkscape:current-layer="layer1"
     showgrid="false"
     width="500mm"
     inkscape:window-width="1366"
     inkscape:window-height="705"
     inkscape:window-x="-8"
     inkscape:window-y="-8"
     inkscape:window-maximized="1" />
  <metadata
     id="metadata7">
    <rdf:RDF>
      <cc:Work
         rdf:about="">
        <dc:format>image/svg+xml</dc:format>
        <dc:type
           rdf:resource="http://purl.org/dc/dcmitype/StillImage" />
        <dc:title></dc:title>
      </cc:Work>
    </rdf:RDF>
  </metadata>
  <g
     inkscape:label="Layer 1"
     inkscape:groupmode="layer"
     id="layer1"
     transform="translate(0,-308.26772)">
    <path
       style="opacity:0.78600003;fill:#aa4400;fill-opacity:1;stroke:#aa4400;stroke-width:8.30898857;stroke-miterlimit:4;stroke-dasharray:none;stroke-opacity:1"
       d="m 1716.3788,1043.2268 c -43.8259,-10.5734 -60.0628,-12.5345 -122.6171,-14.8096 -71.922,-2.6158 -94.3105,-0.9929 -139.2137,10.0911 -29.8377,7.3652 -32.9641,7.7246 -73.7423,8.4772 -99.9013,1.8436 -252.5923,-10.906 -268.3653,-22.4084 -6.2926,-4.5888 -24.6341,-12.1124 -59.8985,-24.5699 l -23.947,-8.45951 -51.87246,-1.37429 c -80.3981,-2.13005 -155.08757,4.09058 -190.25503,15.8457 -17.46514,5.8379 -27.86457,7.8345 -52.87705,10.152 -42.25408,3.915 -103.31717,6.2698 -217.95815,8.4054 -180.5564,3.3634 -233.74218,6.0997 -308.72289,15.883 -27.7763,3.6242 -29.41218,3.6077 -89.32162,-0.9032 -33.564907,-2.5273 -68.972587,-5.0814 -78.683717,-5.6758 -61.47532,-3.7626 -117.09854,-12.1772 -130.57932,-19.7538 -7.63109,-4.2889 -18.982473,-18.72667 -18.982473,-24.1437 0,-3.90564 10.906263,-15.60648 23.866363,-25.60512 6.29412,-4.85588 24.19683,-22.83699 39.78379,-39.95801 15.58697,-17.12105 34.04917,-35.24555 41.0271205,-40.27666 23.4064895,-16.87616 28.0943095,-21.61262 49.1587895,-49.66885 23.0488,-30.6992 31.4195,-38.88518 48.70622,-47.63147 15.959377,-8.07471 27.295577,-6.67216 47.478717,5.87427 17.21126,10.69901 26.45276,12.93616 29.00707,7.02193 0.61678,-1.42811 5.80728,-13.67996 11.53443,-27.22636 12.29116,-29.07209 39.0175,-76.91103 47.35252,-84.75887 14.5417,-13.69169 34.87392,-19.2922 48.20864,-13.27907 l 7.92121,3.57197 10.47539,-10.20333 c 5.76146,-5.61185 20.40916,-16.96517 32.55045,-25.22964 12.1413,-8.26446 23.35235,-17.07113 24.91346,-19.57039 1.56109,-2.49929 4.36101,-11.4904 6.22204,-19.9803 1.86103,-8.48991 6.0441,-21.10919 9.29572,-28.04283 3.25162,-6.93367 9.12751,19.20292 10.51867,14.92072 3.55759,-10.95086 42.99527,-53.55017 57.99449,-62.64378 22.61927,-13.71344 24.96554,-39.66451 61.5797,-39.66451 32.68499,0 33.41367,-10.28774 43.9563,-4.44448 5.89618,3.26797 13.7735,9.09182 17.50515,12.94192 l 6.78481,7.00013 14.5583,-14.79108 c 8.00706,-8.13508 21.16187,-19.05787 29.23291,-24.27282 8.07104,-5.21497 20.96348,-15.38152 28.64985,-22.59234 15.34031,-14.39119 20.6958,-17.19736 32.82065,-17.19736 7.5703,0 8.64629,0.80981 16.56015,12.46348 4.65509,6.85491 8.76469,12.46348 9.13247,12.46348 0.36778,0 7.57734,-3.16665 16.02127,-7.037 8.44392,-3.87035 23.76543,-9.56739 34.0478,-12.6601 33.30154,-10.01635 36.99725,-12.21824 48.54541,-28.92324 5.6933,-8.23567 13.74831,-22.13031 17.9,-30.87697 5.83627,-12.29568 9.99376,-17.86799 18.32825,-24.56554 14.62187,-11.75005 29.47344,-18.44966 40.95378,-18.47444 9.15011,-0.0197 9.67798,-0.38709 19.73386,-13.73252 16.8037,-22.3007 64.0997,-56.91418 77.7678,-56.91418 3.2399,0 9.584,5.05078 19.7499,15.72352 16.20526,17.01335 21.40806,19.44469 41.81316,19.54013 11.8312,0.0553 22.8286,3.15676 28.449,8.02305 2.0522,1.77689 6.6447,8.69668 10.2054,15.37732 8.0244,15.05521 20.3683,29.30581 28.192,32.54648 5.1887,2.14923 7.5697,1.67128 19.2858,-3.87132 14.0675,-6.65498 26.0026,-8.07535 31.3424,-3.72998 1.755,1.42811 5.1419,5.45611 7.5265,8.9511 3.4872,5.11089 10.5631,8.91369 36.1546,19.43066 53.525,21.9963 88.9433,44.24301 88.9433,55.86653 0,4.51733 13.9126,26.61152 20.3314,32.28762 6.6114,5.84644 43.4765,9.5225 62.1163,6.19404 29.2009,-5.21434 37.555,-5.63698 42.8496,-2.16784 6.9347,4.54384 18.483,22.57374 33.374,52.10574 23.5945,46.79267 43.0447,71.71413 59.38,76.08323 13.7152,3.66829 36.3252,1.83101 50.5042,-4.10394 10.9924,-4.60114 12.8494,-4.80957 21.8111,-2.44812 13.4189,3.53593 21.7182,9.86688 31.9353,24.36098 11.7315,16.64259 26.2484,33.74667 30.6342,36.09389 1.9782,1.05872 15.6845,3.01623 30.4585,4.35003 28.8111,2.60111 75.6718,13.23846 89.3883,20.29113 11.7732,6.05345 17.6534,13.3196 30.7166,37.95652 l 11.6578,21.9865 0,66.8793 0,66.87928 7.2704,6.38346 7.2704,6.38346 0,26.98205 c 0,19.01267 -1.2624,33.21373 -4.2741,48.08082 -8.1492,40.22801 -19.2595,75.13522 -26.331,82.72872 -6.6435,7.1338 -27.7342,18.3898 -34.0804,18.1886 -2.6962,-0.086 -16.0755,-2.8511 -29.7316,-6.1458 z"
       id="path4324"
       inkscape:connector-curvature="0"
       sodipodi:nodetypes="sssssscssssssssssssssssssscsssssssssscsssssssssssssssssssscssssssssssssssscccccssscs" />
    <path
       style="opacity:0.78600003;fill:#ffffff;fill-opacity:1;stroke:none;stroke-width:8.30898857;stroke-miterlimit:4;stroke-dasharray:none;stroke-opacity:1"
       d="m 1717.981,683.18122 c -43.8259,-6.03316 -60.0628,-7.15216 -122.6171,-8.45032 -71.922,-1.49257 -94.3105,-0.56655 -139.2137,5.75796 -29.8377,4.20256 -32.9641,4.40764 -73.7423,4.83707 -99.9013,1.05195 -252.5923,-6.22294 -268.3653,-12.78619 -6.2926,-2.61836 -24.6341,-6.91131 -59.8985,-14.01954 l -23.947,-4.82697 -51.8725,-0.78418 c -80.3981,-1.21543 -155.0875,2.33409 -190.2549,9.04153 -17.4652,3.33109 -27.8646,4.47035 -52.8771,5.79271 -42.2541,2.23389 -103.3172,3.57754 -217.9581,4.79611 -180.55643,1.91915 -233.74221,3.48048 -308.72292,9.06281 -27.7763,2.06796 -29.41218,2.05854 -89.32162,-0.51537 -33.564904,-1.44207 -68.972584,-2.89943 -78.683714,-3.2386 -61.47533,-2.14693 -117.09855,-6.94829 -130.57933,-11.27148 -7.63109,-2.44724 -18.982466,-10.68542 -18.982466,-13.77635 0,-2.22858 10.906256,-8.90504 23.866356,-14.61022 6.29412,-2.77076 24.19683,-13.0308 39.78379,-22.80001 15.58697,-9.76921 34.04918,-20.11101 41.0271304,-22.9818 23.4064896,-9.62947 28.0943096,-12.33211 49.1587896,-28.34092 23.0488,-17.51691 31.4195,-22.18781 48.70622,-27.17843 15.959374,-4.60741 27.295574,-3.80712 47.478714,3.35185 17.21126,6.10484 26.45276,7.38135 29.00707,4.0067 0.61678,-0.81488 5.80728,-7.80576 11.53443,-15.53531 12.29116,-16.58847 39.0175,-43.88527 47.35252,-48.36324 14.5417,-7.81245 34.87392,-11.00809 48.20864,-7.57701 l 7.92121,2.03816 10.47539,-5.822 c 5.76146,-3.20211 20.40916,-9.68029 32.55045,-14.39598 12.1413,-4.71568 23.35235,-9.74075 24.91346,-11.16682 1.56109,-1.42609 4.36101,-6.5564 6.22204,-11.40072 1.86103,-4.84433 6.0441,-12.04486 9.29572,-16.00119 3.25162,-3.95633 9.12751,10.95715 10.51867,8.51374 3.55759,-6.24854 42.99527,-30.55562 57.99449,-35.74442 22.61927,-7.82486 24.96554,-22.63249 61.57966,-22.63249 32.685,0 33.4137,-5.87016 43.9563,-2.53601 5.8962,1.8647 13.7735,5.18778 17.5052,7.38464 l 6.7848,3.99426 14.5583,-8.43977 c 8.0071,-4.64186 21.1619,-10.87438 29.2329,-13.85002 8.071,-2.97565 20.9635,-8.77666 28.6499,-12.89114 15.3403,-8.21159 20.6958,-9.81278 32.8206,-9.81278 7.5703,0 8.6463,0.46208 16.5602,7.11164 4.655,3.91139 8.7646,7.11163 9.1324,7.11163 0.3678,0 7.5774,-1.80688 16.0213,-4.01529 8.4439,-2.20842 23.7654,-5.45914 34.0478,-7.22383 33.3015,-5.71531 36.9972,-6.97171 48.5454,-16.50354 5.6933,-4.69926 13.7483,-12.62752 17.9,-17.61834 5.8363,-7.01589 9.9938,-10.19544 18.3283,-14.01705 14.6218,-6.70455 29.4734,-10.52734 40.9537,-10.54148 9.1501,-0.0112 9.678,-0.22087 19.7338,-7.83575 16.8037,-12.72473 64.0997,-32.47511 77.7678,-32.47511 3.2399,0 9.584,2.88196 19.7499,8.97181 16.2053,9.70778 21.4081,11.0951 41.8132,11.14956 11.8312,0.0316 22.8286,1.80124 28.449,4.57793 2.0522,1.01389 6.6447,4.96231 10.2054,8.77427 8.0244,8.59047 20.3683,16.72184 28.192,18.57096 5.1887,1.22634 7.5697,0.95362 19.2858,-2.20897 14.0675,-3.79732 26.0026,-4.60778 31.3424,-2.12832 1.755,0.81488 5.1419,3.11324 7.5265,5.10748 3.4872,2.91626 10.5631,5.08613 36.1546,11.08709 53.525,12.55105 88.9433,25.24498 88.9433,31.87733 0,2.57758 13.9126,15.18448 20.3314,18.42325 6.6114,3.33597 43.4765,5.43352 62.1163,3.53431 29.2009,-2.97529 37.555,-3.21645 42.8496,-1.23696 6.9347,2.5927 18.483,12.88053 33.374,29.73143 23.5945,26.6998 43.0447,40.91993 59.38,43.41293 13.7152,2.09312 36.3252,1.04477 50.5042,-2.3417 10.9924,-2.6254 12.8494,-2.74433 21.8111,-1.39689 13.4189,2.0176 21.7182,5.63002 31.9353,13.90033 11.7315,9.49623 26.2484,19.25578 30.6342,20.5951 1.9782,0.6041 15.6845,1.72105 30.4585,2.48212 28.8111,1.48419 75.6718,7.55384 89.3883,11.57807 11.7732,3.45409 17.6534,7.60014 30.7166,21.65792 l 11.6578,12.54545 0,38.1612 0,38.16117 7.2704,3.64241 7.2704,3.64235 0,15.39594 c 0,10.8486 -1.2624,18.95167 -4.2741,27.43486 -8.1492,22.95402 -19.2595,42.872 -26.331,47.20484 -6.6435,4.07053 -27.7342,10.49318 -34.0804,10.37837 -2.6962,-0.0491 -16.0755,-1.62683 -29.7316,-3.50678 z"
       id="path4324-1"
       inkscape:connector-curvature="0"
       sodipodi:nodetypes="sssssscssssssssssssssssssscsssssssssscsssssssssssssssssssscssssssssssssssscccccssscs" />
  </g>
</svg>
